<svg xmlns="http://www.w3.org/2000/svg" xmlns:xlink="http://www.w3.org/1999/xlink" width="512" zoomAndPan="magnify" viewBox="0 0 384 383.999986" height="512" preserveAspectRatio="xMidYMid meet" version="1.0"><path fill="#fbb040" d="M 70.988281 59.371094 L 74.398438 61.910156 C 75.40625 62.664062 76.585938 63.027344 77.753906 63.027344 C 79.472656 63.027344 81.164062 62.242188 82.269531 60.761719 C 84.125 58.269531 83.609375 54.746094 81.121094 52.890625 L 78.570312 50.992188 L 79.519531 47.957031 C 80.441406 44.992188 78.785156 41.835938 75.820312 40.914062 C 72.855469 39.988281 69.699219 41.644531 68.773438 44.609375 L 67.511719 48.671875 L 59.210938 51.367188 L 59.210938 42.640625 L 62.679688 40.183594 C 65.21875 38.386719 65.820312 34.878906 64.023438 32.34375 C 62.226562 29.804688 58.71875 29.207031 56.179688 31 L 53.585938 32.839844 L 50.992188 31 C 48.457031 29.207031 44.945312 29.804688 43.152344 32.34375 C 41.355469 34.878906 41.957031 38.390625 44.492188 40.183594 L 47.960938 42.640625 L 47.960938 51.367188 L 39.664062 48.671875 L 38.398438 44.613281 C 37.472656 41.644531 34.320312 39.988281 31.355469 40.914062 C 28.390625 41.835938 26.734375 44.992188 27.65625 47.957031 L 28.601562 50.992188 L 26.054688 52.890625 C 23.5625 54.75 23.046875 58.269531 24.90625 60.765625 C 26.011719 62.242188 27.703125 63.027344 29.421875 63.027344 C 30.589844 63.027344 31.765625 62.664062 32.777344 61.914062 L 36.183594 59.371094 L 44.484375 62.066406 L 39.355469 69.128906 L 35.105469 69.074219 C 32.03125 69.042969 29.445312 71.523438 29.410156 74.632812 C 29.371094 77.738281 31.859375 80.289062 34.964844 80.324219 L 38.144531 80.363281 L 39.164062 83.375 C 39.957031 85.71875 42.148438 87.199219 44.492188 87.199219 C 45.089844 87.199219 45.699219 87.101562 46.296875 86.898438 C 49.238281 85.902344 50.816406 82.710938 49.820312 79.769531 L 48.457031 75.742188 L 53.585938 68.679688 L 58.714844 75.742188 L 57.351562 79.769531 C 56.355469 82.710938 57.933594 85.902344 60.875 86.898438 C 61.472656 87.101562 62.082031 87.199219 62.679688 87.199219 C 65.023438 87.199219 67.214844 85.71875 68.007812 83.375 L 69.027344 80.363281 L 72.207031 80.324219 C 75.3125 80.289062 77.796875 77.738281 77.761719 74.632812 C 77.726562 71.523438 75.183594 69.050781 72.066406 69.074219 L 67.816406 69.128906 L 62.6875 62.066406 Z M 70.988281 59.371094 " fill-opacity="1" fill-rule="nonzero"/><path fill="#fbb040" d="M 361.773438 0 L 322.488281 0 C 319.382812 0 316.863281 2.519531 316.863281 5.625 C 316.863281 8.730469 319.382812 11.25 322.488281 11.25 L 361.773438 11.25 C 367.824219 11.25 372.75 16.171875 372.75 22.222656 L 372.75 150.914062 L 11.25 150.914062 L 11.25 22.222656 C 11.25 16.175781 16.171875 11.25 22.226562 11.25 L 299.988281 11.25 C 303.097656 11.25 305.613281 8.730469 305.613281 5.625 C 305.613281 2.519531 303.097656 0 299.988281 0 L 22.226562 0 C 9.96875 0 0 9.96875 0 22.222656 L 0 156.539062 C 0 158.335938 0.40625 160.144531 1.167969 161.769531 L 15.449219 192.242188 C 19.527344 200.941406 28.371094 206.5625 37.976562 206.5625 L 87.367188 206.5625 C 90.472656 206.5625 92.992188 204.042969 92.992188 200.9375 C 92.992188 197.832031 90.472656 195.3125 87.367188 195.3125 L 55.238281 195.3125 L 55.238281 183.421875 L 328.761719 183.421875 L 328.761719 195.3125 L 109.863281 195.3125 C 106.757812 195.3125 104.238281 197.832031 104.238281 200.9375 C 104.238281 204.042969 106.757812 206.5625 109.863281 206.5625 L 346.023438 206.5625 C 355.628906 206.5625 364.472656 200.941406 368.550781 192.242188 L 382.832031 161.769531 C 383.597656 160.144531 384 158.335938 384 156.539062 L 384 22.222656 C 384 9.96875 374.03125 0 361.773438 0 Z M 358.363281 187.46875 C 356.128906 192.234375 351.285156 195.3125 346.023438 195.3125 L 340.011719 195.3125 L 340.011719 183.160156 C 340.011719 177.101562 335.085938 172.171875 329.023438 172.171875 L 54.972656 172.171875 C 48.914062 172.171875 43.988281 177.101562 43.988281 183.160156 L 43.988281 195.3125 L 37.976562 195.3125 C 32.714844 195.3125 27.867188 192.234375 25.636719 187.46875 L 13.773438 162.164062 L 370.222656 162.164062 Z M 358.363281 187.46875 " fill-opacity="1" fill-rule="nonzero"/><path fill="#fbb040" d="M 350.625 58.582031 C 350.625 47.96875 341.992188 39.339844 331.382812 39.339844 C 320.769531 39.339844 312.140625 47.96875 312.140625 58.582031 C 312.140625 69.191406 320.769531 77.824219 331.382812 77.824219 C 341.992188 77.824219 350.625 69.191406 350.625 58.582031 Z M 323.390625 58.582031 C 323.390625 54.175781 326.976562 50.589844 331.382812 50.589844 C 335.789062 50.589844 339.375 54.175781 339.375 58.582031 C 339.375 62.988281 335.789062 66.574219 331.382812 66.574219 C 326.976562 66.574219 323.390625 62.988281 323.390625 58.582031 Z M 323.390625 58.582031 " fill-opacity="1" fill-rule="nonzero"/><path fill="#fbb040" d="M 210.769531 52.957031 C 207.664062 52.957031 205.144531 55.476562 205.144531 58.582031 C 205.144531 61.6875 207.664062 64.207031 210.769531 64.207031 L 277.140625 64.207031 C 280.246094 64.207031 282.765625 61.6875 282.765625 58.582031 C 282.765625 55.476562 280.246094 52.957031 277.140625 52.957031 Z M 210.769531 52.957031 " fill-opacity="1" fill-rule="nonzero"/><path fill="#fbb040" d="M 115.636719 246.882812 C 115.636719 238.574219 111.460938 234.117188 108.417969 230.859375 C 105.8125 228.074219 104.238281 226.398438 104.238281 222.53125 C 104.238281 219.425781 101.722656 216.90625 98.613281 216.90625 C 95.507812 216.90625 92.988281 219.425781 92.988281 222.53125 C 92.988281 230.839844 97.160156 235.296875 100.207031 238.550781 C 102.8125 241.335938 104.386719 243.015625 104.386719 246.882812 C 104.386719 250.75 102.8125 252.429688 100.207031 255.214844 C 97.160156 258.46875 92.988281 262.925781 92.988281 271.234375 C 92.988281 279.546875 97.15625 284 100.207031 287.257812 C 102.8125 290.042969 104.382812 291.722656 104.382812 295.589844 C 104.382812 299.457031 102.8125 301.140625 100.207031 303.925781 C 98.082031 306.191406 98.199219 309.753906 100.46875 311.875 C 101.554688 312.890625 102.933594 313.394531 104.3125 313.394531 C 105.8125 313.394531 107.3125 312.796875 108.421875 311.613281 C 111.464844 308.359375 115.636719 303.902344 115.636719 295.589844 C 115.636719 287.277344 111.464844 282.824219 108.414062 279.566406 C 105.8125 276.78125 104.238281 275.101562 104.238281 271.234375 C 104.238281 267.367188 105.8125 265.6875 108.417969 262.902344 C 111.464844 259.648438 115.636719 255.191406 115.636719 246.882812 Z M 115.636719 246.882812 " fill-opacity="1" fill-rule="nonzero"/><path fill="#fbb040" d="M 174.09375 246.882812 C 174.09375 238.574219 169.921875 234.117188 166.875 230.859375 C 164.269531 228.078125 162.695312 226.398438 162.695312 222.53125 C 162.695312 219.425781 160.179688 216.90625 157.070312 216.90625 C 153.964844 216.90625 151.445312 219.425781 151.445312 222.53125 C 151.445312 230.839844 155.617188 235.296875 158.664062 238.550781 C 161.273438 241.335938 162.847656 243.015625 162.847656 246.882812 C 162.847656 250.75 161.269531 252.429688 158.664062 255.214844 C 155.617188 258.46875 151.445312 262.925781 151.445312 271.234375 C 151.445312 279.546875 155.617188 284 158.664062 287.257812 C 161.273438 290.042969 162.847656 291.722656 162.847656 295.589844 C 162.847656 299.457031 161.269531 301.140625 158.664062 303.925781 C 156.542969 306.191406 156.660156 309.753906 158.929688 311.875 C 160.011719 312.890625 161.394531 313.394531 162.769531 313.394531 C 164.273438 313.394531 165.773438 312.796875 166.878906 311.613281 C 169.925781 308.359375 174.097656 303.902344 174.097656 295.589844 C 174.097656 287.277344 169.925781 282.824219 166.875 279.566406 C 164.269531 276.78125 162.699219 275.101562 162.699219 271.234375 C 162.699219 267.367188 164.273438 265.6875 166.878906 262.902344 C 169.921875 259.648438 174.09375 255.191406 174.09375 246.882812 Z M 174.09375 246.882812 " fill-opacity="1" fill-rule="nonzero"/><path fill="#fbb040" d="M 232.550781 246.882812 C 232.550781 238.574219 228.378906 234.117188 225.332031 230.859375 C 222.730469 228.078125 221.15625 226.398438 221.15625 222.53125 C 221.15625 219.425781 218.636719 216.90625 215.53125 216.90625 C 212.425781 216.90625 209.90625 219.425781 209.90625 222.53125 C 209.90625 230.839844 214.074219 235.296875 217.121094 238.550781 C 219.730469 241.335938 221.300781 243.015625 221.300781 246.882812 C 221.300781 250.75 219.730469 252.429688 217.121094 255.214844 C 214.078125 258.46875 209.90625 262.925781 209.90625 271.234375 C 209.90625 279.542969 214.074219 284 217.121094 287.257812 C 219.730469 290.042969 221.300781 291.722656 221.300781 295.589844 C 221.300781 299.457031 219.730469 301.140625 217.121094 303.925781 C 215 306.191406 215.117188 309.753906 217.386719 311.875 C 218.472656 312.890625 219.851562 313.394531 221.230469 313.394531 C 222.730469 313.394531 224.230469 312.796875 225.335938 311.613281 C 228.382812 308.359375 232.550781 303.902344 232.550781 295.589844 C 232.550781 287.277344 228.382812 282.824219 225.332031 279.566406 C 222.730469 276.78125 221.160156 275.101562 221.160156 271.234375 C 221.160156 267.367188 222.730469 265.6875 225.335938 262.902344 C 228.378906 259.648438 232.550781 255.191406 232.550781 246.882812 Z M 232.550781 246.882812 " fill-opacity="1" fill-rule="nonzero"/><path fill="#fbb040" d="M 291.011719 246.882812 C 291.011719 238.574219 286.839844 234.117188 283.792969 230.859375 C 281.183594 228.074219 279.613281 226.398438 279.613281 222.53125 C 279.613281 219.425781 277.09375 216.90625 273.988281 216.90625 C 270.882812 216.90625 268.363281 219.425781 268.363281 222.53125 C 268.363281 230.839844 272.535156 235.296875 275.582031 238.550781 C 278.1875 241.335938 279.761719 243.015625 279.761719 246.882812 C 279.761719 250.75 278.183594 252.429688 275.582031 255.214844 C 272.535156 258.46875 268.363281 262.925781 268.363281 271.234375 C 268.363281 279.542969 272.53125 284 275.578125 287.253906 C 278.183594 290.042969 279.757812 291.722656 279.757812 295.589844 C 279.757812 299.457031 278.183594 301.140625 275.578125 303.925781 C 273.457031 306.191406 273.574219 309.753906 275.839844 311.875 C 276.929688 312.890625 278.308594 313.394531 279.683594 313.394531 C 281.1875 313.394531 282.683594 312.796875 283.792969 311.613281 C 286.839844 308.359375 291.011719 303.902344 291.011719 295.589844 C 291.011719 287.277344 286.839844 282.824219 283.789062 279.566406 C 281.183594 276.78125 279.613281 275.101562 279.613281 271.234375 C 279.613281 267.367188 281.183594 265.6875 283.792969 262.902344 C 286.839844 259.648438 291.011719 255.191406 291.011719 246.882812 Z M 291.011719 246.882812 " fill-opacity="1" fill-rule="nonzero"/></svg>