<svg xmlns="http://www.w3.org/2000/svg" xmlns:xlink="http://www.w3.org/1999/xlink" width="511" zoomAndPan="magnify" viewBox="0 0 383.25 383.249986" height="511" preserveAspectRatio="xMidYMid meet" version="1.0"><defs><clipPath id="b3969813d6"><path d="M 65 142 L 317 142 L 317 382.5 L 65 382.5 Z M 65 142 " clip-rule="nonzero"/></clipPath></defs><path fill="#fbb040" d="M 174.410156 56.140625 L 185.636719 56.140625 L 185.636719 113.777344 L 169.667969 113.777344 L 129.074219 265.265625 L 139.921875 268.171875 L 178.28125 125.003906 L 204.21875 125.003906 L 216.679688 171.511719 L 227.523438 168.605469 L 212.835938 113.777344 L 196.863281 113.777344 L 196.863281 56.140625 L 208.09375 56.140625 L 208.09375 101.050781 L 256.746094 101.050781 L 256.746094 39.296875 L 245.519531 39.296875 L 245.519531 89.824219 L 219.320312 89.824219 L 219.320312 11.226562 L 245.519531 11.226562 L 245.519531 28.070312 L 256.746094 28.070312 L 256.746094 0 L 208.09375 0 L 208.09375 44.910156 L 174.410156 44.910156 L 174.410156 0 L 125.753906 0 L 125.753906 101.050781 L 174.410156 101.050781 Z M 163.179688 89.824219 L 136.980469 89.824219 L 136.980469 11.226562 L 163.179688 11.226562 Z M 163.179688 89.824219 " fill-opacity="1" fill-rule="nonzero"/><g clip-path="url(#b3969813d6)"><path fill="#fbb040" d="M 296.046875 348.816406 L 275.8125 348.816406 L 230.429688 179.453125 L 219.585938 182.355469 L 264.1875 348.816406 L 252.5625 348.816406 L 197.40625 142.96875 L 185.09375 142.96875 L 129.9375 348.816406 L 118.3125 348.816406 L 137.015625 279.015625 L 126.171875 276.109375 L 106.691406 348.816406 L 86.457031 348.816406 C 75.105469 348.816406 65.871094 358.050781 65.871094 369.402344 L 65.871094 382.5 L 316.628906 382.5 L 316.628906 369.402344 C 316.628906 358.050781 307.394531 348.816406 296.046875 348.816406 Z M 233.367188 320.558594 L 203.804688 305.777344 L 226.382812 294.488281 Z M 191.25 299.5 L 162.753906 285.25 L 191.25 265.820312 L 219.746094 285.25 Z M 220.382812 272.09375 L 201.214844 259.027344 L 214.460938 249.996094 Z M 191.25 163.375 L 205.238281 215.578125 L 177.261719 215.578125 Z M 174.253906 226.804688 L 208.246094 226.804688 L 211.382812 238.507812 L 191.25 252.230469 L 171.117188 238.507812 Z M 168.039062 249.996094 L 181.285156 259.027344 L 162.117188 272.09375 Z M 156.117188 294.488281 L 178.695312 305.777344 L 149.132812 320.558594 Z M 305.402344 371.273438 L 77.097656 371.273438 L 77.097656 369.402344 C 77.097656 364.242188 81.296875 360.046875 86.457031 360.046875 L 173.605469 360.046875 L 173.605469 348.816406 L 141.5625 348.816406 L 145.25 335.054688 L 191.25 312.054688 L 237.253906 335.054688 L 240.941406 348.816406 L 184.835938 348.816406 L 184.835938 360.046875 L 296.046875 360.046875 C 301.207031 360.046875 305.402344 364.242188 305.402344 369.402344 Z M 305.402344 371.273438 " fill-opacity="1" fill-rule="nonzero"/></g><path fill="#fbb040" d="M 60.429688 9.527344 L 52.488281 1.585938 C 39.398438 14.679688 32.1875 32.058594 32.1875 50.527344 C 32.1875 68.992188 39.398438 86.371094 52.488281 99.464844 L 60.425781 91.527344 C 49.457031 80.554688 43.414062 65.992188 43.414062 50.527344 C 43.414062 35.058594 49.457031 20.496094 60.429688 9.527344 Z M 60.429688 9.527344 " fill-opacity="1" fill-rule="nonzero"/><path fill="#fbb040" d="M 68.359375 83.59375 L 76.296875 75.65625 C 69.574219 68.929688 65.871094 60.007812 65.871094 50.527344 C 65.871094 41.046875 69.574219 32.121094 76.300781 25.398438 L 68.359375 17.457031 C 59.515625 26.304688 54.644531 38.046875 54.644531 50.527344 C 54.644531 63.003906 59.515625 74.75 68.359375 83.59375 Z M 68.359375 83.59375 " fill-opacity="1" fill-rule="nonzero"/><path fill="#fbb040" d="M 92.164062 59.789062 C 89.691406 57.316406 88.328125 54.023438 88.328125 50.527344 C 88.328125 47.027344 89.691406 43.738281 92.164062 41.261719 L 84.222656 33.324219 C 79.628906 37.917969 77.097656 44.027344 77.097656 50.527344 C 77.097656 57.023438 79.628906 63.132812 84.222656 67.726562 Z M 92.164062 59.789062 " fill-opacity="1" fill-rule="nonzero"/><path fill="#fbb040" d="M 99.554688 44.910156 L 110.78125 44.910156 L 110.78125 56.140625 L 99.554688 56.140625 Z M 99.554688 44.910156 " fill-opacity="1" fill-rule="nonzero"/><path fill="#fbb040" d="M 330.011719 1.585938 L 322.074219 9.527344 C 333.046875 20.496094 339.085938 35.058594 339.085938 50.527344 C 339.085938 65.992188 333.046875 80.554688 322.074219 91.527344 L 330.011719 99.464844 C 343.105469 86.371094 350.3125 68.992188 350.3125 50.527344 C 350.3125 32.058594 343.105469 14.679688 330.011719 1.585938 Z M 330.011719 1.585938 " fill-opacity="1" fill-rule="nonzero"/><path fill="#fbb040" d="M 314.144531 83.59375 C 322.988281 74.75 327.859375 63.003906 327.859375 50.527344 C 327.859375 38.046875 322.988281 26.304688 314.144531 17.457031 L 306.203125 25.398438 C 312.925781 32.121094 316.628906 41.046875 316.628906 50.527344 C 316.628906 60.007812 312.925781 68.929688 306.203125 75.652344 Z M 314.144531 83.59375 " fill-opacity="1" fill-rule="nonzero"/><path fill="#fbb040" d="M 298.277344 67.726562 C 302.871094 63.132812 305.402344 57.023438 305.402344 50.527344 C 305.402344 44.027344 302.871094 37.917969 298.277344 33.324219 L 290.335938 41.261719 C 292.8125 43.738281 294.175781 47.027344 294.175781 50.527344 C 294.175781 54.023438 292.8125 57.316406 290.335938 59.789062 Z M 298.277344 67.726562 " fill-opacity="1" fill-rule="nonzero"/><path fill="#fbb040" d="M 271.71875 44.910156 L 282.945312 44.910156 L 282.945312 56.140625 L 271.71875 56.140625 Z M 271.71875 44.910156 " fill-opacity="1" fill-rule="nonzero"/><path fill="#fbb040" d="M 226.804688 33.683594 L 238.035156 33.683594 L 238.035156 44.910156 L 226.804688 44.910156 Z M 226.804688 33.683594 " fill-opacity="1" fill-rule="nonzero"/><path fill="#fbb040" d="M 226.804688 56.140625 L 238.035156 56.140625 L 238.035156 67.367188 L 226.804688 67.367188 Z M 226.804688 56.140625 " fill-opacity="1" fill-rule="nonzero"/><path fill="#fbb040" d="M 144.46875 33.683594 L 155.695312 33.683594 L 155.695312 44.910156 L 144.46875 44.910156 Z M 144.46875 33.683594 " fill-opacity="1" fill-rule="nonzero"/><path fill="#fbb040" d="M 144.46875 56.140625 L 155.695312 56.140625 L 155.695312 67.367188 L 144.46875 67.367188 Z M 144.46875 56.140625 " fill-opacity="1" fill-rule="nonzero"/></svg>