<svg xmlns="http://www.w3.org/2000/svg" xmlns:xlink="http://www.w3.org/1999/xlink" width="480" zoomAndPan="magnify" viewBox="0 0 360 359.999987" height="480" preserveAspectRatio="xMidYMid meet" version="1.0"><path fill="#fbb040" d="M 294 150 L 277.390625 150 C 275.511719 143.878906 273.066406 137.96875 270.085938 132.34375 L 281.828125 120.605469 C 282.953125 119.476562 283.585938 117.960938 283.585938 116.363281 C 283.585938 114.765625 282.953125 113.242188 281.828125 112.121094 L 247.882812 78.179688 C 245.535156 75.835938 241.746094 75.835938 239.398438 78.179688 L 227.65625 89.914062 C 222.027344 86.941406 216.121094 84.492188 210 82.613281 L 210 66 C 210 62.679688 207.308594 60 204 60 L 156 60 C 152.6875 60 150 62.679688 150 66 L 150 82.613281 C 143.878906 84.484375 137.96875 86.941406 132.34375 89.914062 L 120.601562 78.179688 C 118.253906 75.835938 114.460938 75.835938 112.117188 78.179688 L 78.171875 112.121094 C 77.046875 113.25 76.414062 114.765625 76.414062 116.363281 C 76.414062 117.960938 77.046875 119.484375 78.171875 120.605469 L 89.914062 132.34375 C 86.933594 137.96875 84.488281 143.886719 82.609375 150 L 66 150 C 62.691406 150 60 152.679688 60 156 L 60 204 C 60 207.320312 62.691406 210 66 210 L 82.609375 210 C 84.488281 216.121094 86.933594 222.027344 89.914062 227.65625 L 78.171875 239.394531 C 77.046875 240.519531 76.414062 242.039062 76.414062 243.636719 C 76.414062 245.230469 77.046875 246.753906 78.171875 247.878906 L 112.117188 281.820312 C 114.460938 284.164062 118.253906 284.164062 120.601562 281.820312 L 132.34375 270.085938 C 137.96875 273.058594 143.878906 275.507812 150 277.386719 L 150 294 C 150 297.320312 152.6875 300 156 300 L 204 300 C 207.308594 300 210 297.320312 210 294 L 210 277.386719 C 216.121094 275.511719 222.027344 273.058594 227.65625 270.085938 L 239.398438 281.820312 C 241.746094 284.164062 245.535156 284.164062 247.882812 281.820312 L 281.828125 247.878906 C 282.953125 246.75 283.585938 245.230469 283.585938 243.636719 C 283.585938 242.039062 282.953125 240.515625 281.828125 239.394531 L 270.085938 227.65625 C 273.066406 222.027344 275.511719 216.113281 277.390625 210 L 294 210 C 297.308594 210 300 207.320312 300 204 L 300 156 C 300 152.679688 297.308594 150 294 150 Z M 288 198 L 272.855469 198 C 270.121094 198 267.730469 199.855469 267.046875 202.5 C 264.941406 210.652344 261.71875 218.433594 257.472656 225.636719 C 256.074219 228 256.453125 231 258.390625 232.929688 L 269.101562 243.636719 L 243.640625 269.09375 L 232.9375 258.390625 C 231.003906 256.464844 228.011719 256.082031 225.648438 257.464844 C 218.449219 261.714844 210.664062 264.933594 202.503906 267.039062 C 199.855469 267.726562 198 270.121094 198 272.855469 L 198 288 L 162 288 L 162 272.855469 C 162 270.121094 160.144531 267.730469 157.5 267.039062 C 149.339844 264.933594 141.554688 261.714844 134.359375 257.464844 C 131.992188 256.082031 128.992188 256.457031 127.070312 258.390625 L 116.363281 269.09375 L 90.90625 243.636719 L 101.617188 232.929688 C 103.550781 231 103.929688 228 102.539062 225.636719 C 98.289062 218.433594 95.066406 210.652344 92.964844 202.5 C 92.273438 199.855469 89.878906 198 87.144531 198 L 72 198 L 72 162 L 87.144531 162 C 89.878906 162 92.265625 160.144531 92.953125 157.5 C 95.054688 149.347656 98.277344 141.566406 102.527344 134.363281 C 103.917969 132 103.539062 129 101.605469 127.070312 L 90.894531 116.363281 L 116.351562 90.90625 L 127.054688 101.609375 C 128.992188 103.539062 131.992188 103.917969 134.347656 102.53125 C 141.542969 98.285156 149.328125 95.066406 157.488281 92.957031 C 160.144531 92.273438 162 89.878906 162 87.144531 L 162 72 L 198 72 L 198 87.144531 C 198 89.878906 199.855469 92.265625 202.5 92.957031 C 210.660156 95.066406 218.441406 98.285156 225.640625 102.53125 C 228 103.90625 231 103.535156 232.929688 101.609375 L 243.636719 90.90625 L 269.09375 116.363281 L 258.382812 127.070312 C 256.453125 129 256.074219 132 257.464844 134.363281 C 261.714844 141.566406 264.941406 149.347656 267.039062 157.5 C 267.726562 160.144531 270.121094 162 272.855469 162 L 288 162 Z M 288 198 " fill-opacity="1" fill-rule="nonzero"/><path fill="#fbb040" d="M 180 108 C 140.296875 108 108 140.296875 108 180 C 108 219.703125 140.296875 252 180 252 C 219.703125 252 252 219.703125 252 180 C 252 140.296875 219.703125 108 180 108 Z M 180 240 C 146.914062 240 120 213.085938 120 180 C 120 146.914062 146.914062 120 180 120 C 213.085938 120 240 146.914062 240 180 C 240 213.085938 213.085938 240 180 240 Z M 180 240 " fill-opacity="1" fill-rule="nonzero"/><path fill="#fbb040" d="M 159.039062 138.777344 C 157.164062 139.847656 156 141.839844 156 144 L 156 216 C 156 218.160156 157.164062 220.152344 159.039062 221.21875 C 159.960938 221.742188 160.980469 222 162 222 C 163.070312 222 164.136719 221.710938 165.089844 221.140625 L 225.089844 185.140625 C 226.894531 184.058594 228 182.113281 228 180 C 228 177.886719 226.894531 175.9375 225.089844 174.859375 L 165.089844 138.859375 C 163.234375 137.746094 160.917969 137.710938 159.039062 138.777344 Z M 168 154.601562 L 210.335938 180 L 168 205.398438 Z M 168 154.601562 " fill-opacity="1" fill-rule="nonzero"/><path fill="#fbb040" d="M 336 0 C 322.761719 0 312 10.761719 312 24 C 312 37.234375 322.761719 48 336 48 C 349.234375 48 360 37.234375 360 24 C 360 10.761719 349.234375 0 336 0 Z M 336 36 C 329.382812 36 324 30.617188 324 24 C 324 17.382812 329.382812 12 336 12 C 342.617188 12 348 17.382812 348 24 C 348 30.617188 342.617188 36 336 36 Z M 336 36 " fill-opacity="1" fill-rule="nonzero"/><path fill="#fbb040" d="M 24 0 C 10.765625 0 0 10.761719 0 24 C 0 37.234375 10.765625 48 24 48 C 37.238281 48 48 37.234375 48 24 C 48 10.761719 37.238281 0 24 0 Z M 24 36 C 17.382812 36 12 30.617188 12 24 C 12 17.382812 17.382812 12 24 12 C 30.617188 12 36 17.382812 36 24 C 36 30.617188 30.617188 36 24 36 Z M 24 36 " fill-opacity="1" fill-rule="nonzero"/><path fill="#fbb040" d="M 336 312 C 322.761719 312 312 322.761719 312 336 C 312 349.234375 322.761719 360 336 360 C 349.234375 360 360 349.234375 360 336 C 360 322.761719 349.234375 312 336 312 Z M 336 348 C 329.382812 348 324 342.617188 324 336 C 324 329.382812 329.382812 324 336 324 C 342.617188 324 348 329.382812 348 336 C 348 342.617188 342.617188 348 336 348 Z M 336 348 " fill-opacity="1" fill-rule="nonzero"/><path fill="#fbb040" d="M 24 312 C 10.765625 312 0 322.761719 0 336 C 0 349.234375 10.765625 360 24 360 C 37.238281 360 48 349.234375 48 336 C 48 322.761719 37.238281 312 24 312 Z M 24 348 C 17.382812 348 12 342.617188 12 336 C 12 329.382812 17.382812 324 24 324 C 30.617188 324 36 329.382812 36 336 C 36 342.617188 30.617188 348 24 348 Z M 24 348 " fill-opacity="1" fill-rule="nonzero"/><path fill="#fbb040" d="M 312 180 L 324 180 L 324 192 L 312 192 Z M 312 180 " fill-opacity="1" fill-rule="nonzero"/><path fill="#fbb040" d="M 336 180 L 348 180 L 348 192 L 336 192 Z M 336 180 " fill-opacity="1" fill-rule="nonzero"/><path fill="#fbb040" d="M 336 156 L 348 156 L 348 168 L 336 168 Z M 336 156 " fill-opacity="1" fill-rule="nonzero"/><path fill="#fbb040" d="M 336 132 L 348 132 L 348 144 L 336 144 Z M 336 132 " fill-opacity="1" fill-rule="nonzero"/><path fill="#fbb040" d="M 336 108 L 348 108 L 348 120 L 336 120 Z M 336 108 " fill-opacity="1" fill-rule="nonzero"/><path fill="#fbb040" d="M 336 84 L 348 84 L 348 96 L 336 96 Z M 336 84 " fill-opacity="1" fill-rule="nonzero"/><path fill="#fbb040" d="M 336 60 L 348 60 L 348 72 L 336 72 Z M 336 60 " fill-opacity="1" fill-rule="nonzero"/><path fill="#fbb040" d="M 60 12 L 72 12 L 72 24 L 60 24 Z M 60 12 " fill-opacity="1" fill-rule="nonzero"/><path fill="#fbb040" d="M 84 12 L 96 12 L 96 24 L 84 24 Z M 84 12 " fill-opacity="1" fill-rule="nonzero"/><path fill="#fbb040" d="M 108 12 L 120 12 L 120 24 L 108 24 Z M 108 12 " fill-opacity="1" fill-rule="nonzero"/><path fill="#fbb040" d="M 132 12 L 144 12 L 144 24 L 132 24 Z M 132 12 " fill-opacity="1" fill-rule="nonzero"/><path fill="#fbb040" d="M 156 12 L 168 12 L 168 24 L 156 24 Z M 156 12 " fill-opacity="1" fill-rule="nonzero"/><path fill="#fbb040" d="M 180 12 L 192 12 L 192 24 L 180 24 Z M 180 12 " fill-opacity="1" fill-rule="nonzero"/><path fill="#fbb040" d="M 180 36 L 192 36 L 192 48 L 180 48 Z M 180 36 " fill-opacity="1" fill-rule="nonzero"/><path fill="#fbb040" d="M 12 288 L 24 288 L 24 300 L 12 300 Z M 12 288 " fill-opacity="1" fill-rule="nonzero"/><path fill="#fbb040" d="M 12 264 L 24 264 L 24 276 L 12 276 Z M 12 264 " fill-opacity="1" fill-rule="nonzero"/><path fill="#fbb040" d="M 12 240 L 24 240 L 24 252 L 12 252 Z M 12 240 " fill-opacity="1" fill-rule="nonzero"/><path fill="#fbb040" d="M 12 216 L 24 216 L 24 228 L 12 228 Z M 12 216 " fill-opacity="1" fill-rule="nonzero"/><path fill="#fbb040" d="M 12 192 L 24 192 L 24 204 L 12 204 Z M 12 192 " fill-opacity="1" fill-rule="nonzero"/><path fill="#fbb040" d="M 12 168 L 24 168 L 24 180 L 12 180 Z M 12 168 " fill-opacity="1" fill-rule="nonzero"/><path fill="#fbb040" d="M 36 168 L 48 168 L 48 180 L 36 180 Z M 36 168 " fill-opacity="1" fill-rule="nonzero"/><path fill="#fbb040" d="M 168 312 L 180 312 L 180 324 L 168 324 Z M 168 312 " fill-opacity="1" fill-rule="nonzero"/><path fill="#fbb040" d="M 168 336 L 180 336 L 180 348 L 168 348 Z M 168 336 " fill-opacity="1" fill-rule="nonzero"/><path fill="#fbb040" d="M 192 336 L 204 336 L 204 348 L 192 348 Z M 192 336 " fill-opacity="1" fill-rule="nonzero"/><path fill="#fbb040" d="M 216 336 L 228 336 L 228 348 L 216 348 Z M 216 336 " fill-opacity="1" fill-rule="nonzero"/><path fill="#fbb040" d="M 240 336 L 252 336 L 252 348 L 240 348 Z M 240 336 " fill-opacity="1" fill-rule="nonzero"/><path fill="#fbb040" d="M 264 336 L 276 336 L 276 348 L 264 348 Z M 264 336 " fill-opacity="1" fill-rule="nonzero"/><path fill="#fbb040" d="M 288 336 L 300 336 L 300 348 L 288 348 Z M 288 336 " fill-opacity="1" fill-rule="nonzero"/></svg>