<svg xmlns="http://www.w3.org/2000/svg" xmlns:xlink="http://www.w3.org/1999/xlink" width="512" zoomAndPan="magnify" viewBox="0 0 384 383.999986" height="512" preserveAspectRatio="xMidYMid meet" version="1.0"><path fill="#fbb040" d="M 376.921875 152.046875 L 337.28125 147.648438 C 334.433594 138.304688 330.683594 129.261719 326.082031 120.648438 L 350.992188 89.511719 C 353.535156 86.328125 353.28125 81.746094 350.402344 78.863281 L 305.136719 33.648438 C 302.257812 30.769531 297.671875 30.515625 294.488281 33.054688 L 263.351562 57.960938 C 254.738281 53.359375 245.695312 49.609375 236.351562 46.761719 L 231.953125 7.121094 C 231.503906 3.066406 228.078125 0 224 0 L 160 0 C 155.921875 0 152.496094 3.066406 152.046875 7.121094 L 147.648438 46.71875 C 138.304688 49.566406 129.261719 53.320312 120.648438 57.917969 L 89.511719 33.007812 C 86.328125 30.464844 81.746094 30.71875 78.863281 33.597656 L 33.601562 78.863281 C 30.722656 81.746094 30.472656 86.332031 33.015625 89.511719 L 57.960938 120.648438 C 53.359375 129.261719 49.609375 138.304688 46.761719 147.648438 L 7.121094 152.046875 C 3.066406 152.496094 0 155.921875 0 160 L 0 224 C 0 228.078125 3.066406 231.503906 7.121094 231.953125 L 46.71875 236.351562 C 49.566406 245.695312 53.320312 254.738281 57.917969 263.351562 L 33.007812 294.488281 C 30.464844 297.671875 30.71875 302.253906 33.597656 305.136719 L 78.863281 350.402344 C 81.757812 353.265625 86.339844 353.5 89.511719 350.945312 L 120.648438 326.039062 C 129.261719 330.640625 138.304688 334.394531 147.648438 337.242188 L 152.046875 376.878906 C 152.496094 380.933594 155.921875 384 160 384 L 224 384 C 228.0625 384.003906 231.484375 380.957031 231.953125 376.921875 L 236.351562 337.28125 C 245.695312 334.433594 254.738281 330.679688 263.351562 326.082031 L 294.488281 350.992188 C 297.671875 353.535156 302.253906 353.28125 305.136719 350.402344 L 350.351562 305.136719 C 353.230469 302.253906 353.488281 297.671875 350.945312 294.488281 L 326.039062 263.351562 C 330.640625 254.738281 334.394531 245.695312 337.242188 236.351562 L 376.878906 231.953125 C 380.933594 231.503906 384 228.078125 384 224 L 384 160 C 384.003906 155.9375 380.957031 152.515625 376.921875 152.046875 Z M 368.003906 216.839844 L 368 216.839844 L 330.183594 221.046875 C 326.90625 221.414062 324.183594 223.753906 323.335938 226.945312 C 320.257812 238.574219 315.636719 249.738281 309.601562 260.144531 C 307.941406 263 308.210938 266.582031 310.273438 269.160156 L 334.058594 298.886719 L 298.929688 334.015625 L 269.199219 310.230469 C 266.621094 308.167969 263.042969 307.902344 260.183594 309.558594 C 249.777344 315.59375 238.613281 320.214844 226.984375 323.296875 C 223.796875 324.144531 221.453125 326.863281 221.089844 330.144531 L 216.882812 368 L 167.199219 368 L 162.953125 330.144531 C 162.589844 326.863281 160.246094 324.144531 157.058594 323.296875 C 145.429688 320.214844 134.261719 315.59375 123.855469 309.558594 C 121 307.902344 117.417969 308.167969 114.839844 310.230469 L 85.113281 334.015625 L 49.984375 298.886719 L 73.769531 269.199219 C 75.832031 266.621094 76.101562 263.039062 74.441406 260.183594 C 68.40625 249.777344 63.785156 238.613281 60.707031 226.984375 C 59.859375 223.792969 57.136719 221.453125 53.855469 221.089844 L 16 216.878906 L 16 167.199219 L 53.855469 162.953125 C 57.136719 162.585938 59.855469 160.246094 60.707031 157.054688 C 63.785156 145.425781 68.40625 134.261719 74.441406 123.855469 C 76.101562 121 75.832031 117.417969 73.769531 114.839844 L 49.984375 85.113281 L 85.113281 49.984375 L 114.882812 73.769531 C 117.460938 75.832031 121.042969 76.097656 123.898438 74.441406 C 134.304688 68.40625 145.46875 63.785156 157.097656 60.703125 C 160.289062 59.855469 162.628906 57.136719 162.992188 53.855469 L 167.203125 16 L 216.84375 16 L 221.050781 53.855469 C 221.414062 57.136719 223.757812 59.855469 226.945312 60.703125 C 238.574219 63.785156 249.738281 68.40625 260.144531 74.441406 C 263.003906 76.097656 266.582031 75.832031 269.160156 73.769531 L 298.890625 49.984375 L 334.019531 85.152344 L 310.234375 114.878906 C 308.171875 117.460938 307.902344 121.039062 309.5625 123.898438 C 315.597656 134.304688 320.214844 145.46875 323.296875 157.097656 C 324.144531 160.285156 326.867188 162.628906 330.144531 162.992188 L 368.003906 167.199219 Z M 368.003906 216.839844 " fill-opacity="1" fill-rule="nonzero"/><path fill="#fbb040" d="M 289.722656 137.3125 C 259.515625 83.332031 191.273438 64.054688 137.292969 94.257812 C 83.3125 124.460938 64.035156 192.707031 94.242188 246.6875 C 94.597656 247.328125 95.042969 247.914062 95.558594 248.429688 C 98.679688 251.558594 103.746094 251.5625 106.871094 248.441406 L 159.136719 196.175781 L 177.601562 220.800781 C 177.828125 221.101562 178.074219 221.390625 178.34375 221.65625 C 181.46875 224.78125 186.53125 224.78125 189.65625 221.65625 L 240 171.3125 L 240 200 L 256 200 L 256 152 C 256 147.582031 252.417969 144 248 144 L 200 144 L 200 160 L 228.6875 160 L 184.863281 203.824219 L 166.402344 179.199219 C 165.011719 177.335938 162.882812 176.167969 160.570312 176 C 158.253906 175.859375 155.992188 176.710938 154.34375 178.34375 L 103.480469 229.199219 C 89.726562 196.464844 95.203125 158.8125 117.707031 131.347656 C 151.25 90.421875 211.621094 84.433594 252.550781 117.976562 C 293.480469 151.519531 299.46875 211.890625 265.921875 252.820312 C 262.832031 256.59375 259.511719 260.066406 256 263.242188 L 256 216 L 240 216 L 240 274.925781 C 234.875 277.910156 229.515625 280.386719 224 282.34375 L 224 232 L 208 232 L 208 286.523438 C 202.71875 287.425781 197.363281 287.890625 192 287.902344 L 192 256 L 176 256 L 176 286.601562 C 170.59375 285.703125 165.242188 284.332031 160 282.488281 L 160 240 L 144 240 L 144 275.125 C 139.527344 272.542969 135.203125 269.574219 131.078125 266.191406 L 120.914062 278.554688 C 140.957031 294.996094 166.074219 303.988281 192 304 C 211.144531 304 229.964844 299.089844 246.667969 289.742188 C 300.648438 259.539062 319.925781 191.292969 289.722656 137.3125 Z M 289.722656 137.3125 " fill-opacity="1" fill-rule="nonzero"/></svg>