<svg xmlns="http://www.w3.org/2000/svg" xmlns:xlink="http://www.w3.org/1999/xlink" width="512" zoomAndPan="magnify" viewBox="0 0 384 383.999986" height="512" preserveAspectRatio="xMidYMid meet" version="1.0"><path fill="#fbb040" d="M 373.125 350.289062 L 373.125 251.625 C 373.125 244.386719 367.238281 238.5 360 238.5 L 295.875 238.5 L 295.875 225.8125 C 295.875 220.179688 292.292969 215.183594 286.957031 213.378906 L 270.625 207.851562 C 267.683594 206.855469 264.488281 208.433594 263.492188 211.375 C 262.496094 214.316406 264.074219 217.511719 267.019531 218.507812 L 283.351562 224.035156 C 284.113281 224.292969 284.625 225.007812 284.625 225.8125 L 284.625 238.5 L 220.5 238.5 C 213.261719 238.5 207.375 244.386719 207.375 251.625 L 207.375 350.289062 C 201.316406 350.671875 196.5 355.707031 196.5 361.863281 C 196.5 363.644531 196.917969 365.429688 197.710938 367.023438 L 199.75 371.136719 C 203.691406 379.070312 211.640625 384 220.5 384 L 360.109375 384 C 368.878906 384 376.792969 379.144531 380.765625 371.324219 L 382.742188 367.429688 C 383.25 366.425781 383.941406 364.378906 384 361.863281 C 384 355.707031 379.183594 350.671875 373.125 350.289062 Z M 209.828125 366.132812 L 207.789062 362.019531 C 207.761719 361.972656 207.75 361.917969 207.75 361.863281 C 207.75 361.660156 207.910156 361.5 208.109375 361.5 L 265.125 361.5 L 265.125 372.75 L 220.5 372.75 C 215.945312 372.75 211.855469 370.214844 209.828125 366.132812 Z M 304.125 361.5 L 304.125 372.75 L 276.375 372.75 L 276.375 361.5 Z M 372.75 362.171875 C 372.75 362.230469 372.734375 362.285156 372.710938 362.335938 L 370.734375 366.230469 C 368.691406 370.25 364.621094 372.75 360.109375 372.75 L 315.375 372.75 L 315.375 361.5 L 325.949219 361.5 C 329.054688 361.5 331.574219 358.980469 331.574219 355.875 C 331.574219 352.765625 329.054688 350.25 325.949219 350.25 L 218.625 350.25 L 218.625 251.625 C 218.625 250.589844 219.464844 249.75 220.5 249.75 L 360 249.75 C 361.035156 249.75 361.875 250.589844 361.875 251.625 L 361.875 350.25 L 352.222656 350.25 C 349.117188 350.25 346.597656 352.769531 346.597656 355.875 C 346.597656 358.980469 349.117188 361.5 352.222656 361.5 L 372.386719 361.5 C 372.589844 361.5 372.75 361.660156 372.75 361.859375 Z M 372.75 362.171875 " fill-opacity="1" fill-rule="nonzero"/><path fill="#fbb040" d="M 100.648438 224.035156 L 173.542969 199.363281 C 176.476562 206.6875 183.640625 211.875 192 211.875 C 200.359375 211.875 207.523438 206.6875 210.457031 199.363281 L 241.878906 210 C 242.476562 210.203125 243.085938 210.296875 243.683594 210.296875 C 246.027344 210.296875 248.21875 208.820312 249.011719 206.472656 C 250.007812 203.53125 248.429688 200.335938 245.488281 199.339844 L 211.429688 187.8125 C 209.894531 180.695312 204.539062 174.984375 197.625 172.941406 L 197.625 145.5 L 261.859375 145.5 C 270.628906 145.5 278.542969 140.644531 282.515625 132.824219 C 284.0625 129.59375 285.578125 125.917969 285.75 123.671875 C 286.007812 117.980469 281.019531 112.179688 274.875 111.789062 L 274.875 13.125 C 274.875 5.886719 268.988281 0 261.75 0 L 122.25 0 C 115.011719 0 109.125 5.886719 109.125 13.125 L 109.125 41.972656 C 109.125 45.078125 111.644531 47.597656 114.75 47.597656 C 117.855469 47.597656 120.375 45.078125 120.375 41.972656 L 120.375 13.125 C 120.375 12.089844 121.214844 11.25 122.25 11.25 L 261.75 11.25 C 262.785156 11.25 263.625 12.089844 263.625 13.125 L 263.625 111.75 L 120.375 111.75 L 120.375 68.222656 C 120.375 65.113281 117.855469 62.597656 114.75 62.597656 C 111.644531 62.597656 109.125 65.113281 109.125 68.222656 L 109.125 111.789062 C 103.066406 112.171875 98.25 117.207031 98.25 123.363281 C 98.25 125.691406 100.285156 130.5 101.5 132.636719 C 105.441406 140.570312 113.390625 145.5 122.25 145.5 L 186.375 145.5 L 186.375 172.941406 C 179.460938 174.984375 174.105469 180.695312 172.574219 187.8125 L 97.042969 213.378906 C 91.707031 215.183594 88.125 220.179688 88.125 225.8125 L 88.125 238.5 L 24 238.5 C 16.761719 238.5 10.875 244.386719 10.875 251.625 L 10.875 350.289062 C 4.816406 350.671875 0 355.707031 0 361.859375 C 0 363.644531 0.417969 365.425781 1.210938 367.023438 L 3.25 371.132812 C 7.191406 379.070312 15.140625 384 24 384 L 163.609375 384 C 172.378906 384 180.292969 379.144531 184.265625 371.324219 L 186.242188 367.429688 C 186.75 366.425781 187.441406 364.378906 187.5 361.863281 C 187.5 355.707031 182.683594 350.671875 176.625 350.289062 L 176.625 312.699219 C 176.625 309.589844 174.105469 307.074219 171 307.074219 C 167.894531 307.074219 165.375 309.589844 165.375 312.699219 L 165.375 350.25 L 22.125 350.25 L 22.125 251.625 C 22.125 250.589844 22.964844 249.75 24 249.75 L 163.5 249.75 C 164.53125 249.75 165.375 250.589844 165.375 251.625 L 165.375 286.421875 C 165.375 289.53125 167.894531 292.046875 171 292.046875 C 174.105469 292.046875 176.625 289.53125 176.625 286.421875 L 176.625 251.625 C 176.625 244.386719 170.734375 238.5 163.5 238.5 L 99.375 238.5 L 99.375 225.8125 C 99.375 225.007812 99.886719 224.292969 100.648438 224.035156 Z M 178.125 134.25 L 178.125 123 L 205.875 123 L 205.875 134.25 Z M 274.5 123.671875 C 274.5 123.730469 274.484375 123.785156 274.460938 123.835938 L 272.484375 127.730469 C 270.441406 131.75 266.371094 134.25 261.859375 134.25 L 217.125 134.25 L 217.125 123 L 274.140625 123 C 274.339844 123 274.5 123.160156 274.5 123.359375 Z M 111.578125 127.632812 L 109.539062 123.519531 C 109.511719 123.472656 109.5 123.417969 109.5 123.363281 C 109.5 123.160156 109.660156 123 109.859375 123 L 166.875 123 L 166.875 134.25 L 122.25 134.25 C 117.695312 134.25 113.605469 131.714844 111.578125 127.632812 Z M 192 183.375 C 196.753906 183.375 200.625 187.246094 200.625 192 C 200.625 196.753906 196.753906 200.625 192 200.625 C 187.246094 200.625 183.375 196.753906 183.375 192 C 183.375 187.246094 187.246094 183.375 192 183.375 Z M 13.328125 366.132812 L 11.289062 362.019531 C 11.261719 361.972656 11.25 361.917969 11.25 361.863281 C 11.25 361.660156 11.410156 361.5 11.609375 361.5 L 68.625 361.5 L 68.625 372.75 L 24 372.75 C 19.445312 372.75 15.355469 370.214844 13.328125 366.132812 Z M 79.875 361.5 L 107.625 361.5 L 107.625 372.75 L 79.875 372.75 Z M 176.25 362.171875 C 176.25 362.230469 176.234375 362.285156 176.210938 362.335938 L 174.234375 366.230469 C 172.191406 370.25 168.121094 372.75 163.609375 372.75 L 118.875 372.75 L 118.875 361.5 L 175.890625 361.5 C 176.089844 361.5 176.25 361.660156 176.25 361.859375 Z M 176.25 362.171875 " fill-opacity="1" fill-rule="nonzero"/><path fill="#fbb040" d="M 236.625 78 C 243.863281 78 249.75 72.113281 249.75 64.875 L 249.75 57.375 C 249.75 50.136719 243.863281 44.25 236.625 44.25 L 146.625 44.25 C 139.386719 44.25 133.5 50.136719 133.5 57.375 L 133.5 64.875 C 133.5 72.113281 139.386719 78 146.625 78 Z M 238.5 57.375 L 238.5 64.875 C 238.5 65.910156 237.660156 66.75 236.625 66.75 L 222.75 66.75 L 222.75 55.5 L 236.625 55.5 C 237.660156 55.5 238.5 56.339844 238.5 57.375 Z M 144.75 64.875 L 144.75 57.375 C 144.75 56.339844 145.589844 55.5 146.625 55.5 L 211.5 55.5 L 211.5 66.75 L 146.625 66.75 C 145.589844 66.75 144.75 65.910156 144.75 64.875 Z M 144.75 64.875 " fill-opacity="1" fill-rule="nonzero"/><path fill="#fbb040" d="M 48.75 283.125 C 41.511719 283.125 35.625 289.011719 35.625 296.25 L 35.625 303.75 C 35.625 310.988281 41.511719 316.875 48.75 316.875 L 138.75 316.875 C 145.988281 316.875 151.875 310.988281 151.875 303.75 L 151.875 296.25 C 151.875 289.011719 145.988281 283.125 138.75 283.125 Z M 46.875 303.75 L 46.875 296.25 C 46.875 295.214844 47.714844 294.375 48.75 294.375 L 98.625 294.375 L 98.625 305.625 L 48.75 305.625 C 47.714844 305.625 46.875 304.785156 46.875 303.75 Z M 140.625 296.25 L 140.625 303.75 C 140.625 304.785156 139.785156 305.625 138.75 305.625 L 109.875 305.625 L 109.875 294.375 L 138.75 294.375 C 139.785156 294.375 140.625 295.214844 140.625 296.25 Z M 140.625 296.25 " fill-opacity="1" fill-rule="nonzero"/><path fill="#fbb040" d="M 348.375 296.625 C 348.375 289.386719 342.488281 283.5 335.25 283.5 L 245.25 283.5 C 238.011719 283.5 232.125 289.386719 232.125 296.625 L 232.125 304.125 C 232.125 311.363281 238.011719 317.25 245.25 317.25 L 335.25 317.25 C 342.488281 317.25 348.375 311.363281 348.375 304.125 Z M 243.375 304.125 L 243.375 296.625 C 243.375 295.589844 244.214844 294.75 245.25 294.75 L 272.625 294.75 L 272.625 306 L 245.25 306 C 244.214844 306 243.375 305.160156 243.375 304.125 Z M 337.125 304.125 C 337.125 305.160156 336.285156 306 335.25 306 L 283.875 306 L 283.875 294.75 L 335.25 294.75 C 336.285156 294.75 337.125 295.589844 337.125 296.625 Z M 337.125 304.125 " fill-opacity="1" fill-rule="nonzero"/></svg>