<svg xmlns="http://www.w3.org/2000/svg" xmlns:xlink="http://www.w3.org/1999/xlink" width="512" zoomAndPan="magnify" viewBox="0 0 384 383.999986" height="512" preserveAspectRatio="xMidYMid meet" version="1.0"><path fill="#fbb040" d="M 372 54 L 372 216.75 L 360 216.75 L 360 208.96875 C 358.058594 209.65625 356.058594 210 354 210 L 270 210 L 270 198 L 354 198 C 354.394531 198 354.785156 197.960938 355.171875 197.882812 C 355.554688 197.804688 355.929688 197.691406 356.296875 197.542969 C 356.660156 197.390625 357.003906 197.207031 357.332031 196.988281 C 357.660156 196.769531 357.960938 196.519531 358.242188 196.242188 C 358.519531 195.960938 358.769531 195.660156 358.988281 195.332031 C 359.207031 195.003906 359.390625 194.660156 359.542969 194.296875 C 359.691406 193.929688 359.804688 193.554688 359.882812 193.171875 C 359.960938 192.785156 360 192.394531 360 192 L 360 160.96875 C 358.058594 161.65625 356.058594 162 354 162 L 270 162 L 270 150 L 354 150 C 354.394531 150 354.785156 149.960938 355.171875 149.882812 C 355.554688 149.804688 355.929688 149.691406 356.296875 149.542969 C 356.660156 149.390625 357.003906 149.207031 357.332031 148.988281 C 357.660156 148.769531 357.960938 148.519531 358.242188 148.242188 C 358.519531 147.960938 358.769531 147.660156 358.988281 147.332031 C 359.207031 147.003906 359.390625 146.660156 359.542969 146.296875 C 359.691406 145.929688 359.804688 145.554688 359.882812 145.171875 C 359.960938 144.785156 360 144.394531 360 144 L 360 112.96875 C 358.058594 113.65625 356.058594 114 354 114 L 270 114 L 270 102 L 354 102 C 354.394531 102 354.785156 101.960938 355.171875 101.882812 C 355.554688 101.804688 355.929688 101.691406 356.296875 101.542969 C 356.660156 101.390625 357.003906 101.207031 357.332031 100.988281 C 357.660156 100.769531 357.960938 100.519531 358.242188 100.242188 C 358.519531 99.960938 358.769531 99.660156 358.988281 99.332031 C 359.207031 99.003906 359.390625 98.660156 359.542969 98.296875 C 359.691406 97.929688 359.804688 97.554688 359.882812 97.171875 C 359.960938 96.785156 360 96.394531 360 96 L 360 54 C 360 53.605469 359.960938 53.214844 359.882812 52.828125 C 359.804688 52.445312 359.691406 52.070312 359.542969 51.703125 C 359.390625 51.339844 359.207031 50.996094 358.988281 50.667969 C 358.769531 50.339844 358.519531 50.039062 358.242188 49.757812 C 357.960938 49.480469 357.660156 49.230469 357.332031 49.011719 C 357.003906 48.792969 356.660156 48.609375 356.296875 48.457031 C 355.929688 48.308594 355.554688 48.195312 355.171875 48.117188 C 354.785156 48.039062 354.394531 48 354 48 L 270 48 L 270 36 L 354 36 C 354.589844 36 355.175781 36.03125 355.761719 36.089844 C 356.351562 36.148438 356.933594 36.234375 357.511719 36.347656 C 358.089844 36.464844 358.660156 36.609375 359.222656 36.78125 C 359.785156 36.949219 360.339844 37.148438 360.886719 37.375 C 361.429688 37.601562 361.960938 37.851562 362.480469 38.132812 C 363 38.410156 363.503906 38.710938 363.996094 39.039062 C 364.484375 39.367188 364.957031 39.71875 365.414062 40.09375 C 365.867188 40.464844 366.304688 40.859375 366.722656 41.277344 C 367.140625 41.695312 367.535156 42.128906 367.90625 42.585938 C 368.28125 43.042969 368.632812 43.515625 368.960938 44.003906 C 369.289062 44.496094 369.589844 45 369.867188 45.519531 C 370.148438 46.039062 370.398438 46.570312 370.625 47.113281 C 370.851562 47.660156 371.050781 48.214844 371.21875 48.777344 C 371.390625 49.339844 371.535156 49.910156 371.652344 50.488281 C 371.765625 51.066406 371.851562 51.648438 371.910156 52.234375 C 371.96875 52.824219 372 53.410156 372 54 Z M 282 126 L 270 126 L 270 138 L 282 138 Z M 294 126 L 294 138 L 348 138 L 348 126 Z M 282 174 L 270 174 L 270 186 L 282 186 Z M 294 174 L 294 186 L 348 186 L 348 174 Z M 360 229.5 L 360 240 C 360 240.394531 359.960938 240.785156 359.882812 241.171875 C 359.804688 241.554688 359.691406 241.929688 359.542969 242.296875 C 359.390625 242.660156 359.207031 243.003906 358.988281 243.332031 C 358.769531 243.660156 358.519531 243.960938 358.242188 244.242188 C 357.960938 244.519531 357.660156 244.769531 357.332031 244.988281 C 357.003906 245.207031 356.660156 245.390625 356.296875 245.542969 C 355.929688 245.691406 355.554688 245.804688 355.171875 245.882812 C 354.785156 245.960938 354.394531 246 354 246 L 270 246 L 270 258 L 354 258 C 356.058594 258 358.058594 257.65625 360 256.96875 L 360 264 C 360 264.394531 359.960938 264.785156 359.882812 265.171875 C 359.804688 265.554688 359.691406 265.929688 359.542969 266.296875 C 359.390625 266.660156 359.207031 267.003906 358.988281 267.332031 C 358.769531 267.660156 358.519531 267.960938 358.242188 268.242188 C 357.960938 268.519531 357.660156 268.769531 357.332031 268.988281 C 357.003906 269.207031 356.660156 269.390625 356.296875 269.542969 C 355.929688 269.691406 355.554688 269.804688 355.171875 269.882812 C 354.785156 269.960938 354.394531 270 354 270 L 270 270 L 270 282 L 354 282 C 354.589844 282 355.175781 281.96875 355.761719 281.910156 C 356.351562 281.851562 356.933594 281.765625 357.511719 281.652344 C 358.089844 281.535156 358.660156 281.390625 359.222656 281.21875 C 359.785156 281.050781 360.339844 280.851562 360.886719 280.625 C 361.429688 280.398438 361.960938 280.148438 362.480469 279.867188 C 363 279.589844 363.503906 279.289062 363.996094 278.960938 C 364.484375 278.632812 364.957031 278.28125 365.414062 277.90625 C 365.867188 277.535156 366.304688 277.140625 366.722656 276.722656 C 367.140625 276.304688 367.535156 275.867188 367.90625 275.414062 C 368.28125 274.957031 368.632812 274.484375 368.960938 273.996094 C 369.289062 273.503906 369.589844 273 369.867188 272.480469 C 370.148438 271.960938 370.398438 271.429688 370.625 270.886719 C 370.851562 270.339844 371.050781 269.785156 371.21875 269.222656 C 371.390625 268.660156 371.535156 268.089844 371.652344 267.511719 C 371.765625 266.933594 371.851562 266.351562 371.910156 265.761719 C 371.96875 265.175781 372 264.589844 372 264 L 372 228 L 360 228 Z M 282 222 L 270 222 L 270 234 L 282 234 Z M 294 222 L 294 234 L 348 234 L 348 222 Z M 24 54 C 24 53.605469 24.039062 53.214844 24.117188 52.828125 C 24.195312 52.445312 24.308594 52.070312 24.457031 51.703125 C 24.609375 51.339844 24.792969 50.996094 25.011719 50.667969 C 25.230469 50.339844 25.480469 50.039062 25.757812 49.757812 C 26.039062 49.480469 26.339844 49.230469 26.667969 49.011719 C 26.996094 48.792969 27.339844 48.609375 27.703125 48.457031 C 28.070312 48.308594 28.445312 48.195312 28.828125 48.117188 C 29.214844 48.039062 29.605469 48 30 48 L 114 48 L 114 36 L 30 36 C 29.410156 36 28.824219 36.03125 28.234375 36.089844 C 27.648438 36.148438 27.066406 36.234375 26.488281 36.347656 C 25.910156 36.464844 25.339844 36.609375 24.777344 36.78125 C 24.214844 36.949219 23.660156 37.148438 23.113281 37.375 C 22.570312 37.601562 22.039062 37.851562 21.519531 38.132812 C 21 38.410156 20.496094 38.710938 20.003906 39.039062 C 19.515625 39.367188 19.042969 39.71875 18.585938 40.09375 C 18.128906 40.464844 17.695312 40.859375 17.277344 41.277344 C 16.859375 41.695312 16.464844 42.128906 16.09375 42.585938 C 15.71875 43.042969 15.367188 43.515625 15.039062 44.003906 C 14.710938 44.496094 14.410156 45 14.132812 45.519531 C 13.851562 46.039062 13.601562 46.570312 13.375 47.113281 C 13.148438 47.660156 12.949219 48.214844 12.78125 48.777344 C 12.609375 49.339844 12.464844 49.910156 12.347656 50.488281 C 12.234375 51.066406 12.148438 51.648438 12.089844 52.234375 C 12.03125 52.824219 12 53.410156 12 54 L 12 66.75 L 24 66.75 Z M 114 270 L 30 270 C 29.605469 270 29.214844 269.960938 28.828125 269.882812 C 28.445312 269.804688 28.070312 269.691406 27.703125 269.542969 C 27.339844 269.390625 26.996094 269.207031 26.667969 268.988281 C 26.339844 268.769531 26.039062 268.519531 25.757812 268.242188 C 25.480469 267.960938 25.230469 267.660156 25.011719 267.332031 C 24.792969 267.003906 24.609375 266.660156 24.457031 266.296875 C 24.308594 265.929688 24.195312 265.554688 24.117188 265.171875 C 24.039062 264.785156 24 264.394531 24 264 L 24 256.96875 C 25.941406 257.65625 27.941406 258 30 258 L 114 258 L 114 246 L 30 246 C 29.605469 246 29.214844 245.960938 28.828125 245.882812 C 28.445312 245.804688 28.070312 245.691406 27.703125 245.542969 C 27.339844 245.390625 26.996094 245.207031 26.667969 244.988281 C 26.339844 244.769531 26.039062 244.519531 25.757812 244.242188 C 25.480469 243.960938 25.230469 243.660156 25.011719 243.332031 C 24.792969 243.003906 24.609375 242.660156 24.457031 242.296875 C 24.308594 241.929688 24.195312 241.554688 24.117188 241.171875 C 24.039062 240.785156 24 240.394531 24 240 L 24 208.96875 C 25.941406 209.65625 27.941406 210 30 210 L 114 210 L 114 198 L 30 198 C 29.605469 198 29.214844 197.960938 28.828125 197.882812 C 28.445312 197.804688 28.070312 197.691406 27.703125 197.542969 C 27.339844 197.390625 26.996094 197.207031 26.667969 196.988281 C 26.339844 196.769531 26.039062 196.519531 25.757812 196.242188 C 25.480469 195.960938 25.230469 195.660156 25.011719 195.332031 C 24.792969 195.003906 24.609375 194.660156 24.457031 194.296875 C 24.308594 193.929688 24.195312 193.554688 24.117188 193.171875 C 24.039062 192.785156 24 192.394531 24 192 L 24 160.96875 C 25.941406 161.65625 27.941406 162 30 162 L 114 162 L 114 150 L 30 150 C 29.605469 150 29.214844 149.960938 28.828125 149.882812 C 28.445312 149.804688 28.070312 149.691406 27.703125 149.542969 C 27.339844 149.390625 26.996094 149.207031 26.667969 148.988281 C 26.339844 148.769531 26.039062 148.519531 25.757812 148.242188 C 25.480469 147.960938 25.230469 147.660156 25.011719 147.332031 C 24.792969 147.003906 24.609375 146.660156 24.457031 146.296875 C 24.308594 145.929688 24.195312 145.554688 24.117188 145.171875 C 24.039062 144.785156 24 144.394531 24 144 L 24 112.96875 C 25.941406 113.65625 27.941406 114 30 114 L 114 114 L 114 102 L 30 102 C 29.605469 102 29.214844 101.960938 28.828125 101.882812 C 28.445312 101.804688 28.070312 101.691406 27.703125 101.542969 C 27.339844 101.390625 26.996094 101.207031 26.667969 100.988281 C 26.339844 100.769531 26.039062 100.519531 25.757812 100.242188 C 25.480469 99.960938 25.230469 99.660156 25.011719 99.332031 C 24.792969 99.003906 24.609375 98.660156 24.457031 98.296875 C 24.308594 97.929688 24.195312 97.554688 24.117188 97.171875 C 24.039062 96.785156 24 96.394531 24 96 L 24 77.25 L 12 77.25 L 12 264 C 12 264.589844 12.03125 265.175781 12.089844 265.761719 C 12.148438 266.351562 12.234375 266.933594 12.347656 267.511719 C 12.464844 268.089844 12.609375 268.660156 12.78125 269.222656 C 12.953125 269.785156 13.148438 270.339844 13.375 270.886719 C 13.601562 271.429688 13.855469 271.960938 14.132812 272.480469 C 14.410156 273 14.710938 273.503906 15.039062 273.996094 C 15.367188 274.484375 15.71875 274.957031 16.09375 275.414062 C 16.464844 275.867188 16.863281 276.304688 17.277344 276.722656 C 17.695312 277.136719 18.132812 277.535156 18.585938 277.90625 C 19.042969 278.28125 19.515625 278.632812 20.003906 278.960938 C 20.496094 279.289062 21 279.589844 21.519531 279.867188 C 22.039062 280.144531 22.570312 280.398438 23.113281 280.625 C 23.660156 280.851562 24.214844 281.046875 24.777344 281.21875 C 25.339844 281.390625 25.910156 281.535156 26.488281 281.652344 C 27.066406 281.765625 27.648438 281.851562 28.238281 281.910156 C 28.824219 281.96875 29.410156 282 30 282 L 114 282 Z M 48 138 L 48 126 L 36 126 L 36 138 Z M 114 138 L 114 126 L 60 126 L 60 138 Z M 48 186 L 48 174 L 36 174 L 36 186 Z M 114 186 L 114 174 L 60 174 L 60 186 Z M 48 234 L 48 222 L 36 222 L 36 234 Z M 114 234 L 114 222 L 60 222 L 60 234 Z M 126 288 L 126 156 L 138 156 L 138 168 C 138 168.394531 138.039062 168.785156 138.117188 169.171875 C 138.195312 169.554688 138.308594 169.929688 138.457031 170.296875 C 138.609375 170.660156 138.792969 171.003906 139.011719 171.332031 C 139.230469 171.660156 139.480469 171.960938 139.757812 172.242188 C 140.039062 172.519531 140.339844 172.769531 140.667969 172.988281 C 140.996094 173.207031 141.339844 173.390625 141.703125 173.542969 C 142.070312 173.691406 142.445312 173.804688 142.828125 173.882812 C 143.214844 173.960938 143.605469 174 144 174 L 240 174 C 240.394531 174 240.785156 173.960938 241.171875 173.882812 C 241.554688 173.804688 241.929688 173.691406 242.296875 173.542969 C 242.660156 173.390625 243.003906 173.207031 243.332031 172.988281 C 243.660156 172.769531 243.960938 172.519531 244.242188 172.242188 C 244.519531 171.960938 244.769531 171.660156 244.988281 171.332031 C 245.207031 171.003906 245.390625 170.660156 245.542969 170.296875 C 245.691406 169.929688 245.804688 169.554688 245.882812 169.171875 C 245.960938 168.785156 246 168.394531 246 168 L 246 136.96875 C 244.058594 137.65625 242.058594 138 240 138 L 144 138 C 141.941406 138 139.941406 137.65625 138 136.96875 L 138 144.75 L 126 144.75 L 126 30 C 126 29.410156 126.03125 28.824219 126.089844 28.234375 C 126.148438 27.648438 126.234375 27.066406 126.347656 26.488281 C 126.464844 25.910156 126.609375 25.339844 126.78125 24.777344 C 126.949219 24.214844 127.148438 23.660156 127.375 23.113281 C 127.601562 22.570312 127.851562 22.039062 128.132812 21.519531 C 128.410156 21 128.710938 20.496094 129.039062 20.003906 C 129.367188 19.515625 129.71875 19.042969 130.09375 18.585938 C 130.464844 18.128906 130.859375 17.695312 131.277344 17.277344 C 131.695312 16.859375 132.128906 16.464844 132.585938 16.09375 C 133.042969 15.71875 133.515625 15.367188 134.003906 15.039062 C 134.496094 14.710938 135 14.410156 135.519531 14.132812 C 136.039062 13.851562 136.570312 13.601562 137.113281 13.375 C 137.660156 13.148438 138.214844 12.949219 138.777344 12.78125 C 139.339844 12.609375 139.910156 12.464844 140.488281 12.347656 C 141.066406 12.234375 141.648438 12.148438 142.234375 12.089844 C 142.824219 12.03125 143.410156 12 144 12 L 240 12 C 240.589844 12 241.175781 12.03125 241.761719 12.089844 C 242.351562 12.148438 242.933594 12.234375 243.511719 12.347656 C 244.089844 12.464844 244.660156 12.609375 245.222656 12.78125 C 245.785156 12.949219 246.339844 13.148438 246.886719 13.375 C 247.429688 13.601562 247.960938 13.851562 248.480469 14.132812 C 249 14.410156 249.503906 14.710938 249.996094 15.039062 C 250.484375 15.367188 250.957031 15.71875 251.414062 16.09375 C 251.867188 16.464844 252.304688 16.859375 252.722656 17.277344 C 253.140625 17.695312 253.535156 18.128906 253.90625 18.585938 C 254.28125 19.042969 254.632812 19.515625 254.960938 20.003906 C 255.289062 20.496094 255.589844 21 255.867188 21.519531 C 256.148438 22.039062 256.398438 22.570312 256.625 23.113281 C 256.851562 23.660156 257.050781 24.214844 257.21875 24.777344 C 257.390625 25.339844 257.535156 25.910156 257.652344 26.488281 C 257.765625 27.066406 257.851562 27.648438 257.910156 28.234375 C 257.96875 28.824219 258 29.410156 258 30 L 258 288 C 258 288.589844 257.96875 289.175781 257.910156 289.761719 C 257.851562 290.351562 257.765625 290.933594 257.652344 291.511719 C 257.535156 292.089844 257.390625 292.660156 257.21875 293.222656 C 257.050781 293.785156 256.851562 294.339844 256.625 294.886719 C 256.398438 295.429688 256.148438 295.960938 255.867188 296.480469 C 255.589844 297 255.289062 297.503906 254.960938 297.996094 C 254.632812 298.484375 254.28125 298.957031 253.90625 299.414062 C 253.535156 299.867188 253.140625 300.304688 252.722656 300.722656 C 252.304688 301.140625 251.867188 301.535156 251.414062 301.90625 C 250.957031 302.28125 250.484375 302.632812 249.996094 302.960938 C 249.503906 303.289062 249 303.589844 248.480469 303.867188 C 247.960938 304.148438 247.429688 304.398438 246.886719 304.625 C 246.339844 304.851562 245.785156 305.050781 245.222656 305.21875 C 244.660156 305.390625 244.089844 305.535156 243.511719 305.652344 C 242.933594 305.765625 242.351562 305.851562 241.761719 305.910156 C 241.175781 305.96875 240.589844 306 240 306 L 144 306 C 143.410156 306 142.824219 305.96875 142.234375 305.910156 C 141.648438 305.851562 141.066406 305.765625 140.488281 305.652344 C 139.910156 305.535156 139.339844 305.390625 138.777344 305.21875 C 138.214844 305.050781 137.660156 304.851562 137.113281 304.625 C 136.570312 304.398438 136.039062 304.148438 135.519531 303.867188 C 135 303.589844 134.496094 303.289062 134.003906 302.960938 C 133.515625 302.632812 133.042969 302.28125 132.585938 301.90625 C 132.128906 301.535156 131.695312 301.140625 131.277344 300.722656 C 130.859375 300.304688 130.464844 299.867188 130.09375 299.414062 C 129.71875 298.957031 129.367188 298.484375 129.039062 297.996094 C 128.710938 297.503906 128.410156 297 128.132812 296.480469 C 127.851562 295.960938 127.601562 295.429688 127.375 294.886719 C 127.148438 294.339844 126.949219 293.785156 126.78125 293.222656 C 126.609375 292.660156 126.464844 292.089844 126.347656 291.511719 C 126.234375 290.933594 126.148438 290.351562 126.089844 289.761719 C 126.03125 289.175781 126 288.589844 126 288 Z M 138 72 C 138 72.394531 138.039062 72.785156 138.117188 73.171875 C 138.195312 73.554688 138.308594 73.929688 138.457031 74.296875 C 138.609375 74.660156 138.792969 75.003906 139.011719 75.332031 C 139.230469 75.660156 139.480469 75.960938 139.757812 76.242188 C 140.039062 76.519531 140.339844 76.769531 140.667969 76.988281 C 140.996094 77.207031 141.339844 77.390625 141.703125 77.542969 C 142.070312 77.691406 142.445312 77.804688 142.828125 77.882812 C 143.214844 77.960938 143.605469 78 144 78 L 240 78 C 240.394531 78 240.785156 77.960938 241.171875 77.882812 C 241.554688 77.804688 241.929688 77.691406 242.296875 77.542969 C 242.660156 77.390625 243.003906 77.207031 243.332031 76.988281 C 243.660156 76.769531 243.960938 76.519531 244.242188 76.242188 C 244.519531 75.960938 244.769531 75.660156 244.988281 75.332031 C 245.207031 75.003906 245.390625 74.660156 245.542969 74.296875 C 245.691406 73.929688 245.804688 73.554688 245.882812 73.171875 C 245.960938 72.785156 246 72.394531 246 72 L 246 30 C 246 29.605469 245.960938 29.214844 245.882812 28.828125 C 245.804688 28.445312 245.691406 28.070312 245.542969 27.703125 C 245.390625 27.339844 245.207031 26.996094 244.988281 26.667969 C 244.769531 26.339844 244.519531 26.039062 244.242188 25.757812 C 243.960938 25.480469 243.660156 25.230469 243.332031 25.011719 C 243.003906 24.792969 242.660156 24.609375 242.296875 24.457031 C 241.929688 24.308594 241.554688 24.195312 241.171875 24.117188 C 240.785156 24.039062 240.394531 24 240 24 L 144 24 C 143.605469 24 143.214844 24.039062 142.828125 24.117188 C 142.445312 24.195312 142.070312 24.308594 141.703125 24.457031 C 141.339844 24.609375 140.996094 24.792969 140.667969 25.011719 C 140.339844 25.230469 140.039062 25.480469 139.757812 25.757812 C 139.480469 26.039062 139.230469 26.339844 139.011719 26.667969 C 138.792969 26.996094 138.609375 27.339844 138.457031 27.703125 C 138.308594 28.070312 138.195312 28.445312 138.117188 28.828125 C 138.039062 29.214844 138 29.605469 138 30 Z M 246 120 L 246 88.96875 C 244.058594 89.65625 242.058594 90 240 90 L 144 90 C 141.941406 90 139.941406 89.65625 138 88.96875 L 138 120 C 138 120.394531 138.039062 120.785156 138.117188 121.171875 C 138.195312 121.554688 138.308594 121.929688 138.457031 122.296875 C 138.609375 122.660156 138.792969 123.003906 139.011719 123.332031 C 139.230469 123.660156 139.480469 123.960938 139.757812 124.242188 C 140.039062 124.519531 140.339844 124.769531 140.667969 124.988281 C 140.996094 125.207031 141.339844 125.390625 141.703125 125.542969 C 142.070312 125.691406 142.445312 125.804688 142.828125 125.882812 C 143.214844 125.960938 143.605469 126 144 126 L 240 126 C 240.394531 126 240.785156 125.960938 241.171875 125.882812 C 241.554688 125.804688 241.929688 125.691406 242.296875 125.542969 C 242.660156 125.390625 243.003906 125.207031 243.332031 124.988281 C 243.660156 124.769531 243.960938 124.519531 244.242188 124.242188 C 244.519531 123.960938 244.769531 123.660156 244.988281 123.332031 C 245.207031 123.003906 245.390625 122.660156 245.542969 122.296875 C 245.691406 121.929688 245.804688 121.554688 245.882812 121.171875 C 245.960938 120.785156 246 120.394531 246 120 Z M 246 288 L 246 280.96875 C 244.058594 281.65625 242.058594 282 240 282 L 144 282 C 141.941406 282 139.941406 281.65625 138 280.96875 L 138 288 C 138 288.394531 138.039062 288.785156 138.117188 289.171875 C 138.195312 289.554688 138.308594 289.929688 138.457031 290.296875 C 138.609375 290.660156 138.792969 291.003906 139.011719 291.332031 C 139.230469 291.660156 139.480469 291.960938 139.757812 292.242188 C 140.039062 292.519531 140.339844 292.769531 140.667969 292.988281 C 140.996094 293.207031 141.339844 293.390625 141.703125 293.542969 C 142.070312 293.691406 142.445312 293.804688 142.828125 293.882812 C 143.214844 293.960938 143.605469 294 144 294 L 240 294 C 240.394531 294 240.785156 293.960938 241.171875 293.882812 C 241.554688 293.804688 241.929688 293.691406 242.296875 293.542969 C 242.660156 293.390625 243.003906 293.207031 243.332031 292.988281 C 243.660156 292.769531 243.960938 292.519531 244.242188 292.242188 C 244.519531 291.960938 244.769531 291.660156 244.988281 291.332031 C 245.207031 291.003906 245.390625 290.660156 245.542969 290.296875 C 245.691406 289.929688 245.804688 289.554688 245.882812 289.171875 C 245.960938 288.785156 246 288.394531 246 288 Z M 138 216 C 138 216.394531 138.039062 216.785156 138.117188 217.171875 C 138.195312 217.554688 138.308594 217.929688 138.457031 218.296875 C 138.609375 218.660156 138.792969 219.003906 139.011719 219.332031 C 139.230469 219.660156 139.480469 219.960938 139.757812 220.242188 C 140.039062 220.519531 140.339844 220.769531 140.667969 220.988281 C 140.996094 221.207031 141.339844 221.390625 141.703125 221.542969 C 142.070312 221.691406 142.445312 221.804688 142.828125 221.882812 C 143.214844 221.960938 143.605469 222 144 222 L 240 222 C 240.394531 222 240.785156 221.960938 241.171875 221.882812 C 241.554688 221.804688 241.929688 221.691406 242.296875 221.542969 C 242.660156 221.390625 243.003906 221.207031 243.332031 220.988281 C 243.660156 220.769531 243.960938 220.519531 244.242188 220.242188 C 244.519531 219.960938 244.769531 219.660156 244.988281 219.332031 C 245.207031 219.003906 245.390625 218.660156 245.542969 218.296875 C 245.691406 217.929688 245.804688 217.554688 245.882812 217.171875 C 245.960938 216.785156 246 216.394531 246 216 L 246 184.96875 C 244.058594 185.65625 242.058594 186 240 186 L 144 186 C 141.941406 186 139.941406 185.65625 138 184.96875 Z M 138 264 C 138 264.394531 138.039062 264.785156 138.117188 265.171875 C 138.195312 265.554688 138.308594 265.929688 138.457031 266.296875 C 138.609375 266.660156 138.792969 267.003906 139.011719 267.332031 C 139.230469 267.660156 139.480469 267.960938 139.757812 268.242188 C 140.039062 268.519531 140.339844 268.769531 140.667969 268.988281 C 140.996094 269.207031 141.339844 269.390625 141.703125 269.542969 C 142.070312 269.691406 142.445312 269.804688 142.828125 269.882812 C 143.214844 269.960938 143.605469 270 144 270 L 240 270 C 240.394531 270 240.785156 269.960938 241.171875 269.882812 C 241.554688 269.804688 241.929688 269.691406 242.296875 269.542969 C 242.660156 269.390625 243.003906 269.207031 243.332031 268.988281 C 243.660156 268.769531 243.960938 268.519531 244.242188 268.242188 C 244.519531 267.960938 244.769531 267.660156 244.988281 267.332031 C 245.207031 267.003906 245.390625 266.660156 245.542969 266.296875 C 245.691406 265.929688 245.804688 265.554688 245.882812 265.171875 C 245.960938 264.785156 246 264.394531 246 264 L 246 232.96875 C 244.058594 233.65625 242.058594 234 240 234 L 144 234 C 141.941406 234 139.941406 233.65625 138 232.96875 Z M 150 114 L 162 114 L 162 102 L 150 102 Z M 174 114 L 234 114 L 234 102 L 174 102 Z M 150 150 L 150 162 L 162 162 L 162 150 Z M 174 150 L 174 162 L 234 162 L 234 150 Z M 162 198 L 150 198 L 150 210 L 162 210 Z M 234 198 L 174 198 L 174 210 L 234 210 Z M 162 246 L 150 246 L 150 258 L 162 258 Z M 234 246 L 174 246 L 174 258 L 234 258 Z M 306 294 L 318 294 L 318 354 C 318 354.394531 317.960938 354.785156 317.882812 355.171875 C 317.808594 355.558594 317.695312 355.933594 317.542969 356.296875 C 317.390625 356.660156 317.207031 357.003906 316.988281 357.332031 C 316.769531 357.660156 316.519531 357.964844 316.242188 358.242188 C 315.964844 358.519531 315.660156 358.769531 315.332031 358.988281 C 315.003906 359.207031 314.660156 359.390625 314.296875 359.542969 C 313.933594 359.695312 313.558594 359.808594 313.171875 359.882812 C 312.785156 359.960938 312.394531 360 312 360 L 208.96875 360 C 208.660156 360.871094 208.285156 361.714844 207.847656 362.527344 C 207.410156 363.34375 206.910156 364.117188 206.351562 364.855469 C 205.792969 365.59375 205.183594 366.285156 204.519531 366.925781 C 203.855469 367.570312 203.144531 368.15625 202.390625 368.691406 C 201.632812 369.226562 200.84375 369.699219 200.015625 370.109375 C 199.1875 370.523438 198.332031 370.867188 197.449219 371.148438 C 196.570312 371.425781 195.671875 371.636719 194.757812 371.78125 C 193.84375 371.921875 192.925781 371.992188 192 371.992188 C 191.074219 371.992188 190.15625 371.921875 189.242188 371.78125 C 188.328125 371.636719 187.429688 371.425781 186.550781 371.148438 C 185.667969 370.867188 184.8125 370.523438 183.984375 370.109375 C 183.15625 369.699219 182.367188 369.226562 181.609375 368.691406 C 180.855469 368.15625 180.144531 367.570312 179.480469 366.925781 C 178.816406 366.285156 178.207031 365.59375 177.648438 364.855469 C 177.089844 364.117188 176.589844 363.34375 176.152344 362.527344 C 175.714844 361.714844 175.339844 360.871094 175.03125 360 L 72 360 C 71.605469 360 71.214844 359.960938 70.828125 359.882812 C 70.441406 359.808594 70.066406 359.695312 69.703125 359.542969 C 69.339844 359.390625 68.996094 359.207031 68.667969 358.988281 C 68.339844 358.769531 68.035156 358.519531 67.757812 358.242188 C 67.480469 357.964844 67.230469 357.660156 67.011719 357.332031 C 66.792969 357.003906 66.609375 356.660156 66.457031 356.296875 C 66.304688 355.933594 66.191406 355.558594 66.117188 355.171875 C 66.039062 354.785156 66 354.394531 66 354 L 66 294 L 78 294 L 78 348 L 175.03125 348 C 175.480469 346.738281 176.066406 345.539062 176.78125 344.402344 C 177.5 343.269531 178.332031 342.230469 179.28125 341.28125 C 180.230469 340.332031 181.269531 339.5 182.402344 338.78125 C 183.539062 338.066406 184.738281 337.480469 186 337.03125 L 186 318 L 198 318 L 198 337.03125 C 199.261719 337.480469 200.460938 338.066406 201.597656 338.78125 C 202.730469 339.5 203.769531 340.332031 204.71875 341.28125 C 205.667969 342.230469 206.5 343.269531 207.21875 344.402344 C 207.933594 345.539062 208.519531 346.738281 208.96875 348 L 306 348 Z M 198 354 C 198 353.605469 197.960938 353.214844 197.882812 352.828125 C 197.808594 352.441406 197.695312 352.066406 197.542969 351.703125 C 197.390625 351.339844 197.207031 350.992188 196.988281 350.667969 C 196.769531 350.339844 196.519531 350.035156 196.242188 349.757812 C 195.964844 349.480469 195.660156 349.230469 195.332031 349.011719 C 195.003906 348.792969 194.660156 348.609375 194.296875 348.457031 C 193.933594 348.304688 193.558594 348.191406 193.171875 348.117188 C 192.785156 348.039062 192.394531 348 192 348 C 191.605469 348 191.214844 348.039062 190.828125 348.117188 C 190.441406 348.191406 190.066406 348.304688 189.703125 348.457031 C 189.339844 348.609375 188.992188 348.792969 188.667969 349.011719 C 188.339844 349.230469 188.035156 349.480469 187.757812 349.757812 C 187.480469 350.035156 187.230469 350.339844 187.011719 350.667969 C 186.792969 350.992188 186.609375 351.339844 186.457031 351.703125 C 186.304688 352.066406 186.191406 352.441406 186.117188 352.828125 C 186.039062 353.214844 186 353.605469 186 354 C 186 354.394531 186.039062 354.785156 186.117188 355.171875 C 186.191406 355.558594 186.304688 355.933594 186.457031 356.296875 C 186.609375 356.660156 186.792969 357.003906 187.011719 357.332031 C 187.230469 357.660156 187.480469 357.964844 187.757812 358.242188 C 188.035156 358.519531 188.339844 358.769531 188.667969 358.988281 C 188.992188 359.207031 189.339844 359.390625 189.703125 359.542969 C 190.066406 359.695312 190.441406 359.808594 190.828125 359.882812 C 191.214844 359.960938 191.605469 360 192 360 C 192.394531 360 192.785156 359.960938 193.171875 359.882812 C 193.554688 359.804688 193.929688 359.691406 194.296875 359.542969 C 194.660156 359.390625 195.003906 359.207031 195.332031 358.988281 C 195.660156 358.769531 195.960938 358.519531 196.242188 358.242188 C 196.519531 357.960938 196.769531 357.660156 196.988281 357.332031 C 197.207031 357.003906 197.390625 356.660156 197.542969 356.296875 C 197.691406 355.929688 197.804688 355.554688 197.882812 355.171875 C 197.960938 354.785156 198 354.394531 198 354 Z M 198 354 " fill-opacity="1" fill-rule="nonzero"/></svg>