<svg xmlns="http://www.w3.org/2000/svg" xmlns:xlink="http://www.w3.org/1999/xlink" width="512" zoomAndPan="magnify" viewBox="0 0 384 383.999986" height="512" preserveAspectRatio="xMidYMid meet" version="1.0"><path fill="#fbb040" d="M 162.328125 22.5 L 70.125 22.5 C 62.886719 22.5 57 28.386719 57 35.625 L 57 174.636719 C 57 177.746094 59.519531 180.261719 62.625 180.261719 C 65.730469 180.261719 68.25 177.746094 68.25 174.636719 L 68.25 35.625 C 68.25 34.589844 69.089844 33.75 70.125 33.75 L 162.328125 33.75 C 165.4375 33.75 167.953125 31.230469 167.953125 28.125 C 167.953125 25.019531 165.433594 22.5 162.328125 22.5 Z M 162.328125 22.5 " fill-opacity="1" fill-rule="nonzero"/><path fill="#fbb040" d="M 57 241.875 C 57 249.113281 62.886719 255 70.125 255 L 313.875 255 C 321.113281 255 327 249.113281 327 241.875 L 327 35.625 C 327 28.386719 321.113281 22.5 313.875 22.5 L 188.578125 22.5 C 185.472656 22.5 182.953125 25.019531 182.953125 28.125 C 182.953125 31.230469 185.472656 33.75 188.578125 33.75 L 313.875 33.75 C 314.910156 33.75 315.75 34.589844 315.75 35.625 L 315.75 241.875 C 315.75 242.910156 314.910156 243.75 313.875 243.75 L 70.125 243.75 C 69.089844 243.75 68.25 242.910156 68.25 241.875 L 68.25 200.886719 C 68.25 197.78125 65.730469 195.261719 62.625 195.261719 C 59.519531 195.261719 57 197.78125 57 200.886719 Z M 57 241.875 " fill-opacity="1" fill-rule="nonzero"/><path fill="#fbb040" d="M 378.375 372.75 L 255.75 372.75 C 246.445312 372.75 238.875 365.179688 238.875 355.875 L 238.875 277.5 L 250.125 277.5 L 250.125 353.625 C 250.125 357.96875 253.65625 361.5 258 361.5 L 378.375 361.5 C 381.480469 361.5 384 358.980469 384 355.875 C 384 352.769531 381.480469 350.25 378.375 350.25 L 261.375 350.25 L 261.375 306.75 L 294.375 306.75 C 301.613281 306.75 307.5 300.863281 307.5 293.625 L 307.5 277.5 L 321.375 277.5 C 336.882812 277.5 349.5 264.882812 349.5 249.375 L 349.5 138.671875 C 349.5 135.5625 346.980469 133.046875 343.875 133.046875 C 340.769531 133.046875 338.25 135.5625 338.25 138.671875 L 338.25 249.375 C 338.25 258.679688 330.679688 266.25 321.375 266.25 C 296.15625 266.25 87.414062 266.25 62.625 266.25 C 53.320312 266.25 45.75 258.679688 45.75 249.375 L 45.75 28.125 C 45.75 18.820312 53.320312 11.25 62.625 11.25 L 321.375 11.25 C 330.679688 11.25 338.25 18.820312 338.25 28.125 L 338.25 112.421875 C 338.25 115.527344 340.769531 118.046875 343.875 118.046875 C 346.980469 118.046875 349.5 115.527344 349.5 112.421875 L 349.5 28.125 C 349.5 12.617188 336.882812 0 321.375 0 L 62.625 0 C 47.117188 0 34.5 12.617188 34.5 28.125 L 34.5 249.375 C 34.5 264.882812 47.117188 277.5 62.625 277.5 L 76.5 277.5 L 76.5 293.625 C 76.5 300.863281 82.386719 306.75 89.625 306.75 L 122.625 306.75 L 122.625 350.25 L 82.125 350.25 C 79.019531 350.25 76.5 352.769531 76.5 355.875 C 76.5 358.980469 79.019531 361.5 82.125 361.5 L 126 361.5 C 130.34375 361.5 133.875 357.96875 133.875 353.625 L 133.875 277.5 L 145.125 277.5 L 145.125 355.875 C 145.125 365.179688 137.554688 372.75 128.25 372.75 L 5.625 372.75 C 2.519531 372.75 0 375.269531 0 378.375 C 0 381.480469 2.519531 384 5.625 384 L 128.25 384 C 143.757812 384 156.375 371.382812 156.375 355.875 L 156.375 306.75 L 175.125 306.75 L 175.125 378.375 C 175.125 381.480469 177.644531 384 180.75 384 C 183.855469 384 186.375 381.480469 186.375 378.375 L 186.375 277.5 L 197.625 277.5 L 197.625 378.375 C 197.625 381.480469 200.144531 384 203.25 384 C 206.355469 384 208.875 381.480469 208.875 378.375 L 208.875 306.75 L 227.625 306.75 L 227.625 355.875 C 227.625 371.382812 240.242188 384 255.75 384 L 378.375 384 C 381.480469 384 384 381.480469 384 378.375 C 384 375.269531 381.480469 372.75 378.375 372.75 Z M 296.25 293.625 C 296.25 294.660156 295.410156 295.5 294.375 295.5 L 261.375 295.5 L 261.375 277.5 L 296.25 277.5 Z M 122.625 295.5 L 89.625 295.5 C 88.589844 295.5 87.75 294.660156 87.75 293.625 L 87.75 277.5 L 122.625 277.5 Z M 175.125 295.5 L 156.375 295.5 L 156.375 277.5 L 175.125 277.5 Z M 208.875 295.5 L 208.875 277.5 L 227.625 277.5 L 227.625 295.5 Z M 208.875 295.5 " fill-opacity="1" fill-rule="nonzero"/><path fill="#fbb040" d="M 5.625 361.5 L 55.875 361.5 C 58.980469 361.5 61.5 358.980469 61.5 355.875 C 61.5 352.769531 58.980469 350.25 55.875 350.25 L 5.625 350.25 C 2.519531 350.25 0 352.769531 0 355.875 C 0 358.980469 2.519531 361.5 5.625 361.5 Z M 5.625 361.5 " fill-opacity="1" fill-rule="nonzero"/><path fill="#fbb040" d="M 160.542969 162.726562 L 175.988281 162.726562 L 166.445312 184.792969 C 164.777344 188.65625 165.160156 193.058594 167.46875 196.578125 C 169.78125 200.09375 173.671875 202.191406 177.878906 202.191406 C 181.777344 202.191406 185.5 200.328125 187.839844 197.210938 L 223.78125 149.316406 C 226.023438 146.332031 226.378906 142.40625 224.710938 139.066406 C 223.042969 135.730469 219.6875 133.65625 215.957031 133.65625 L 200.511719 133.65625 L 210.054688 111.589844 C 211.722656 107.726562 211.339844 103.320312 209.03125 99.804688 C 206.71875 96.289062 202.828125 94.191406 198.621094 94.191406 C 194.726562 94.191406 191 96.050781 188.660156 99.167969 L 152.71875 147.066406 C 150.476562 150.046875 150.121094 153.976562 151.789062 157.3125 C 153.457031 160.652344 156.8125 162.726562 160.542969 162.726562 Z M 197.65625 105.921875 C 197.882812 105.621094 198.246094 105.441406 198.621094 105.441406 C 199.160156 105.441406 199.464844 105.734375 199.628906 105.984375 C 199.792969 106.230469 199.941406 106.628906 199.726562 107.125 L 186.789062 137.046875 C 186.039062 138.785156 186.210938 140.785156 187.25 142.371094 C 188.292969 143.953125 190.058594 144.90625 191.953125 144.90625 L 213.027344 144.90625 L 178.84375 190.460938 C 178.617188 190.761719 178.257812 190.941406 177.878906 190.941406 C 177.339844 190.941406 177.035156 190.644531 176.871094 190.398438 C 176.710938 190.148438 176.558594 189.75 176.773438 189.257812 L 189.710938 159.332031 C 190.460938 157.59375 190.289062 155.59375 189.25 154.011719 C 188.207031 152.425781 186.441406 151.472656 184.546875 151.472656 L 163.472656 151.472656 Z M 197.65625 105.921875 " fill-opacity="1" fill-rule="nonzero"/><path fill="#fbb040" d="M 126.992188 223.171875 L 257.007812 223.171875 C 278.238281 223.71875 292.152344 198.988281 281.363281 180.984375 L 216.355469 68.390625 C 205.4375 49.175781 177.773438 50.421875 167.644531 68.390625 L 102.636719 180.984375 C 91.503906 200.132812 106.339844 223.34375 126.992188 223.171875 Z M 112.378906 186.609375 L 177.386719 74.015625 C 183.097656 63.273438 200.339844 62.726562 206.613281 74.015625 L 271.621094 186.609375 C 278.023438 196.828125 269.949219 212.167969 257.007812 211.921875 L 126.992188 211.921875 C 114.824219 212.328125 105.785156 197.769531 112.378906 186.609375 Z M 112.378906 186.609375 " fill-opacity="1" fill-rule="nonzero"/><path fill="#fbb040" d="M 103.125 108.75 C 106.230469 108.75 108.75 106.230469 108.75 103.125 L 108.75 91.566406 C 119.070312 89.039062 126.75 79.714844 126.75 68.625 C 126.75 55.597656 116.152344 45 103.125 45 C 90.097656 45 79.5 55.597656 79.5 68.625 C 79.5 79.714844 87.179688 89.035156 97.5 91.566406 L 97.5 103.125 C 97.5 106.230469 100.019531 108.75 103.125 108.75 Z M 90.75 68.625 C 90.75 61.800781 96.300781 56.25 103.125 56.25 C 109.949219 56.25 115.5 61.800781 115.5 68.625 C 115.5 75.449219 109.949219 81 103.125 81 C 96.300781 81 90.75 75.449219 90.75 68.625 Z M 90.75 68.625 " fill-opacity="1" fill-rule="nonzero"/></svg>