<svg xmlns="http://www.w3.org/2000/svg" xmlns:xlink="http://www.w3.org/1999/xlink" width="512" zoomAndPan="magnify" viewBox="0 0 384 383.999986" height="512" preserveAspectRatio="xMidYMid meet" version="1.0"><path fill="#fbb040" d="M 323.921875 164.128906 C 323.46875 157.9375 322.484375 151.683594 320.992188 145.550781 C 320.261719 142.53125 317.222656 140.679688 314.199219 141.410156 C 311.183594 142.144531 309.328125 145.1875 310.0625 148.207031 C 311.40625 153.738281 312.292969 159.371094 312.699219 164.949219 C 312.816406 166.53125 312.285156 168.042969 311.203125 169.207031 C 310.128906 170.363281 308.664062 171 307.085938 171 L 76.914062 171 C 75.335938 171 73.871094 170.363281 72.796875 169.207031 C 71.714844 168.042969 71.183594 166.53125 71.300781 164.949219 C 74.601562 119.652344 108.222656 88.152344 115.605469 81.75 L 165 81.75 C 168.105469 81.75 170.625 79.230469 170.625 76.125 C 170.625 73.019531 168.105469 70.5 165 70.5 L 128.183594 70.5 C 138.601562 60.539062 153.285156 44.863281 158 31.6875 C 158.363281 30.679688 159.347656 30 160.449219 30 L 223.550781 30 C 224.652344 30 225.636719 30.679688 226 31.6875 C 230.714844 44.863281 245.398438 60.539062 255.816406 70.5 L 191.25 70.5 C 188.144531 70.5 185.625 73.019531 185.625 76.125 C 185.625 79.230469 188.144531 81.75 191.25 81.75 L 268.398438 81.75 C 273.347656 86.027344 290.035156 101.503906 301.460938 124.710938 C 302.832031 127.496094 306.203125 128.644531 308.992188 127.273438 C 311.78125 125.898438 312.925781 122.527344 311.554688 119.742188 C 297.164062 90.519531 275.660156 73.085938 273.988281 71.757812 C 265.324219 64.519531 241.878906 42.667969 236.589844 27.898438 C 234.753906 22.765625 230.027344 19.210938 224.625 18.792969 L 224.625 5.625 C 224.625 2.519531 222.105469 0 219 0 C 215.894531 0 213.375 2.519531 213.375 5.625 L 213.375 18.75 L 170.625 18.75 L 170.625 5.625 C 170.625 2.519531 168.105469 0 165 0 C 161.894531 0 159.375 2.519531 159.375 5.625 L 159.375 18.792969 C 153.972656 19.210938 149.246094 22.765625 147.410156 27.898438 C 142.121094 42.664062 118.679688 64.515625 110.011719 71.757812 C 107.300781 73.90625 64.101562 108.988281 60.082031 164.128906 C 59.742188 168.796875 61.371094 173.4375 64.558594 176.863281 C 66.953125 179.441406 70.097656 181.191406 73.5 181.898438 L 73.5 191.625 C 73.5 198.179688 78.339844 203.613281 84.628906 204.582031 L 84.628906 307.058594 C 84.558594 332.675781 104.261719 354.953125 130.109375 357.402344 C 145.683594 373.777344 167.671875 384 192 384 C 216.320312 384 238.296875 373.785156 253.871094 357.425781 C 279.429688 354.921875 299.460938 333.125 299.375 307.058594 L 299.375 283.910156 C 299.375 280.804688 296.855469 278.285156 293.75 278.285156 C 290.640625 278.285156 288.125 280.804688 288.125 283.910156 L 288.125 307.058594 C 288.125 322.992188 278.746094 336.792969 264.960938 342.976562 C 272.875 330.027344 277.441406 314.816406 277.441406 298.558594 C 277.609375 249.085938 234.71875 209.390625 185.261719 213.378906 C 182.164062 213.621094 179.851562 216.328125 180.09375 219.425781 C 180.335938 222.523438 183.058594 224.839844 186.140625 224.59375 C 228.757812 220.972656 266.410156 255.632812 266.191406 298.558594 C 266.191406 339.46875 232.910156 372.75 192 372.75 C 151.089844 372.75 117.808594 339.46875 117.808594 298.558594 C 117.808594 269 135.324219 242.28125 162.433594 230.492188 C 165.28125 229.25 166.585938 225.9375 165.347656 223.089844 C 164.109375 220.238281 160.796875 218.933594 157.945312 220.175781 C 126.730469 233.753906 106.558594 264.519531 106.558594 298.558594 C 106.558594 314.808594 111.121094 330.011719 119.027344 342.957031 C 105.257812 336.757812 95.878906 322.9375 95.878906 307.058594 L 95.878906 204.75 L 288.125 204.75 L 288.125 256.8125 C 288.125 259.921875 290.640625 262.4375 293.75 262.4375 C 296.855469 262.4375 299.375 259.921875 299.375 256.8125 L 299.375 204.582031 C 305.664062 203.613281 310.5 198.179688 310.5 191.625 L 310.5 181.898438 C 313.902344 181.191406 317.046875 179.441406 319.441406 176.867188 C 322.628906 173.4375 324.261719 168.796875 323.921875 164.128906 Z M 299.25 191.625 C 299.25 192.660156 298.410156 193.5 297.375 193.5 L 86.625 193.5 C 85.589844 193.5 84.75 192.660156 84.75 191.625 L 84.75 182.25 L 299.25 182.25 Z M 299.25 191.625 " fill-opacity="1" fill-rule="nonzero"/><path fill="#fbb040" d="M 156.921875 268.445312 C 140.316406 268.445312 126.808594 281.953125 126.808594 298.558594 C 126.808594 315.164062 140.316406 328.671875 156.921875 328.671875 C 173.527344 328.671875 187.035156 315.164062 187.035156 298.558594 C 187.039062 281.953125 173.527344 268.445312 156.921875 268.445312 Z M 156.921875 317.421875 C 146.519531 317.421875 138.058594 308.960938 138.058594 298.558594 C 138.058594 288.15625 146.519531 279.695312 156.921875 279.695312 C 167.324219 279.695312 175.785156 288.15625 175.785156 298.558594 C 175.785156 308.960938 167.324219 317.421875 156.921875 317.421875 Z M 156.921875 317.421875 " fill-opacity="1" fill-rule="nonzero"/><path fill="#fbb040" d="M 227.078125 328.671875 C 243.683594 328.671875 257.191406 315.164062 257.191406 298.558594 C 257.191406 281.953125 243.683594 268.445312 227.078125 268.445312 C 210.472656 268.445312 196.964844 281.953125 196.964844 298.558594 C 196.960938 315.164062 210.472656 328.671875 227.078125 328.671875 Z M 227.078125 279.695312 C 237.480469 279.695312 245.941406 288.15625 245.941406 298.558594 C 245.941406 308.960938 237.480469 317.421875 227.078125 317.421875 C 216.675781 317.421875 208.214844 308.960938 208.214844 298.558594 C 208.214844 288.15625 216.675781 279.695312 227.078125 279.695312 Z M 227.078125 279.695312 " fill-opacity="1" fill-rule="nonzero"/><path fill="#fbb040" d="M 175.125 340.808594 C 175.125 350.113281 182.695312 357.683594 192 357.683594 C 201.304688 357.683594 208.875 350.113281 208.875 340.808594 C 208.875 331.503906 201.304688 323.933594 192 323.933594 C 182.695312 323.933594 175.125 331.503906 175.125 340.808594 Z M 197.625 340.808594 C 197.625 343.910156 195.101562 346.433594 192 346.433594 C 188.898438 346.433594 186.375 343.910156 186.375 340.808594 C 186.375 337.707031 188.898438 335.183594 192 335.183594 C 195.101562 335.183594 197.625 337.707031 197.625 340.808594 Z M 197.625 340.808594 " fill-opacity="1" fill-rule="nonzero"/><path fill="#fbb040" d="M 144.957031 153.539062 C 144.957031 156.648438 147.476562 159.164062 150.582031 159.164062 L 233.417969 159.164062 C 236.523438 159.164062 239.042969 156.648438 239.042969 153.539062 C 239.042969 150.433594 236.523438 147.914062 233.417969 147.914062 L 150.582031 147.914062 C 147.476562 147.914062 144.957031 150.433594 144.957031 153.539062 Z M 144.957031 153.539062 " fill-opacity="1" fill-rule="nonzero"/><path fill="#fbb040" d="M 210.917969 136.078125 C 214.023438 136.078125 216.542969 133.5625 216.542969 130.453125 C 216.542969 127.347656 214.023438 124.828125 210.917969 124.828125 L 173.082031 124.828125 C 169.976562 124.828125 167.457031 127.347656 167.457031 130.453125 C 167.457031 133.5625 169.976562 136.078125 173.082031 136.078125 Z M 210.917969 136.078125 " fill-opacity="1" fill-rule="nonzero"/><path fill="#fbb040" d="M 232.703125 298.558594 C 232.703125 298.929688 232.667969 299.292969 232.59375 299.65625 C 232.523438 300.019531 232.417969 300.371094 232.273438 300.710938 C 232.132812 301.050781 231.960938 301.375 231.753906 301.683594 C 231.550781 301.992188 231.316406 302.273438 231.054688 302.535156 C 230.792969 302.796875 230.511719 303.03125 230.203125 303.234375 C 229.894531 303.441406 229.570312 303.613281 229.230469 303.757812 C 228.890625 303.898438 228.539062 304.003906 228.175781 304.074219 C 227.8125 304.148438 227.445312 304.183594 227.078125 304.183594 C 226.707031 304.183594 226.34375 304.148438 225.980469 304.074219 C 225.617188 304.003906 225.265625 303.898438 224.925781 303.757812 C 224.582031 303.613281 224.257812 303.441406 223.953125 303.234375 C 223.644531 303.03125 223.359375 302.796875 223.097656 302.535156 C 222.839844 302.273438 222.605469 301.992188 222.398438 301.683594 C 222.195312 301.375 222.019531 301.050781 221.878906 300.710938 C 221.738281 300.371094 221.632812 300.019531 221.558594 299.65625 C 221.488281 299.292969 221.453125 298.929688 221.453125 298.558594 C 221.453125 298.1875 221.488281 297.824219 221.558594 297.460938 C 221.632812 297.097656 221.738281 296.746094 221.878906 296.40625 C 222.019531 296.0625 222.195312 295.738281 222.398438 295.433594 C 222.605469 295.125 222.839844 294.839844 223.097656 294.582031 C 223.359375 294.320312 223.644531 294.085938 223.953125 293.878906 C 224.257812 293.675781 224.582031 293.503906 224.925781 293.359375 C 225.265625 293.21875 225.617188 293.113281 225.980469 293.039062 C 226.34375 292.96875 226.707031 292.933594 227.078125 292.933594 C 227.445312 292.933594 227.8125 292.96875 228.175781 293.039062 C 228.539062 293.113281 228.890625 293.21875 229.230469 293.359375 C 229.570312 293.503906 229.894531 293.675781 230.203125 293.878906 C 230.511719 294.085938 230.792969 294.320312 231.054688 294.582031 C 231.316406 294.839844 231.550781 295.125 231.753906 295.433594 C 231.960938 295.738281 232.132812 296.0625 232.273438 296.40625 C 232.417969 296.746094 232.523438 297.097656 232.59375 297.460938 C 232.667969 297.824219 232.703125 298.1875 232.703125 298.558594 Z M 232.703125 298.558594 " fill-opacity="1" fill-rule="nonzero"/></svg>