<svg xmlns="http://www.w3.org/2000/svg" xmlns:xlink="http://www.w3.org/1999/xlink" width="512" zoomAndPan="magnify" viewBox="0 0 384 383.999986" height="512" preserveAspectRatio="xMidYMid meet" version="1.0"><path fill="#fbb040" d="M 342.375 332.25 L 308.625 332.25 C 305.519531 332.25 303 334.769531 303 337.875 C 303 340.984375 305.519531 343.5 308.625 343.5 L 342.375 343.5 C 343.410156 343.5 344.25 344.339844 344.25 345.375 L 344.25 352.875 C 344.25 353.910156 343.410156 354.75 342.375 354.75 L 222.917969 354.75 C 223.59375 351.125 223.683594 347.175781 223.15625 343.5 L 282.375 343.5 C 285.480469 343.5 288 340.984375 288 337.875 C 288 334.769531 285.480469 332.25 282.375 332.25 L 219.625 332.25 C 216.328125 325.785156 211.125 320.453125 204.75 317.007812 L 204.75 279 L 327 279 C 342.507812 279 355.125 266.382812 355.125 250.875 L 355.125 241.875 C 355.125 238.769531 352.605469 236.25 349.5 236.25 C 346.394531 236.25 343.875 238.769531 343.875 241.875 L 343.875 250.875 C 343.875 260.179688 336.304688 267.75 327 267.75 L 57 267.75 C 47.695312 267.75 40.125 260.179688 40.125 250.875 L 40.125 206.625 C 40.125 197.320312 47.695312 189.75 57 189.75 L 181.898438 189.75 C 185.003906 189.75 187.523438 187.230469 187.523438 184.125 C 187.523438 181.019531 185.003906 178.5 181.898438 178.5 L 57 178.5 C 47.695312 178.5 40.125 170.929688 40.125 161.625 L 40.125 117.375 C 40.125 108.070312 47.695312 100.5 57 100.5 L 327 100.5 C 336.304688 100.5 343.875 108.070312 343.875 117.375 L 343.875 161.625 C 343.875 170.929688 336.304688 178.5 327 178.5 L 208.125 178.5 C 205.019531 178.5 202.5 181.019531 202.5 184.125 C 202.5 187.230469 205.019531 189.75 208.125 189.75 L 327 189.75 C 336.304688 189.75 343.875 197.320312 343.875 206.625 L 343.875 215.625 C 343.875 218.730469 346.394531 221.25 349.5 221.25 C 352.605469 221.25 355.125 218.730469 355.125 215.625 L 355.125 206.625 C 355.125 197.433594 350.691406 189.261719 343.855469 184.125 C 350.691406 178.988281 355.125 170.816406 355.125 161.625 L 355.125 117.375 C 355.125 108.183594 350.691406 100.011719 343.855469 94.875 C 350.691406 89.738281 355.125 81.566406 355.125 72.375 L 355.125 28.125 C 355.125 12.617188 342.507812 0 327 0 L 110.625 0 C 107.519531 0 105 2.519531 105 5.625 C 105 8.730469 107.519531 11.25 110.625 11.25 L 327 11.25 C 336.304688 11.25 343.875 18.820312 343.875 28.125 L 343.875 72.375 C 343.875 81.679688 336.304688 89.25 327 89.25 L 57 89.25 C 47.695312 89.25 40.125 81.679688 40.125 72.375 L 40.125 28.125 C 40.125 18.820312 47.695312 11.25 57 11.25 L 83.625 11.25 C 86.730469 11.25 89.25 8.730469 89.25 5.625 C 89.25 2.519531 86.730469 0 83.625 0 L 57 0 C 41.492188 0 28.875 12.617188 28.875 28.125 L 28.875 72.375 C 28.875 81.566406 33.308594 89.738281 40.144531 94.875 C 33.308594 100.011719 28.875 108.183594 28.875 117.375 L 28.875 161.625 C 28.875 170.816406 33.308594 178.988281 40.144531 184.125 C 33.308594 189.261719 28.875 197.433594 28.875 206.625 L 28.875 250.875 C 28.875 266.382812 41.492188 279 57 279 L 171 279 L 171 317.007812 C 164.625 320.453125 159.421875 325.785156 156.125 332.25 L 41.625 332.25 C 34.386719 332.25 28.5 338.140625 28.5 345.375 L 28.5 352.875 C 28.5 360.113281 34.386719 366 41.625 366 L 156.933594 366 C 163.078125 376.742188 174.640625 384 187.875 384 C 201.109375 384 212.671875 376.742188 218.816406 366 L 342.375 366 C 349.613281 366 355.5 360.113281 355.5 352.875 L 355.5 345.375 C 355.5 338.140625 349.613281 332.25 342.375 332.25 Z M 182.25 279 L 193.5 279 L 193.5 313.199219 C 189.851562 312.605469 185.898438 312.605469 182.25 313.199219 Z M 41.625 354.75 C 40.589844 354.75 39.75 353.910156 39.75 352.875 L 39.75 345.375 C 39.75 344.339844 40.589844 343.5 41.625 343.5 L 152.59375 343.5 C 152.066406 347.175781 152.15625 351.125 152.832031 354.75 Z M 187.875 372.75 C 174.433594 372.75 163.5 361.816406 163.5 348.375 C 163.5 334.933594 174.433594 324 187.875 324 C 201.316406 324 212.25 334.933594 212.25 348.375 C 212.25 361.816406 201.316406 372.75 187.875 372.75 Z M 187.875 372.75 " fill-opacity="1" fill-rule="nonzero"/><path fill="#fbb040" d="M 329.625 49.875 C 329.625 36.433594 318.691406 25.5 305.25 25.5 C 291.808594 25.5 280.875 36.433594 280.875 49.875 C 280.875 63.316406 291.808594 74.25 305.25 74.25 C 318.691406 74.25 329.625 63.316406 329.625 49.875 Z M 292.125 49.875 C 292.125 42.636719 298.011719 36.75 305.25 36.75 C 312.488281 36.75 318.375 42.636719 318.375 49.875 C 318.375 57.113281 312.488281 63 305.25 63 C 298.011719 63 292.125 57.113281 292.125 49.875 Z M 292.125 49.875 " fill-opacity="1" fill-rule="nonzero"/><path fill="#fbb040" d="M 265.875 49.875 C 265.875 36.433594 254.941406 25.5 241.5 25.5 C 228.058594 25.5 217.125 36.433594 217.125 49.875 C 217.125 63.316406 228.058594 74.25 241.5 74.25 C 254.941406 74.25 265.875 63.316406 265.875 49.875 Z M 228.375 49.875 C 228.375 42.636719 234.261719 36.75 241.5 36.75 C 248.738281 36.75 254.625 42.636719 254.625 49.875 C 254.625 57.113281 248.738281 63 241.5 63 C 234.261719 63 228.375 57.113281 228.375 49.875 Z M 228.375 49.875 " fill-opacity="1" fill-rule="nonzero"/><path fill="#fbb040" d="M 329.625 139.125 C 329.625 125.683594 318.691406 114.75 305.25 114.75 C 291.808594 114.75 280.875 125.683594 280.875 139.125 C 280.875 152.566406 291.808594 163.5 305.25 163.5 C 318.691406 163.5 329.625 152.566406 329.625 139.125 Z M 292.125 139.125 C 292.125 131.886719 298.011719 126 305.25 126 C 312.488281 126 318.375 131.886719 318.375 139.125 C 318.375 146.363281 312.488281 152.25 305.25 152.25 C 298.011719 152.25 292.125 146.363281 292.125 139.125 Z M 292.125 139.125 " fill-opacity="1" fill-rule="nonzero"/><path fill="#fbb040" d="M 305.25 204 C 291.808594 204 280.875 214.933594 280.875 228.375 C 280.875 241.816406 291.808594 252.75 305.25 252.75 C 318.691406 252.75 329.625 241.816406 329.625 228.375 C 329.625 214.933594 318.691406 204 305.25 204 Z M 305.25 241.5 C 298.011719 241.5 292.125 235.613281 292.125 228.375 C 292.125 221.136719 298.011719 215.25 305.25 215.25 C 312.488281 215.25 318.375 221.136719 318.375 228.375 C 318.375 235.613281 312.488281 241.5 305.25 241.5 Z M 305.25 241.5 " fill-opacity="1" fill-rule="nonzero"/><path fill="#fbb040" d="M 55.125 37.125 C 55.125 40.230469 57.644531 42.75 60.75 42.75 L 92.25 42.75 C 95.355469 42.75 97.875 40.230469 97.875 37.125 C 97.875 34.019531 95.355469 31.5 92.25 31.5 L 60.75 31.5 C 57.644531 31.5 55.125 34.019531 55.125 37.125 Z M 55.125 37.125 " fill-opacity="1" fill-rule="nonzero"/><path fill="#fbb040" d="M 92.25 57.75 L 60.75 57.75 C 57.644531 57.75 55.125 60.269531 55.125 63.375 C 55.125 66.480469 57.644531 69 60.75 69 L 92.25 69 C 95.355469 69 97.875 66.480469 97.875 63.375 C 97.875 60.269531 95.355469 57.75 92.25 57.75 Z M 92.25 57.75 " fill-opacity="1" fill-rule="nonzero"/><path fill="#fbb040" d="M 118.5 42.75 L 151.5 42.75 C 154.605469 42.75 157.125 40.230469 157.125 37.125 C 157.125 34.019531 154.605469 31.5 151.5 31.5 L 118.5 31.5 C 115.394531 31.5 112.875 34.019531 112.875 37.125 C 112.875 40.230469 115.394531 42.75 118.5 42.75 Z M 118.5 42.75 " fill-opacity="1" fill-rule="nonzero"/><path fill="#fbb040" d="M 118.5 69 L 151.5 69 C 154.605469 69 157.125 66.480469 157.125 63.375 C 157.125 60.269531 154.605469 57.75 151.5 57.75 L 118.5 57.75 C 115.394531 57.75 112.875 60.269531 112.875 63.375 C 112.875 66.480469 115.394531 69 118.5 69 Z M 118.5 69 " fill-opacity="1" fill-rule="nonzero"/><path fill="#fbb040" d="M 265.875 139.125 C 265.875 125.683594 254.941406 114.75 241.5 114.75 C 228.058594 114.75 217.125 125.683594 217.125 139.125 C 217.125 152.566406 228.058594 163.5 241.5 163.5 C 254.941406 163.5 265.875 152.566406 265.875 139.125 Z M 228.375 139.125 C 228.375 131.886719 234.261719 126 241.5 126 C 248.738281 126 254.625 131.886719 254.625 139.125 C 254.625 146.363281 248.738281 152.25 241.5 152.25 C 234.261719 152.25 228.375 146.363281 228.375 139.125 Z M 228.375 139.125 " fill-opacity="1" fill-rule="nonzero"/><path fill="#fbb040" d="M 92.25 120.75 L 60.75 120.75 C 57.644531 120.75 55.125 123.269531 55.125 126.375 C 55.125 129.480469 57.644531 132 60.75 132 L 92.25 132 C 95.355469 132 97.875 129.480469 97.875 126.375 C 97.875 123.269531 95.355469 120.75 92.25 120.75 Z M 92.25 120.75 " fill-opacity="1" fill-rule="nonzero"/><path fill="#fbb040" d="M 92.25 147 L 60.75 147 C 57.644531 147 55.125 149.519531 55.125 152.625 C 55.125 155.730469 57.644531 158.25 60.75 158.25 L 92.25 158.25 C 95.355469 158.25 97.875 155.730469 97.875 152.625 C 97.875 149.519531 95.355469 147 92.25 147 Z M 92.25 147 " fill-opacity="1" fill-rule="nonzero"/><path fill="#fbb040" d="M 151.5 120.75 L 118.5 120.75 C 115.394531 120.75 112.875 123.269531 112.875 126.375 C 112.875 129.480469 115.394531 132 118.5 132 L 151.5 132 C 154.605469 132 157.125 129.480469 157.125 126.375 C 157.125 123.269531 154.605469 120.75 151.5 120.75 Z M 151.5 120.75 " fill-opacity="1" fill-rule="nonzero"/><path fill="#fbb040" d="M 151.5 147 L 118.5 147 C 115.394531 147 112.875 149.519531 112.875 152.625 C 112.875 155.730469 115.394531 158.25 118.5 158.25 L 151.5 158.25 C 154.605469 158.25 157.125 155.730469 157.125 152.625 C 157.125 149.519531 154.605469 147 151.5 147 Z M 151.5 147 " fill-opacity="1" fill-rule="nonzero"/><path fill="#fbb040" d="M 217.125 228.375 C 217.125 241.816406 228.058594 252.75 241.5 252.75 C 254.941406 252.75 265.875 241.816406 265.875 228.375 C 265.875 214.933594 254.941406 204 241.5 204 C 228.058594 204 217.125 214.933594 217.125 228.375 Z M 254.625 228.375 C 254.625 235.613281 248.738281 241.5 241.5 241.5 C 234.261719 241.5 228.375 235.613281 228.375 228.375 C 228.375 221.136719 234.261719 215.25 241.5 215.25 C 248.738281 215.25 254.625 221.136719 254.625 228.375 Z M 254.625 228.375 " fill-opacity="1" fill-rule="nonzero"/><path fill="#fbb040" d="M 92.25 210 L 60.75 210 C 57.644531 210 55.125 212.519531 55.125 215.625 C 55.125 218.730469 57.644531 221.25 60.75 221.25 L 92.25 221.25 C 95.355469 221.25 97.875 218.730469 97.875 215.625 C 97.875 212.519531 95.355469 210 92.25 210 Z M 92.25 210 " fill-opacity="1" fill-rule="nonzero"/><path fill="#fbb040" d="M 92.25 236.25 L 60.75 236.25 C 57.644531 236.25 55.125 238.769531 55.125 241.875 C 55.125 244.980469 57.644531 247.5 60.75 247.5 L 92.25 247.5 C 95.355469 247.5 97.875 244.980469 97.875 241.875 C 97.875 238.769531 95.355469 236.25 92.25 236.25 Z M 92.25 236.25 " fill-opacity="1" fill-rule="nonzero"/><path fill="#fbb040" d="M 151.5 210 L 118.5 210 C 115.394531 210 112.875 212.519531 112.875 215.625 C 112.875 218.730469 115.394531 221.25 118.5 221.25 L 151.5 221.25 C 154.605469 221.25 157.125 218.730469 157.125 215.625 C 157.125 212.519531 154.605469 210 151.5 210 Z M 151.5 210 " fill-opacity="1" fill-rule="nonzero"/><path fill="#fbb040" d="M 151.5 236.25 L 118.5 236.25 C 115.394531 236.25 112.875 238.769531 112.875 241.875 C 112.875 244.980469 115.394531 247.5 118.5 247.5 L 151.5 247.5 C 154.605469 247.5 157.125 244.980469 157.125 241.875 C 157.125 238.769531 154.605469 236.25 151.5 236.25 Z M 151.5 236.25 " fill-opacity="1" fill-rule="nonzero"/></svg>