<svg xmlns="http://www.w3.org/2000/svg" xmlns:xlink="http://www.w3.org/1999/xlink" width="496" zoomAndPan="magnify" viewBox="0 0 372 371.999986" height="496" preserveAspectRatio="xMidYMid meet" version="1.0"><path fill="#fbb040" d="M 372 156 L 358.515625 156 L 338.421875 166.574219 C 336.160156 165.324219 333.808594 164.265625 331.269531 163.632812 L 305.992188 157.304688 L 305.992188 154.433594 C 317.175781 146.628906 324 133.734375 324 120 L 324 109.511719 C 324 86.203125 305.734375 66.695312 283.289062 66.015625 C 282.148438 65.988281 281.027344 66.027344 279.898438 66.085938 L 286.453125 50.742188 L 254.679688 18.976562 L 235.949219 31.167969 C 228.835938 27.160156 221.308594 24.039062 213.492188 21.851562 L 208.867188 0 L 163.140625 0 L 158.511719 21.859375 C 150.695312 24.046875 143.164062 27.167969 136.054688 31.175781 L 117.324219 18.984375 L 85.578125 50.730469 L 92.023438 66.085938 C 91.777344 66.074219 91.542969 66.027344 91.296875 66.023438 C 79.804688 65.6875 68.984375 69.882812 60.761719 77.863281 C 52.53125 85.835938 48 96.539062 48 108 L 48 120 C 48 133.734375 54.816406 146.621094 66 154.425781 L 66 157.304688 L 49.511719 161.429688 L 19.625 144 L 0 144 L 0 268.328125 L 59.027344 288 L 70.523438 288 L 71.960938 282.972656 L 90.054688 293.832031 C 90.347656 303.671875 98.238281 311.585938 108.066406 311.933594 C 108.414062 321.71875 116.277344 329.585938 126.066406 329.933594 C 126.414062 339.71875 134.277344 347.585938 144.066406 347.933594 C 144.425781 357.949219 152.628906 366 162.726562 366 C 166.476562 366 170.152344 364.832031 173.242188 362.746094 L 178.558594 367.441406 C 181.890625 370.375 186.179688 372 190.632812 372 L 191.742188 372 C 201.726562 372 209.851562 363.929688 209.976562 353.976562 C 219.851562 353.851562 227.851562 345.851562 227.976562 335.976562 C 237.859375 335.851562 245.863281 327.839844 245.976562 317.957031 C 255.949219 317.722656 264 309.578125 264 299.546875 C 264 298.945312 263.96875 298.351562 263.910156 297.75 L 372 243.707031 Z M 312 109.511719 L 312 120 C 312 130.648438 306.246094 140.597656 296.980469 145.960938 L 293.980469 147.695312 L 294.003906 166.683594 L 323.980469 174.171875 L 258 208.902344 L 258 192.738281 C 258 184.671875 254.742188 177.285156 249.40625 171.828125 L 270 166.683594 L 270 147.683594 L 267.003906 145.949219 C 257.746094 140.597656 252 130.648438 252 120 L 252 108 C 252 99.816406 255.234375 92.164062 261.113281 86.464844 C 266.988281 80.769531 274.78125 77.699219 282.929688 78.015625 C 298.957031 78.496094 312 92.628906 312 109.511719 Z M 195.046875 204.183594 L 167.886719 195.503906 C 155.507812 191.535156 142.109375 190.945312 129.4375 193.75 L 126 194.511719 L 126 192.738281 C 126 184.464844 131.609375 177.28125 139.632812 175.269531 L 174 166.683594 L 174 147.683594 L 171.003906 145.949219 C 161.746094 140.597656 156 130.648438 156 120 L 156 108 C 156 99.816406 159.234375 92.164062 165.113281 86.464844 C 170.988281 80.769531 178.832031 77.699219 186.929688 78.015625 C 202.957031 78.496094 216 92.628906 216 109.511719 L 216 120 C 216 130.648438 210.246094 140.597656 200.980469 145.960938 L 197.980469 147.695312 L 198.003906 166.683594 L 232.367188 175.269531 C 240.390625 177.28125 246 184.464844 246 192.738281 L 246 215.21875 L 244.515625 216 L 240.839844 216 L 203.953125 205.457031 C 201.046875 204.636719 198.050781 204.296875 195.046875 204.183594 Z M 127.34375 89.800781 C 138.613281 67.96875 161.289062 54 186 54 C 210.472656 54 233.054688 67.78125 244.410156 89.316406 C 241.550781 95.042969 240 101.386719 240 108 L 240 120 C 240 133.734375 246.816406 146.621094 258 154.425781 L 258 157.304688 L 234 163.316406 L 209.992188 157.304688 L 209.992188 154.433594 C 221.175781 146.628906 228 133.734375 228 120 L 228 109.511719 C 228 86.203125 209.734375 66.695312 187.289062 66.015625 C 175.804688 65.679688 164.976562 69.875 156.753906 77.855469 C 148.527344 85.835938 144 96.539062 144 108 L 144 120 C 144 133.734375 150.816406 146.621094 162 154.425781 L 162 157.304688 L 138 163.316406 L 113.992188 157.304688 L 113.992188 154.433594 C 125.175781 146.628906 132 133.734375 132 120 L 132 109.511719 C 132 102.449219 130.300781 95.746094 127.34375 89.800781 Z M 99.75 53.511719 L 118.917969 34.34375 L 135.789062 45.324219 L 139.019531 43.34375 C 147.109375 38.386719 155.851562 34.757812 165 32.570312 L 168.691406 31.683594 L 172.867188 12 L 199.140625 12 L 203.300781 31.679688 L 206.992188 32.558594 C 216.144531 34.75 224.886719 38.382812 232.972656 43.339844 L 236.203125 45.320312 L 253.074219 34.339844 L 272.21875 53.488281 L 265.414062 69.425781 C 260.78125 71.417969 256.488281 74.21875 252.75 77.84375 C 252.503906 78.085938 252.292969 78.34375 252.050781 78.589844 C 237.917969 56.117188 212.925781 42 186 42 C 158.878906 42 133.820312 56.25 119.71875 78.949219 C 115.945312 75 111.457031 71.800781 106.480469 69.566406 Z M 78 166.683594 L 78 147.683594 L 75.007812 145.949219 C 65.75 140.597656 60 130.648438 60 120 L 60 108 C 60 99.816406 63.234375 92.164062 69.113281 86.464844 C 74.988281 80.769531 82.800781 77.699219 90.929688 78.015625 C 106.957031 78.496094 120 92.628906 120 109.511719 L 120 120 C 120 130.648438 114.246094 140.597656 104.980469 145.960938 L 101.980469 147.695312 L 102.003906 166.683594 L 122.59375 171.828125 C 117.257812 177.285156 114 184.671875 114 192.738281 L 114 197.183594 L 95.285156 201.34375 L 95.769531 199.644531 L 96 188.554688 L 64.355469 170.09375 Z M 12 156 L 16.375 156 L 59.527344 181.167969 L 37.753906 268.257812 L 12 259.671875 Z M 60.972656 276 L 49.164062 272.066406 L 70.316406 187.464844 L 84 195.445312 L 84 197.160156 L 61.476562 276 Z M 102 293.273438 C 102 291.503906 102.714844 289.769531 103.96875 288.515625 L 114.515625 277.96875 C 115.769531 276.714844 117.503906 276 119.273438 276 C 122.980469 276 126 279.015625 126 282.726562 C 126 284.496094 125.285156 286.230469 124.03125 287.484375 L 113.484375 298.03125 C 112.230469 299.285156 110.496094 300 108.726562 300 C 105.015625 300 102 296.980469 102 293.273438 Z M 120 311.273438 C 120 309.503906 120.714844 307.769531 121.96875 306.515625 L 132.515625 295.96875 C 133.769531 294.714844 135.503906 294 137.273438 294 C 140.980469 294 144 297.015625 144 300.726562 C 144 302.496094 143.285156 304.230469 142.03125 305.484375 L 131.484375 316.03125 C 130.230469 317.285156 128.496094 318 126.726562 318 C 123.015625 318 120 314.980469 120 311.273438 Z M 138 329.273438 C 138 327.503906 138.714844 325.769531 139.96875 324.515625 L 150.515625 313.96875 C 151.769531 312.714844 153.503906 312 155.273438 312 C 158.980469 312 162 315.015625 162 318.726562 C 162 320.496094 161.285156 322.230469 160.03125 323.484375 L 149.484375 334.03125 C 148.230469 335.285156 146.496094 336 144.726562 336 C 141.015625 336 138 332.980469 138 329.273438 Z M 162.726562 354 C 159.015625 354 156 350.980469 156 347.273438 C 156 345.503906 156.714844 343.769531 157.96875 342.515625 L 168.515625 331.96875 C 169.769531 330.714844 171.503906 330 173.273438 330 C 176.980469 330 180 333.015625 180 336.726562 C 180 338.496094 179.285156 340.230469 178.03125 341.484375 L 167.484375 352.03125 C 166.230469 353.285156 164.496094 354 162.726562 354 Z M 191.742188 360 L 190.632812 360 C 189.101562 360 187.636719 359.441406 186.496094 358.433594 L 182.007812 354.472656 L 186.515625 349.96875 C 188.125 348.359375 189.371094 346.445312 190.292969 344.394531 L 195.75 348.933594 C 197.175781 350.125 198 351.875 198 353.742188 C 198 357.191406 195.191406 360 191.742188 360 Z M 245.546875 306 L 244.511719 306 C 243.003906 306 241.535156 305.464844 240.382812 304.5 L 207.847656 277.386719 L 200.160156 286.609375 L 231.753906 312.933594 C 233.175781 314.125 234 315.875 234 317.742188 C 234 321.191406 231.191406 324 227.742188 324 L 226.433594 324 C 224.976562 324 223.550781 323.484375 222.429688 322.546875 L 189.839844 295.390625 L 182.152344 304.613281 L 213.75 330.941406 C 215.175781 332.125 216 333.875 216 335.742188 C 216 339.191406 213.191406 342 209.742188 342 C 207.4375 342 205.195312 341.183594 203.429688 339.714844 L 190.035156 328.550781 C 187.085938 322.523438 181.023438 318.320312 173.925781 318.066406 C 173.582031 308.277344 165.714844 300.414062 155.925781 300.066406 C 155.582031 290.277344 147.714844 282.414062 137.925781 282.066406 C 137.574219 272.050781 129.371094 264 119.273438 264 C 114.34375 264 109.515625 265.996094 106.03125 269.484375 L 95.484375 280.03125 C 94.855469 280.660156 94.332031 281.375 93.800781 282.085938 L 75.371094 271.023438 L 91.53125 214.476562 L 132.035156 205.46875 C 142.660156 203.09375 153.863281 203.609375 164.226562 206.925781 L 173.066406 209.753906 L 143.101562 224.734375 C 136.253906 228.167969 132 235.054688 132 242.710938 L 132 243.898438 C 132 254.980469 141.015625 264 152.101562 264 C 155.742188 264 159.324219 263.007812 162.4375 261.132812 L 184.78125 247.734375 C 189.269531 245.042969 195.292969 245.632812 199.167969 249.121094 L 249.863281 294.742188 C 251.21875 295.972656 252 297.71875 252 299.546875 C 252 303.109375 249.109375 306 245.546875 306 Z M 360 236.289062 L 258.917969 286.835938 C 258.589844 286.488281 258.246094 286.15625 257.886719 285.835938 L 207.199219 240.210938 C 202.757812 236.203125 197.015625 234 191.03125 234 C 186.660156 234 182.363281 235.1875 178.601562 237.445312 L 156.25 250.847656 C 154.996094 251.605469 153.566406 252 152.101562 252 C 147.628906 252 144 248.371094 144 243.898438 L 144 242.710938 C 144 239.621094 145.714844 236.851562 148.476562 235.46875 L 181.945312 218.734375 C 187.671875 215.867188 194.472656 215.226562 200.644531 217 L 238.351562 227.769531 L 247.480469 228 L 360 168.777344 Z M 360 236.289062 " fill-opacity="1" fill-rule="nonzero"/></svg>