<svg xmlns="http://www.w3.org/2000/svg" xmlns:xlink="http://www.w3.org/1999/xlink" width="512" zoomAndPan="magnify" viewBox="0 0 384 383.999986" height="512" preserveAspectRatio="xMidYMid meet" version="1.0"><path fill="#fbb040" d="M 359.625 58.875 L 134.214844 58.875 C 131.757812 50.230469 123.796875 43.875 114.375 43.875 L 50.625 43.875 C 41.203125 43.875 33.242188 50.230469 30.785156 58.875 L 24.375 58.875 C 10.933594 58.875 0 69.808594 0 83.25 L 0 109.546875 C 0 112.65625 2.519531 115.171875 5.625 115.171875 C 8.730469 115.171875 11.25 112.65625 11.25 109.546875 L 11.25 83.25 C 11.25 76.011719 17.136719 70.125 24.375 70.125 L 30 70.125 L 30 313.875 L 24.375 313.875 C 17.136719 313.875 11.25 307.988281 11.25 300.75 L 11.25 136.011719 C 11.25 132.90625 8.730469 130.386719 5.625 130.386719 C 2.519531 130.386719 0 132.90625 0 136.011719 L 0 300.75 C 0 314.191406 10.933594 325.125 24.375 325.125 L 30.785156 325.125 C 33.242188 333.769531 41.203125 340.125 50.625 340.125 L 114.375 340.125 C 123.796875 340.125 131.757812 333.769531 134.214844 325.125 L 359.625 325.125 C 373.066406 325.125 384 314.191406 384 300.75 L 384 83.25 C 384 69.808594 373.066406 58.875 359.625 58.875 Z M 372.75 300.75 C 372.75 307.988281 366.863281 313.875 359.625 313.875 L 320.25 313.875 L 320.25 203.664062 C 320.25 200.558594 317.730469 198.039062 314.625 198.039062 C 311.519531 198.039062 309 200.558594 309 203.664062 L 309 313.875 L 135 313.875 L 135 293.570312 C 135 290.460938 132.480469 287.945312 129.375 287.945312 C 126.269531 287.945312 123.75 290.460938 123.75 293.570312 L 123.75 319.5 C 123.75 324.667969 119.542969 328.875 114.375 328.875 L 50.625 328.875 C 45.953125 328.960938 41.101562 324.46875 41.25 319.160156 L 41.25 64.5 C 41.25 59.332031 45.457031 55.125 50.625 55.125 L 114.375 55.125 C 119.542969 55.125 123.75 59.332031 123.75 64.5 L 123.75 267.144531 C 123.75 270.25 126.269531 272.769531 129.375 272.769531 C 132.480469 272.769531 135 270.25 135 267.144531 L 135 70.125 L 309 70.125 L 309 177.429688 C 309 180.539062 311.519531 183.054688 314.625 183.054688 C 317.730469 183.054688 320.25 180.539062 320.25 177.429688 L 320.25 70.125 L 359.625 70.125 C 366.863281 70.125 372.75 76.011719 372.75 83.25 Z M 372.75 300.75 " fill-opacity="1" fill-rule="nonzero"/><path fill="#fbb040" d="M 277.125 85.386719 L 251.410156 85.386719 C 248.300781 85.386719 245.785156 87.90625 245.785156 91.011719 C 245.785156 94.121094 248.300781 96.636719 251.410156 96.636719 L 277.125 96.636719 C 278.160156 96.636719 279 97.480469 279 98.511719 L 279 128.148438 L 166.5 128.148438 L 166.5 98.511719 C 166.5 97.480469 167.339844 96.636719 168.375 96.636719 L 224.984375 96.636719 C 228.089844 96.636719 230.609375 94.121094 230.609375 91.011719 C 230.609375 87.90625 228.089844 85.386719 224.984375 85.386719 L 168.375 85.386719 C 161.136719 85.386719 155.25 91.277344 155.25 98.511719 L 155.25 148.773438 C 155.25 156.007812 161.136719 161.898438 168.375 161.898438 L 277.125 161.898438 C 284.363281 161.898438 290.25 156.007812 290.25 148.773438 L 290.25 98.511719 C 290.25 91.277344 284.363281 85.386719 277.125 85.386719 Z M 277.125 150.644531 L 168.375 150.644531 C 167.339844 150.644531 166.5 149.804688 166.5 148.769531 L 166.5 139.394531 L 279 139.394531 L 279 148.769531 C 279 149.804688 278.160156 150.644531 277.125 150.644531 Z M 277.125 150.644531 " fill-opacity="1" fill-rule="nonzero"/><path fill="#fbb040" d="M 184.875 173.144531 L 163.125 173.144531 C 158.78125 173.144531 155.25 176.679688 155.25 181.019531 L 155.25 199.019531 C 155.25 203.363281 158.78125 206.894531 163.125 206.894531 L 184.875 206.894531 C 189.21875 206.894531 192.75 203.363281 192.75 199.019531 L 192.75 181.019531 C 192.75 176.679688 189.21875 173.144531 184.875 173.144531 Z M 181.5 195.644531 L 166.5 195.644531 L 166.5 184.394531 L 181.5 184.394531 Z M 181.5 195.644531 " fill-opacity="1" fill-rule="nonzero"/><path fill="#fbb040" d="M 184.875 218.144531 L 163.125 218.144531 C 158.78125 218.144531 155.25 221.679688 155.25 226.019531 L 155.25 244.019531 C 155.25 248.363281 158.78125 251.894531 163.125 251.894531 L 184.875 251.894531 C 189.21875 251.894531 192.75 248.363281 192.75 244.019531 L 192.75 226.019531 C 192.75 221.679688 189.21875 218.144531 184.875 218.144531 Z M 181.5 240.644531 L 166.5 240.644531 L 166.5 229.394531 L 181.5 229.394531 Z M 181.5 240.644531 " fill-opacity="1" fill-rule="nonzero"/><path fill="#fbb040" d="M 184.875 263.144531 L 163.125 263.144531 C 158.78125 263.144531 155.25 266.679688 155.25 271.019531 L 155.25 289.019531 C 155.25 293.363281 158.78125 296.894531 163.125 296.894531 L 184.875 296.894531 C 189.21875 296.894531 192.75 293.363281 192.75 289.019531 L 192.75 271.019531 C 192.75 266.679688 189.21875 263.144531 184.875 263.144531 Z M 181.5 285.644531 L 166.5 285.644531 L 166.5 274.394531 L 181.5 274.394531 Z M 181.5 285.644531 " fill-opacity="1" fill-rule="nonzero"/><path fill="#fbb040" d="M 233.625 173.144531 L 211.875 173.144531 C 207.53125 173.144531 204 176.679688 204 181.019531 L 204 199.019531 C 204 203.363281 207.53125 206.894531 211.875 206.894531 L 233.625 206.894531 C 237.96875 206.894531 241.5 203.363281 241.5 199.019531 L 241.5 181.019531 C 241.5 176.679688 237.96875 173.144531 233.625 173.144531 Z M 230.25 195.644531 L 215.25 195.644531 L 215.25 184.394531 L 230.25 184.394531 Z M 230.25 195.644531 " fill-opacity="1" fill-rule="nonzero"/><path fill="#fbb040" d="M 233.625 218.144531 L 211.875 218.144531 C 207.53125 218.144531 204 221.679688 204 226.019531 L 204 244.019531 C 204 248.363281 207.53125 251.894531 211.875 251.894531 L 233.625 251.894531 C 237.96875 251.894531 241.5 248.363281 241.5 244.019531 L 241.5 226.019531 C 241.5 221.679688 237.96875 218.144531 233.625 218.144531 Z M 230.25 240.644531 L 215.25 240.644531 L 215.25 229.394531 L 230.25 229.394531 Z M 230.25 240.644531 " fill-opacity="1" fill-rule="nonzero"/><path fill="#fbb040" d="M 233.625 263.144531 L 211.875 263.144531 C 207.53125 263.144531 204 266.679688 204 271.019531 L 204 289.019531 C 204 293.363281 207.53125 296.894531 211.875 296.894531 L 233.625 296.894531 C 237.96875 296.894531 241.5 293.363281 241.5 289.019531 L 241.5 271.019531 C 241.5 266.679688 237.96875 263.144531 233.625 263.144531 Z M 230.25 285.644531 L 215.25 285.644531 L 215.25 274.394531 L 230.25 274.394531 Z M 230.25 285.644531 " fill-opacity="1" fill-rule="nonzero"/><path fill="#fbb040" d="M 282.375 173.144531 L 260.625 173.144531 C 256.28125 173.144531 252.75 176.679688 252.75 181.019531 L 252.75 199.019531 C 252.75 203.363281 256.28125 206.894531 260.625 206.894531 L 282.375 206.894531 C 286.71875 206.894531 290.25 203.363281 290.25 199.019531 L 290.25 181.019531 C 290.25 176.679688 286.71875 173.144531 282.375 173.144531 Z M 279 195.644531 L 264 195.644531 L 264 184.394531 L 279 184.394531 Z M 279 195.644531 " fill-opacity="1" fill-rule="nonzero"/><path fill="#fbb040" d="M 282.375 218.144531 L 260.625 218.144531 C 256.28125 218.144531 252.75 221.679688 252.75 226.019531 L 252.75 244.019531 C 252.75 248.363281 256.28125 251.894531 260.625 251.894531 L 282.375 251.894531 C 286.71875 251.894531 290.25 248.363281 290.25 244.019531 L 290.25 226.019531 C 290.25 221.679688 286.71875 218.144531 282.375 218.144531 Z M 279 240.644531 L 264 240.644531 L 264 229.394531 L 279 229.394531 Z M 279 240.644531 " fill-opacity="1" fill-rule="nonzero"/><path fill="#fbb040" d="M 282.375 263.144531 L 260.625 263.144531 C 256.28125 263.144531 252.75 266.679688 252.75 271.019531 L 252.75 289.019531 C 252.75 293.363281 256.28125 296.894531 260.625 296.894531 L 282.375 296.894531 C 286.71875 296.894531 290.25 293.363281 290.25 289.019531 L 290.25 271.019531 C 290.25 266.679688 286.71875 263.144531 282.375 263.144531 Z M 279 285.644531 L 264 285.644531 L 264 274.394531 L 279 274.394531 Z M 279 285.644531 " fill-opacity="1" fill-rule="nonzero"/><path fill="#fbb040" d="M 352.269531 111.375 L 341.019531 111.375 C 337.910156 111.375 335.394531 113.894531 335.394531 117 C 335.394531 120.105469 337.910156 122.625 341.019531 122.625 L 352.269531 122.625 C 355.375 122.625 357.894531 120.105469 357.894531 117 C 357.894531 113.894531 355.375 111.375 352.269531 111.375 Z M 352.269531 111.375 " fill-opacity="1" fill-rule="nonzero"/><path fill="#fbb040" d="M 352.269531 148.875 L 341.019531 148.875 C 337.910156 148.875 335.394531 151.394531 335.394531 154.5 C 335.394531 157.605469 337.910156 160.125 341.019531 160.125 L 352.269531 160.125 C 355.375 160.125 357.894531 157.605469 357.894531 154.5 C 357.894531 151.394531 355.375 148.875 352.269531 148.875 Z M 352.269531 148.875 " fill-opacity="1" fill-rule="nonzero"/><path fill="#fbb040" d="M 352.269531 223.875 L 341.019531 223.875 C 337.910156 223.875 335.394531 226.394531 335.394531 229.5 C 335.394531 232.605469 337.910156 235.125 341.019531 235.125 L 352.269531 235.125 C 355.375 235.125 357.894531 232.605469 357.894531 229.5 C 357.894531 226.394531 355.375 223.875 352.269531 223.875 Z M 352.269531 223.875 " fill-opacity="1" fill-rule="nonzero"/><path fill="#fbb040" d="M 352.269531 261.375 L 341.019531 261.375 C 337.910156 261.375 335.394531 263.894531 335.394531 267 C 335.394531 270.105469 337.910156 272.625 341.019531 272.625 L 352.269531 272.625 C 355.375 272.625 357.894531 270.105469 357.894531 267 C 357.894531 263.894531 355.375 261.375 352.269531 261.375 Z M 352.269531 261.375 " fill-opacity="1" fill-rule="nonzero"/><path fill="#fbb040" d="M 352.269531 186.375 L 341.019531 186.375 C 337.910156 186.375 335.394531 188.894531 335.394531 192 C 335.394531 195.105469 337.910156 197.625 341.019531 197.625 L 352.269531 197.625 C 355.375 197.625 357.894531 195.105469 357.894531 192 C 357.894531 188.894531 355.375 186.375 352.269531 186.375 Z M 352.269531 186.375 " fill-opacity="1" fill-rule="nonzero"/></svg>