<svg xmlns="http://www.w3.org/2000/svg" xmlns:xlink="http://www.w3.org/1999/xlink" width="512" zoomAndPan="magnify" viewBox="0 0 384 383.999986" height="512" preserveAspectRatio="xMidYMid meet" version="1.0"><path fill="#fbb040" d="M 310.125 313.875 L 310.125 143.625 C 310.125 138.457031 305.917969 134.25 300.75 134.25 L 83.25 134.25 C 78.082031 134.25 73.875 138.457031 73.875 143.625 L 73.875 313.875 C 73.875 319.042969 78.082031 323.25 83.25 323.25 L 300.75 323.25 C 305.917969 323.25 310.125 319.042969 310.125 313.875 Z M 220.21875 272.625 C 217.113281 272.625 214.59375 275.144531 214.59375 278.25 L 214.59375 312 L 197.625 312 L 197.625 145.5 L 214.59375 145.5 L 214.59375 252 C 214.59375 255.105469 217.113281 257.625 220.21875 257.625 C 223.324219 257.625 225.84375 255.105469 225.84375 252 L 225.84375 145.5 L 242.8125 145.5 L 242.8125 312 L 225.84375 312 L 225.84375 278.25 C 225.84375 275.144531 223.324219 272.625 220.21875 272.625 Z M 141.1875 145.5 L 158.15625 145.5 L 158.15625 312 L 141.1875 312 Z M 129.9375 312 L 112.96875 312 L 112.96875 145.5 L 129.9375 145.5 Z M 169.40625 145.5 L 186.375 145.5 L 186.375 312 L 169.40625 312 Z M 254.0625 145.5 L 271.03125 145.5 L 271.03125 312 L 254.0625 312 Z M 85.125 145.5 L 101.71875 145.5 L 101.71875 312 L 85.125 312 Z M 298.875 312 L 282.28125 312 L 282.28125 145.5 L 298.875 145.5 Z M 298.875 312 " fill-opacity="1" fill-rule="nonzero"/><path fill="#fbb040" d="M 370.875 134.25 L 332.625 134.25 L 332.625 132.375 C 332.625 121.003906 323.371094 111.75 312 111.75 L 282 111.75 L 282 95.25 C 284.621094 95.265625 288.453125 93.800781 290.597656 90.5625 C 292.46875 87.628906 292.707031 83.996094 291.234375 80.84375 L 286.886719 71.527344 C 288.371094 70.722656 289.65625 69.546875 290.597656 68.0625 C 292.46875 65.128906 292.707031 61.496094 291.234375 58.34375 L 286.886719 49.027344 C 288.371094 48.222656 289.65625 47.046875 290.597656 45.5625 C 292.46875 42.628906 292.707031 38.996094 291.234375 35.84375 L 285.742188 24.074219 C 283.59375 19.472656 278.925781 16.5 273.847656 16.5 L 268.5 16.5 L 268.5 5.625 C 268.5 2.519531 265.980469 0 262.875 0 C 259.769531 0 257.25 2.519531 257.25 5.625 L 257.25 16.5 L 251.902344 16.5 C 246.824219 16.5 242.15625 19.472656 240.007812 24.074219 L 234.515625 35.84375 C 233.046875 38.996094 233.28125 42.628906 235.152344 45.5625 C 236.09375 47.046875 237.378906 48.222656 238.863281 49.027344 L 234.515625 58.34375 C 233.046875 61.496094 233.28125 65.128906 235.152344 68.0625 C 236.09375 69.546875 237.378906 70.722656 238.863281 71.527344 L 234.515625 80.84375 C 233.046875 83.996094 233.28125 87.628906 235.152344 90.5625 C 236.542969 92.753906 239.890625 95.21875 243.75 95.25 L 243.75 111.75 L 210.75 111.75 L 210.75 95.25 C 213.371094 95.265625 217.203125 93.800781 219.347656 90.5625 C 221.21875 87.628906 221.457031 83.996094 219.984375 80.84375 L 215.636719 71.527344 C 217.121094 70.722656 218.40625 69.546875 219.347656 68.0625 C 221.21875 65.128906 221.457031 61.496094 219.984375 58.34375 L 215.636719 49.027344 C 217.121094 48.222656 218.40625 47.046875 219.347656 45.5625 C 221.21875 42.628906 221.457031 38.996094 219.984375 35.84375 L 214.492188 24.074219 C 212.34375 19.472656 207.675781 16.5 202.597656 16.5 L 197.25 16.5 L 197.25 5.625 C 197.25 2.519531 194.730469 0 191.625 0 C 188.519531 0 186 2.519531 186 5.625 L 186 16.5 L 180.652344 16.5 C 175.574219 16.5 170.90625 19.472656 168.757812 24.074219 L 163.265625 35.84375 C 161.796875 38.996094 162.03125 42.628906 163.902344 45.5625 C 164.84375 47.046875 166.128906 48.222656 167.613281 49.027344 L 163.265625 58.34375 C 161.796875 61.496094 162.03125 65.128906 163.902344 68.0625 C 164.84375 69.546875 166.128906 70.722656 167.613281 71.527344 L 163.265625 80.84375 C 161.796875 83.996094 162.03125 87.628906 163.902344 90.5625 C 165.292969 92.753906 168.640625 95.21875 172.5 95.25 L 172.5 111.75 L 140.25 111.75 L 140.25 95.25 L 140.308594 95.25 C 143.789062 95.25 146.980469 93.5 148.847656 90.5625 C 150.71875 87.628906 150.957031 83.996094 149.484375 80.84375 L 145.136719 71.527344 C 146.621094 70.722656 147.90625 69.546875 148.847656 68.0625 C 150.71875 65.128906 150.957031 61.496094 149.484375 58.34375 L 145.136719 49.027344 C 146.621094 48.222656 147.90625 47.046875 148.847656 45.5625 C 150.71875 42.628906 150.957031 38.996094 149.484375 35.84375 L 143.992188 24.074219 C 141.84375 19.472656 137.175781 16.5 132.097656 16.5 L 126.75 16.5 L 126.75 5.625 C 126.75 2.519531 124.230469 0 121.125 0 C 118.019531 0 115.5 2.519531 115.5 5.625 L 115.5 16.5 L 110.152344 16.5 C 105.074219 16.5 100.40625 19.472656 98.257812 24.074219 L 92.765625 35.84375 C 91.296875 38.996094 91.53125 42.628906 93.402344 45.5625 C 94.34375 47.046875 95.628906 48.222656 97.113281 49.027344 L 92.765625 58.34375 C 91.296875 61.496094 91.53125 65.128906 93.402344 68.0625 C 94.34375 69.546875 95.628906 70.722656 97.113281 71.527344 L 92.765625 80.84375 C 91.296875 83.996094 91.53125 87.628906 93.402344 90.5625 C 95.269531 93.5 98.464844 95.25 101.941406 95.25 L 102 95.25 L 102 111.75 L 72 111.75 C 60.625 111.75 51.375 121.003906 51.375 132.375 L 51.375 134.25 L 13.125 134.25 C 5.886719 134.25 0 140.136719 0 147.375 L 0 310.125 C 0 317.363281 5.886719 323.25 13.125 323.25 L 51.375 323.25 L 51.375 325.125 C 51.375 336.496094 60.625 345.75 72 345.75 L 72.75 345.75 L 72.75 374.625 C 72.75 379.792969 76.957031 384 82.125 384 L 104.625 384 C 109.792969 384 114 379.792969 114 374.625 L 114 369 L 132.75 369 L 132.75 374.625 C 132.75 379.792969 136.957031 384 142.125 384 L 199.5 384 C 202.605469 384 205.125 381.480469 205.125 378.375 C 205.125 375.269531 202.605469 372.75 199.5 372.75 L 144 372.75 L 144 367.125 C 144 361.957031 139.792969 357.75 134.625 357.75 L 112.125 357.75 C 106.957031 357.75 102.75 361.957031 102.75 367.125 L 102.75 372.75 L 84 372.75 L 84 345.75 L 119.25 345.75 C 122.355469 345.75 124.875 343.230469 124.875 340.125 C 124.875 337.019531 122.355469 334.5 119.25 334.5 L 72 334.5 C 66.832031 334.5 62.625 330.292969 62.625 325.125 L 62.625 213.75 C 62.625 210.644531 60.105469 208.125 57 208.125 C 53.894531 208.125 51.375 210.644531 51.375 213.75 L 51.375 285 L 11.25 285 L 11.25 147.375 C 11.25 146.339844 12.089844 145.5 13.125 145.5 L 51.375 145.5 L 51.375 187.5 C 51.375 190.605469 53.894531 193.125 57 193.125 C 60.105469 193.125 62.625 190.605469 62.625 187.5 L 62.625 132.375 C 62.625 127.207031 66.832031 123 72 123 L 312 123 C 317.167969 123 321.375 127.207031 321.375 132.375 L 321.375 325.125 C 321.375 330.292969 317.167969 334.5 312 334.5 L 145.5 334.5 C 142.394531 334.5 139.875 337.019531 139.875 340.125 C 139.875 343.230469 142.394531 345.75 145.5 345.75 L 300 345.75 L 300 372.75 L 280.5 372.75 L 280.5 367.125 C 280.5 361.957031 276.292969 357.75 271.125 357.75 L 248.625 357.75 C 243.457031 357.75 239.25 361.957031 239.25 367.125 L 239.25 372.75 L 225.75 372.75 C 222.644531 372.75 220.125 375.269531 220.125 378.375 C 220.125 381.480469 222.644531 384 225.75 384 L 241.125 384 C 246.292969 384 250.5 379.792969 250.5 374.625 L 250.5 369 L 269.25 369 L 269.25 374.625 C 269.25 379.792969 273.457031 384 278.625 384 L 301.875 384 C 307.042969 384 311.25 379.792969 311.25 374.625 L 311.25 345.75 L 312 345.75 C 323.371094 345.75 332.625 336.496094 332.625 325.125 L 332.625 323.25 L 370.875 323.25 C 378.113281 323.25 384 317.363281 384 310.125 L 384 147.375 C 384 140.136719 378.113281 134.25 370.875 134.25 Z M 51.375 296.25 L 51.375 312 L 13.125 312 C 12.089844 312 11.25 311.160156 11.25 310.125 L 11.25 296.25 Z M 250.707031 50.25 L 275.042969 50.25 L 280.292969 61.5 L 245.457031 61.5 Z M 245.457031 84 L 250.707031 72.75 L 275.042969 72.75 L 280.292969 84 Z M 250.203125 28.832031 C 250.507812 28.175781 251.175781 27.75 251.902344 27.75 L 273.847656 27.75 C 274.574219 27.75 275.242188 28.175781 275.546875 28.832031 L 280.292969 39 L 245.457031 39 Z M 255 95.25 L 270.75 95.25 L 270.75 111.75 L 255 111.75 Z M 179.457031 50.25 L 203.792969 50.25 L 209.042969 61.5 L 174.207031 61.5 Z M 174.207031 84 L 179.457031 72.75 L 203.792969 72.75 L 209.042969 84 Z M 178.953125 28.832031 C 179.257812 28.175781 179.925781 27.75 180.652344 27.75 L 202.597656 27.75 C 203.324219 27.75 203.992188 28.175781 204.296875 28.832031 L 209.042969 39 L 174.207031 39 Z M 183.75 95.25 L 199.5 95.25 L 199.5 111.75 L 183.75 111.75 Z M 108.957031 50.25 L 133.292969 50.25 L 138.542969 61.5 L 103.707031 61.5 Z M 103.707031 84 L 108.957031 72.75 L 133.292969 72.75 L 138.542969 84 Z M 108.453125 28.832031 C 108.757812 28.175781 109.425781 27.75 110.152344 27.75 L 132.097656 27.75 C 132.824219 27.75 133.492188 28.175781 133.796875 28.832031 L 138.542969 39 L 103.707031 39 Z M 113.25 95.25 L 129 95.25 L 129 111.75 L 113.25 111.75 Z M 370.875 145.5 C 371.910156 145.5 372.75 146.339844 372.75 147.375 L 372.75 285 L 332.625 285 L 332.625 145.5 Z M 370.875 312 L 332.625 312 L 332.625 296.25 L 372.75 296.25 L 372.75 310.125 C 372.75 311.160156 371.910156 312 370.875 312 Z M 370.875 312 " fill-opacity="1" fill-rule="nonzero"/><path fill="#fbb040" d="M 346.125 179.25 L 359.625 179.25 C 362.730469 179.25 365.25 176.730469 365.25 173.625 C 365.25 170.519531 362.730469 168 359.625 168 L 346.125 168 C 343.019531 168 340.5 170.519531 340.5 173.625 C 340.5 176.730469 343.019531 179.25 346.125 179.25 Z M 346.125 179.25 " fill-opacity="1" fill-rule="nonzero"/><path fill="#fbb040" d="M 359.625 190.5 L 346.125 190.5 C 343.019531 190.5 340.5 193.019531 340.5 196.125 C 340.5 199.230469 343.019531 201.75 346.125 201.75 L 359.625 201.75 C 362.730469 201.75 365.25 199.230469 365.25 196.125 C 365.25 193.019531 362.730469 190.5 359.625 190.5 Z M 359.625 190.5 " fill-opacity="1" fill-rule="nonzero"/><path fill="#fbb040" d="M 37.875 168 L 24.375 168 C 21.269531 168 18.75 170.519531 18.75 173.625 C 18.75 176.730469 21.269531 179.25 24.375 179.25 L 37.875 179.25 C 40.980469 179.25 43.5 176.730469 43.5 173.625 C 43.5 170.519531 40.980469 168 37.875 168 Z M 37.875 168 " fill-opacity="1" fill-rule="nonzero"/><path fill="#fbb040" d="M 37.875 190.5 L 24.375 190.5 C 21.269531 190.5 18.75 193.019531 18.75 196.125 C 18.75 199.230469 21.269531 201.75 24.375 201.75 L 37.875 201.75 C 40.980469 201.75 43.5 199.230469 43.5 196.125 C 43.5 193.019531 40.980469 190.5 37.875 190.5 Z M 37.875 190.5 " fill-opacity="1" fill-rule="nonzero"/><path fill="#fbb040" d="M 224.25 359.25 C 224.25 356.144531 221.730469 353.625 218.625 353.625 L 164.625 353.625 C 161.519531 353.625 159 356.144531 159 359.25 C 159 362.355469 161.519531 364.875 164.625 364.875 L 218.625 364.875 C 221.730469 364.875 224.25 362.355469 224.25 359.25 Z M 224.25 359.25 " fill-opacity="1" fill-rule="nonzero"/></svg>