<svg xmlns="http://www.w3.org/2000/svg" xmlns:xlink="http://www.w3.org/1999/xlink" width="512" zoomAndPan="magnify" viewBox="0 0 384 383.999986" height="512" preserveAspectRatio="xMidYMid meet" version="1.0"><path fill="#fbb040" d="M 383.253906 261.933594 C 382.636719 260.855469 369.144531 237.578125 343.089844 211.921875 L 343.089844 181.148438 C 343.089844 178.042969 340.570312 175.523438 337.464844 175.523438 C 334.355469 175.523438 331.839844 178.042969 331.839844 181.148438 L 331.839844 201.449219 C 318.550781 189.746094 304.558594 179.753906 290.054688 171.613281 L 290.054688 127.601562 C 290.054688 124.492188 287.539062 121.976562 284.429688 121.976562 L 276.738281 121.976562 L 310.945312 76.367188 L 345.152344 121.976562 L 337.460938 121.976562 C 334.355469 121.976562 331.835938 124.492188 331.835938 127.601562 L 331.835938 154.875 C 331.835938 157.980469 334.355469 160.5 337.460938 160.5 C 340.570312 160.5 343.085938 157.980469 343.085938 154.875 L 343.085938 133.226562 L 356.402344 133.226562 C 358.535156 133.226562 360.480469 132.023438 361.433594 130.117188 C 362.386719 128.210938 362.179688 125.929688 360.902344 124.226562 L 315.445312 63.617188 C 314.382812 62.199219 312.714844 61.367188 310.945312 61.367188 C 309.175781 61.367188 307.507812 62.199219 306.445312 63.617188 L 260.988281 124.226562 C 259.710938 125.929688 259.503906 128.210938 260.457031 130.117188 C 261.410156 132.023438 263.359375 133.226562 265.488281 133.226562 L 278.804688 133.226562 L 278.804688 165.722656 C 277.410156 165.046875 276.011719 164.378906 274.613281 163.734375 C 258.28125 156.222656 241.398438 151.007812 224.140625 148.125 L 224.140625 116.542969 C 224.140625 113.4375 221.625 110.917969 218.515625 110.917969 C 215.410156 110.917969 212.890625 113.4375 212.890625 116.542969 L 212.890625 146.582031 C 205.976562 145.839844 199.007812 145.464844 192 145.464844 C 184.992188 145.464844 178.023438 145.839844 171.109375 146.582031 L 171.109375 66.234375 C 171.109375 63.128906 168.589844 60.609375 165.484375 60.609375 L 157.792969 60.609375 L 192 15 L 226.207031 60.609375 L 218.515625 60.609375 C 215.410156 60.609375 212.890625 63.128906 212.890625 66.234375 L 212.890625 90.175781 C 212.890625 93.285156 215.410156 95.800781 218.515625 95.800781 C 221.625 95.800781 224.140625 93.285156 224.140625 90.175781 L 224.140625 71.859375 L 237.457031 71.859375 C 239.585938 71.859375 241.535156 70.65625 242.488281 68.75 C 243.441406 66.84375 243.234375 64.5625 241.957031 62.859375 L 196.5 2.25 C 195.4375 0.832031 193.769531 0 192 0 C 190.230469 0 188.5625 0.832031 187.5 2.25 L 142.042969 62.859375 C 140.765625 64.5625 140.558594 66.84375 141.511719 68.75 C 142.464844 70.65625 144.410156 71.859375 146.542969 71.859375 L 159.859375 71.859375 L 159.859375 148.125 C 142.601562 151.007812 125.71875 156.21875 109.386719 163.734375 C 107.988281 164.378906 106.589844 165.046875 105.195312 165.722656 L 105.195312 133.226562 L 118.511719 133.226562 C 120.640625 133.226562 122.589844 132.023438 123.542969 130.117188 C 124.496094 128.210938 124.289062 125.929688 123.011719 124.226562 L 77.554688 63.617188 C 76.492188 62.199219 74.824219 61.367188 73.054688 61.367188 C 71.28125 61.367188 69.617188 62.199219 68.554688 63.617188 L 23.097656 124.226562 C 21.816406 125.929688 21.613281 128.210938 22.566406 130.117188 C 23.519531 132.023438 25.464844 133.226562 27.597656 133.226562 L 40.910156 133.226562 L 40.910156 154.875 C 40.910156 157.980469 43.429688 160.5 46.535156 160.5 C 49.644531 160.5 52.160156 157.980469 52.160156 154.875 L 52.160156 127.601562 C 52.160156 124.496094 49.644531 121.976562 46.535156 121.976562 L 38.847656 121.976562 L 73.054688 76.367188 L 107.261719 121.976562 L 99.570312 121.976562 C 96.464844 121.976562 93.945312 124.496094 93.945312 127.601562 L 93.945312 171.613281 C 79.441406 179.753906 65.449219 189.746094 52.160156 201.449219 L 52.160156 181.152344 C 52.160156 178.042969 49.644531 175.527344 46.535156 175.527344 C 43.429688 175.527344 40.910156 178.042969 40.910156 181.152344 L 40.910156 211.921875 C 14.855469 237.582031 1.363281 260.855469 0.746094 261.933594 C -0.25 263.667969 -0.25 265.796875 0.746094 267.53125 C 1.429688 268.722656 17.84375 297.046875 49.585938 325.726562 C 68.261719 342.605469 88.382812 356.0625 109.386719 365.730469 C 135.738281 377.851562 163.53125 384 192 384 C 220.46875 384 248.261719 377.851562 274.613281 365.726562 C 295.617188 356.0625 315.738281 342.605469 334.414062 325.726562 C 366.15625 297.046875 382.570312 268.722656 383.253906 267.53125 C 384.25 265.796875 384.25 263.667969 383.253906 261.933594 Z M 326.605469 317.621094 C 298.695312 342.769531 252.6875 372.75 192 372.75 C 131.3125 372.75 85.304688 342.769531 57.394531 317.621094 C 32.511719 295.199219 17.132812 272.496094 12.222656 264.730469 C 17.136719 256.964844 32.511719 234.261719 57.394531 211.839844 C 85.304688 186.691406 131.3125 156.710938 192 156.710938 C 252.6875 156.710938 298.695312 186.691406 326.605469 211.839844 C 351.488281 234.261719 366.867188 256.96875 371.78125 264.730469 C 366.863281 272.496094 351.488281 295.203125 326.605469 317.621094 Z M 326.605469 317.621094 " fill-opacity="1" fill-rule="nonzero"/><path fill="#fbb040" d="M 192 183.34375 C 147.121094 183.34375 110.613281 219.855469 110.613281 264.730469 C 110.613281 309.609375 147.121094 346.117188 192 346.117188 C 236.878906 346.117188 273.386719 309.609375 273.386719 264.730469 C 273.386719 219.855469 236.878906 183.34375 192 183.34375 Z M 192 334.867188 C 153.328125 334.867188 121.863281 303.40625 121.863281 264.730469 C 121.863281 226.058594 153.328125 194.59375 192 194.59375 C 230.671875 194.59375 262.136719 226.058594 262.136719 264.730469 C 262.136719 303.40625 230.671875 334.867188 192 334.867188 Z M 192 334.867188 " fill-opacity="1" fill-rule="nonzero"/><path fill="#fbb040" d="M 228.367188 225.015625 L 204.121094 225.015625 C 201.015625 225.015625 198.496094 227.53125 198.496094 230.640625 L 198.496094 240.925781 L 179.878906 240.925781 C 176.769531 240.925781 174.253906 243.441406 174.253906 246.550781 L 174.253906 256.078125 L 155.632812 256.078125 C 152.527344 256.078125 150.007812 258.59375 150.007812 261.703125 L 150.007812 300.339844 C 150.007812 303.449219 152.527344 305.964844 155.632812 305.964844 L 228.367188 305.964844 C 231.472656 305.964844 233.992188 303.449219 233.992188 300.339844 L 233.992188 230.640625 C 233.992188 227.53125 231.472656 225.015625 228.367188 225.015625 Z M 161.257812 267.328125 L 174.253906 267.328125 L 174.253906 294.714844 L 161.257812 294.714844 Z M 185.503906 252.171875 L 198.496094 252.171875 L 198.496094 294.714844 L 185.503906 294.714844 Z M 222.742188 294.714844 L 209.746094 294.714844 L 209.746094 236.261719 L 222.742188 236.261719 Z M 222.742188 294.714844 " fill-opacity="1" fill-rule="nonzero"/><path fill="#fbb040" d="M 322.3125 259.105469 L 292.007812 259.105469 C 288.898438 259.105469 286.382812 261.625 286.382812 264.730469 C 286.382812 267.839844 288.898438 270.355469 292.007812 270.355469 L 322.3125 270.355469 C 325.417969 270.355469 327.9375 267.839844 327.9375 264.730469 C 327.9375 261.625 325.417969 259.105469 322.3125 259.105469 Z M 322.3125 259.105469 " fill-opacity="1" fill-rule="nonzero"/><path fill="#fbb040" d="M 304.886719 283.351562 L 289.734375 283.351562 C 286.625 283.351562 284.109375 285.867188 284.109375 288.976562 C 284.109375 292.082031 286.625 294.601562 289.734375 294.601562 L 304.886719 294.601562 C 307.992188 294.601562 310.511719 292.082031 310.511719 288.976562 C 310.511719 285.867188 307.992188 283.351562 304.886719 283.351562 Z M 304.886719 283.351562 " fill-opacity="1" fill-rule="nonzero"/><path fill="#fbb040" d="M 289.734375 246.113281 L 304.886719 246.113281 C 307.992188 246.113281 310.511719 243.59375 310.511719 240.488281 C 310.511719 237.378906 307.992188 234.863281 304.886719 234.863281 L 289.734375 234.863281 C 286.625 234.863281 284.109375 237.378906 284.109375 240.488281 C 284.109375 243.59375 286.625 246.113281 289.734375 246.113281 Z M 289.734375 246.113281 " fill-opacity="1" fill-rule="nonzero"/><path fill="#fbb040" d="M 97.621094 264.730469 C 97.621094 261.625 95.101562 259.105469 91.996094 259.105469 L 61.6875 259.105469 C 58.582031 259.105469 56.0625 261.625 56.0625 264.730469 C 56.0625 267.839844 58.582031 270.355469 61.6875 270.355469 L 91.996094 270.355469 C 95.101562 270.355469 97.621094 267.839844 97.621094 264.730469 Z M 97.621094 264.730469 " fill-opacity="1" fill-rule="nonzero"/><path fill="#fbb040" d="M 94.265625 283.351562 L 79.113281 283.351562 C 76.007812 283.351562 73.488281 285.867188 73.488281 288.976562 C 73.488281 292.082031 76.007812 294.601562 79.113281 294.601562 L 94.265625 294.601562 C 97.375 294.601562 99.890625 292.082031 99.890625 288.976562 C 99.890625 285.867188 97.375 283.351562 94.265625 283.351562 Z M 94.265625 283.351562 " fill-opacity="1" fill-rule="nonzero"/><path fill="#fbb040" d="M 94.265625 234.863281 L 79.113281 234.863281 C 76.007812 234.863281 73.488281 237.378906 73.488281 240.488281 C 73.488281 243.59375 76.007812 246.113281 79.113281 246.113281 L 94.265625 246.113281 C 97.375 246.113281 99.890625 243.59375 99.890625 240.488281 C 99.890625 237.378906 97.375 234.863281 94.265625 234.863281 Z M 94.265625 234.863281 " fill-opacity="1" fill-rule="nonzero"/></svg>