<?xml version="1.0" encoding="UTF-8" standalone="no"?><!DOCTYPE svg PUBLIC "-//W3C//DTD SVG 1.1//EN" "http://www.w3.org/Graphics/SVG/1.1/DTD/svg11.dtd"><svg width="100%" height="100%" viewBox="0 0 3001 797" version="1.1" xmlns="http://www.w3.org/2000/svg" xmlns:xlink="http://www.w3.org/1999/xlink" xml:space="preserve" xmlns:serif="http://www.serif.com/" style="fill-rule:evenodd;clip-rule:evenodd;stroke-linejoin:round;stroke-miterlimit:2;"><g id="equant-logo" serif:id="equant logo"><path d="M142.585,268.464c-2.075,-8.704 -10.808,-14.079 -19.516,-12.009c-2.309,0.55 -4.359,1.592 -6.121,2.955l-19.233,-14.738c3.158,-5.758 4.304,-12.646 2.662,-19.533c-1.25,-5.25 -3.95,-9.763 -7.546,-13.267l23.196,-32.433c5.75,2.704 12.413,3.566 19.071,1.979c14.912,-3.55 24.346,-18 21.937,-32.892l30.063,-9.55c3.579,5.575 10.354,8.6 17.167,6.979c8.62,-2.058 13.945,-10.708 11.891,-19.329c-2.05,-8.621 -10.708,-13.946 -19.325,-11.896c-7.625,1.817 -12.646,8.788 -12.296,16.338l-29.962,9.521c-4.621,-9.667 -14.238,-15.967 -24.838,-16.463l-6.362,-40.662c0.108,-0.025 0.212,-0.038 0.321,-0.063c22.712,-5.404 36.737,-28.204 31.329,-50.912c-5.408,-22.713 -28.2,-36.738 -50.913,-31.329c-22.712,5.408 -36.737,28.204 -31.329,50.912c0.809,3.4 2.05,6.579 3.579,9.554l-44.162,30.813c-4.538,-4.167 -10.996,-6.075 -17.442,-4.542c-10.312,2.458 -16.687,12.813 -14.229,23.125c2.458,10.317 12.808,16.688 23.129,14.233c10.313,-2.454 16.684,-12.812 14.229,-23.125c-0.237,-0.995 -0.608,-1.916 -0.983,-2.833l43.979,-30.683c8.175,10.233 20.813,16.329 34.242,15.925l6.317,40.387c-15.496,3.8 -25.05,19.4 -21.35,34.95c1.437,6.038 4.675,11.163 8.987,14.988l-23.004,32.166c-5.588,-2.833 -12.167,-3.791 -18.742,-2.225c-14.741,3.509 -23.841,18.305 -20.333,33.042c3.508,14.742 18.304,23.846 33.046,20.338c4.929,-1.18 9.212,-3.634 12.621,-6.913l19.237,14.746c-1.271,3.05 -1.662,6.496 -0.837,9.954c2.07,8.704 10.808,14.079 19.512,12.008c8.704,-2.075 14.083,-10.812 12.008,-19.516" style="fill:#fefefe;fill-rule:nonzero;"/><path d="M523.828,762.188c-168.684,-0 -307.13,-129.18 -321.98,-294l-0.737,-49.075c10.196,-169.409 150.75,-303.663 322.717,-303.663c111.795,0 210.333,56.738 268.408,142.983c-62.088,-106.141 -177.2,-177.487 -309.042,-177.487c-197.646,-0 -357.871,160.229 -357.871,357.875c0,197.646 160.225,357.867 357.871,357.867c131.842,-0 246.954,-71.346 309.042,-177.484c-58.075,86.246 -156.613,142.984 -268.408,142.984" style="fill:#fefefe;fill-rule:nonzero;"/><path d="M1269.14,332.883c-0,13.82 -5.913,20.729 -17.738,20.729l-228.433,-0l-0,42.733c-0,18.383 20.3,27.575 60.904,27.575l167.529,0c11.113,0 16.671,5.625 16.671,16.875c0,14.821 -5.558,22.225 -16.671,22.225l-169.671,0c-24.783,0 -47.512,-4.412 -68.162,-13.246c-25.358,-11.541 -38.038,-28.779 -38.038,-51.712l0,-129.071c0,-12.396 4.2,-23.646 12.609,-33.767c18.233,-21.654 50.783,-32.479 97.654,-32.479l46.367,0c10.97,0 16.458,7.267 16.458,21.8c-0,11.254 -5.488,16.879 -16.458,16.879l-13.459,0c-1.562,0 -2.425,-0.071 -2.566,-0.212c-3.563,-0.142 -6.625,-0.25 -9.188,-0.325c-2.567,-0.067 -4.696,-0.104 -6.408,-0.104c-52,-0 -77.996,9.4 -77.996,28.208l-0,45.512l229.075,0c11.679,0 17.521,6.13 17.521,18.38" style="fill:#fbb040;fill-rule:nonzero;"/><path d="M1567.67,395.035l-0,-124.73c-0,-19.254 -25.6,-28.883 -76.788,-28.883l-74.221,0c-22.387,0 -37.72,0.858 -45.979,2.571c-20.258,3.992 -30.375,12.758 -30.375,26.312l0,124.3c0,13.271 9.475,21.896 28.442,25.888c6.842,1.854 21.458,2.783 43.85,2.783l82.137,0c48.621,0 72.934,-9.412 72.934,-28.241m47.437,-1.417c0,27.933 -14.179,47.167 -42.546,57.708c4.984,2.696 8.834,4.817 11.538,6.375c2.704,1.554 4.417,2.546 5.129,2.971c7.121,4.983 10.683,9.754 10.683,14.317c0,6.266 -2.7,11.325 -8.12,15.171c-4.988,3.42 -10.684,5.129 -17.092,5.129c-4.425,-0 -8.908,-1.213 -13.467,-3.634l-53.246,-29.275l-91.312,0c-82.542,0 -123.813,-22.933 -123.813,-68.812l0,-122.654c0,-29.629 14.392,-49.438 43.167,-59.409c18.379,-5.837 45.158,-8.758 80.346,-8.758l76.075,0c36.187,0 62.967,2.704 80.35,8.121c28.208,9.687 42.308,29.642 42.308,59.85l0,122.9Z" style="fill:#fefefe;fill-rule:nonzero;"/><path d="M1967.91,389.726c-0,49.434 -47.367,74.15 -142.1,74.15c-2.85,0 -6.446,-0.041 -10.792,-0.108c-4.346,-0.075 -9.366,-0.175 -15.066,-0.321c-5.7,-0.142 -10.684,-0.25 -14.959,-0.321c-4.271,-0.071 -7.833,-0.104 -10.687,-0.104c-66.671,0 -106.775,-12.537 -120.304,-37.612c-4.705,-8.688 -7.05,-20.584 -7.05,-35.684l-0,-170.312c-0,-11.113 5.525,-16.667 16.587,-16.667c10.642,0 17.446,0.425 20.429,1.283c6.942,2.134 10.417,7.263 10.417,15.384l-0,167.104c-0,16.525 10.046,27.567 30.129,33.121c5.988,1.425 13.071,2.496 21.267,3.208c8.191,0.713 17.841,1.071 28.954,1.071l65.387,-0c24.934,-0 41.671,-1.354 50.221,-4.063c20.088,-5.266 30.129,-16.312 30.129,-33.125l0,-167.316c0,-8.259 3.367,-13.392 10.092,-15.384c2.717,-0.858 9.583,-1.283 20.6,-1.283c11.167,0 16.746,5.554 16.746,16.667l-0,170.312Z" style="fill:#fefefe;fill-rule:nonzero;"/><path d="M2223.91,355.319l-72.013,-106.2l-72.437,106.2l144.45,-0Zm115.192,89.966c-0,6.555 -2.217,12.038 -6.634,16.45c-4.416,4.421 -9.904,6.63 -16.458,6.63c-9.113,-0 -16.521,-4.28 -22.221,-12.821l-42.092,-61.117l-200.02,0l-42.092,61.117c-4.571,6.691 -9.483,10.041 -14.746,10.041c-5.275,0 -10.329,-1.708 -15.171,-5.133c-5.416,-3.696 -8.121,-8.042 -8.121,-13.033c0,-1.563 0.425,-2.988 1.28,-4.271l150.012,-229.292c6.121,-9.404 16.675,-14.104 31.629,-14.104c11.113,0 18.517,3.138 22.221,9.4c0.279,0.429 0.604,1.033 0.958,1.817c0.359,0.787 0.888,1.75 1.6,2.887l158.984,225.021c0.575,0.992 0.871,3.133 0.871,6.408" style="fill:#fefefe;fill-rule:nonzero;"/><path d="M2684.42,435.027c0,19.804 -8.687,29.704 -26.067,29.704c-7.983,-0 -17.025,-4.204 -27.145,-12.608l-221.592,-188.267l-0,182.283c-0,8.409 -3.417,13.675 -10.258,15.813c-2,0.283 -4.705,0.533 -8.121,0.75c-3.421,0.212 -7.559,0.321 -12.392,0.321c-11.117,-0 -16.675,-5.63 -16.675,-16.884l0,-217.108c0,-18.808 8.129,-28.208 24.388,-28.208c10.266,-0 20.812,4.558 31.65,13.675l218.775,186.129l-0,-181.213c-0,-8.258 3.404,-13.466 10.208,-15.604c1.987,-0.283 4.679,-0.533 8.087,-0.746c3.4,-0.212 7.517,-0.321 12.342,-0.321c11.196,0 16.8,5.559 16.8,16.671l0,215.613Z" style="fill:#fefefe;fill-rule:nonzero;"/><path d="M2995.77,224.543c-0,11.254 -5.554,16.879 -16.667,16.879l-105.354,0l-0,204.717c-0,11.254 -5.508,16.883 -16.529,16.883c-11.159,0 -18.104,-0.429 -20.821,-1.287c-6.725,-1.988 -10.088,-7.188 -10.088,-15.596l0,-204.717l-104.495,0c-11.25,0 -16.88,-5.625 -16.88,-16.879c0,-7.696 0.85,-12.963 2.563,-15.817c2.271,-3.983 7.054,-5.979 14.317,-5.979l257.287,0c11.113,0 16.667,7.263 16.667,21.796" style="fill:#fefefe;fill-rule:nonzero;"/><path d="M1251.4,423.918l-167.533,0c-40.604,0 -60.904,-9.191 -60.904,-27.57l-0,-42.738l0.45,0l-0,-0.517l-47.888,0l0,44.967c0,22.938 12.679,40.175 38.038,51.713c20.654,8.833 43.379,13.25 68.166,13.25l169.671,-0c11.113,-0 16.667,-7.409 16.667,-22.225c-0,-11.25 -5.554,-16.88 -16.667,-16.88" style="fill:#fefefe;fill-rule:nonzero;"/><path d="M594.553,624.398c-12.771,0 -23.163,-10.391 -23.163,-23.166c0,-12.767 10.392,-23.159 23.163,-23.159c10.946,0 20.125,7.646 22.529,17.871l-0.042,0l0,10.584l0.042,-0c-2.404,10.225 -11.583,17.87 -22.529,17.87m-159.729,-76.004c-12.771,0 -23.163,-10.391 -23.163,-23.162c0,-12.771 10.392,-23.159 23.163,-23.159c12.771,0 23.162,10.388 23.162,23.159c0,12.771 -10.391,23.162 -23.162,23.162m53.579,-79.808c-12.771,-0 -23.158,-10.388 -23.158,-23.158c-0,-12.775 10.387,-23.167 23.158,-23.167c12.775,-0 23.162,10.392 23.162,23.167c0,12.77 -10.387,23.158 -23.162,23.158m-111.021,-80.996c-12.771,0 -23.162,-10.392 -23.162,-23.162c-0,-12.771 10.391,-23.163 23.162,-23.163c12.771,0 23.163,10.392 23.163,23.163c-0,12.77 -10.392,23.162 -23.163,23.162m217.171,-81c-12.771,0 -23.163,-10.392 -23.163,-23.162c0,-12.771 10.392,-23.163 23.163,-23.163c12.771,0 23.162,10.392 23.162,23.163c0,12.77 -10.391,23.162 -23.162,23.162m-69.375,-174.896c-108.146,0 -202.567,61.604 -253.496,153.246c47.638,-74.467 128.463,-123.454 220.163,-123.454c88.762,-0 167.287,45.942 215.433,116.417l0.783,1.233l-80.066,-0c-2.121,-16.583 -16.292,-29.454 -33.442,-29.454c-18.608,-0 -33.746,15.137 -33.746,33.746c0,18.608 15.138,33.745 33.746,33.745c16.454,0 30.175,-11.845 33.133,-27.454l87.084,0l3.829,6.034c10.746,18.595 19.454,38.633 25.875,59.75l0.975,3.633l-334.779,-0c-2.55,-16.096 -16.484,-28.454 -33.288,-28.454c-18.604,-0 -33.746,15.137 -33.746,33.746c0,18.608 15.142,33.745 33.746,33.745c16.804,0 30.738,-12.358 33.288,-28.454l337.629,0l0.979,3.634c4.775,20.295 7.417,41.462 7.717,63.241l-0.046,3.538l-235.254,-0c-2.555,-16.096 -16.488,-28.454 -33.292,-28.454c-18.604,-0 -33.742,15.141 -33.742,33.75c0,18.608 15.138,33.745 33.742,33.745c16.804,0 30.737,-12.358 33.292,-28.458l235.112,0l-0.046,3.729c-0.958,20.813 -4.137,41.004 -9.196,60.379l-1.512,5.117l-277.942,0c-2.55,-16.1 -16.487,-28.454 -33.287,-28.454c-18.609,-0 -33.746,15.137 -33.746,33.746c-0,18.608 15.137,33.746 33.746,33.746c16.8,-0 30.737,-12.359 33.287,-28.455l274.809,0l-0.634,2.15c-7.108,21.446 -16.625,41.684 -28.221,60.384l-1.95,2.887l-84.275,0c-2.554,-16.096 -16.487,-28.454 -33.287,-28.454c-18.608,0 -33.746,15.142 -33.746,33.742c0,18.608 15.138,33.75 33.746,33.75c16.8,-0 30.733,-12.359 33.287,-28.454l77.142,-0l-2.954,4.379c-48.496,66.25 -124.579,108.979 -210.183,108.979c-91.7,-0 -172.525,-48.992 -220.163,-123.454c50.929,91.637 145.35,153.241 253.496,153.241c162.117,0 293.546,-138.341 293.546,-308.987c-0,-170.65 -131.429,-308.992 -293.546,-308.992" style="fill:#fbb040;fill-rule:nonzero;"/><path d="M1349.92,551.12c-0,3.075 -1.317,4.608 -3.946,4.608l-50.812,-0l-0,9.508c-0,4.088 4.512,6.129 13.545,6.129l37.267,0c2.471,0 3.708,1.255 3.708,3.759c0,3.296 -1.237,4.941 -3.708,4.941l-37.742,0c-5.512,0 -10.57,-0.983 -15.166,-2.945c-5.638,-2.567 -8.459,-6.4 -8.459,-11.505l0,-28.704c0,-2.762 0.938,-5.262 2.805,-7.512c4.058,-4.817 11.295,-7.225 21.72,-7.225l10.317,-0c2.438,-0 3.658,1.612 3.658,4.846c0,2.504 -1.22,3.754 -3.658,3.754l-2.996,-0c-0.346,-0 -0.537,-0.017 -0.566,-0.046c-0.792,-0.029 -1.475,-0.054 -2.046,-0.071c-0.567,-0.017 -1.046,-0.021 -1.425,-0.021c-11.567,0 -17.35,2.088 -17.35,6.275l-0,10.125l50.954,0c2.6,0 3.9,1.359 3.9,4.084" style="fill:#fbb040;fill-rule:nonzero;"/><path d="M1432.15,576.315c-0,2.5 -1.25,3.75 -3.755,3.75c-2.475,0 -3.912,-0.108 -4.325,-0.333c-1.362,-0.475 -2.045,-1.613 -2.045,-3.417l-0,-29c-0,-2.058 -1.709,-3.404 -5.134,-4.042c-0.6,-0.12 -1.529,-0.208 -2.779,-0.254c-1.25,-0.05 -2.825,-0.075 -4.729,-0.075l-17.3,0c-1.746,0 -3.213,0.034 -4.4,0.096c-1.188,0.063 -2.133,0.158 -2.825,0.283c-3.233,0.634 -4.85,1.984 -4.85,4.042l-0,28.95c-0,2.5 -1.238,3.75 -3.708,3.75c-2.471,0 -3.913,-0.108 -4.325,-0.333c-1.334,-0.475 -1.996,-1.613 -1.996,-3.417l-0,-28.854c-0,-8.65 7.666,-12.975 23.004,-12.975l16.4,-0c15.179,-0 22.767,4.292 22.767,12.879l-0,28.95Z" style="fill:#fbb040;fill-rule:nonzero;"/><path d="M1506.41,571.322l0,-22.104c0,-2.25 -1.854,-3.946 -5.562,-5.083c-3.009,-0.83 -5.813,-1.238 -8.413,-1.238l-15.829,0c-3.738,0 -6.417,0.192 -8.033,0.567c-3.325,0.829 -4.988,2.508 -4.988,5.037l0,16.975c0,3.896 4.975,5.846 14.925,5.846l27.9,0Zm10.125,7.221c0,5.233 -3.267,9.062 -9.792,11.504c-4.341,1.742 -9.841,2.617 -16.491,2.617l-4.184,-0c-2.504,-0 -3.758,-1.571 -3.758,-4.709c0,-2.47 1.254,-3.704 3.758,-3.704l7.267,0c1.271,0 3.646,-0.462 7.133,-1.383c3.613,-1.042 5.53,-2.104 5.75,-3.179l-27.516,-0c-6.5,-0 -11.838,-0.813 -16.025,-2.425c-6.079,-2.317 -9.125,-6.2 -9.125,-11.646l-0,-16.925c-0,-9.571 9.446,-14.354 28.329,-14.354c0.508,-0 1.125,0.012 1.854,0.029c0.729,0.012 1.6,0.037 2.617,0.067c0.029,0.033 0.266,0.05 0.712,0.05l3.754,-0c5.988,-0 11.409,0.887 16.259,2.662c6.304,2.471 9.458,6.35 9.458,11.642l0,29.754Z" style="fill:#fbb040;fill-rule:nonzero;"/><path d="M1549.01,576.315c0,2.5 -1.254,3.75 -3.754,3.75c-2.437,0 -3.866,-0.108 -4.279,-0.333c-1.296,-0.475 -1.95,-1.613 -1.95,-3.417l0,-38.267c0,-2.47 1.254,-3.708 3.758,-3.708c2.405,0 3.817,0.113 4.23,0.333c1.333,0.475 1.995,1.6 1.995,3.375l0,38.267Zm1.38,-48.058c-0,1.65 -0.7,2.946 -2.092,3.896c-1.204,0.829 -2.675,1.237 -4.417,1.237c-1.746,0 -3.221,-0.408 -4.425,-1.237c-1.396,-0.95 -2.091,-2.246 -2.091,-3.896c-0,-1.65 0.695,-2.946 2.091,-3.9c1.204,-0.821 2.679,-1.234 4.425,-1.234c1.742,0 3.213,0.413 4.417,1.234c1.392,0.954 2.092,2.25 2.092,3.9" style="fill:#fbb040;fill-rule:nonzero;"/><path d="M1633.58,576.315c-0,2.5 -1.25,3.75 -3.75,3.75c-2.475,0 -3.917,-0.108 -4.325,-0.333c-1.367,-0.475 -2.05,-1.613 -2.05,-3.417l-0,-29c-0,-2.058 -1.709,-3.404 -5.134,-4.042c-0.6,-0.12 -1.525,-0.208 -2.779,-0.254c-1.25,-0.05 -2.825,-0.075 -4.729,-0.075l-17.3,0c-1.746,0 -3.213,0.034 -4.4,0.096c-1.188,0.063 -2.133,0.158 -2.825,0.283c-3.233,0.634 -4.85,1.984 -4.85,4.042l-0,28.95c-0,2.5 -1.238,3.75 -3.708,3.75c-2.471,0 -3.913,-0.108 -4.325,-0.333c-1.334,-0.475 -1.996,-1.613 -1.996,-3.417l-0,-28.854c-0,-8.65 7.671,-12.975 23.008,-12.975l16.396,-0c15.179,-0 22.767,4.292 22.767,12.879l-0,28.95Z" style="fill:#fbb040;fill-rule:nonzero;"/><path d="M1706.93,553.496l-0,-5.608c-0,-3.425 -6.8,-5.134 -20.396,-5.134c-8.012,0 -13.512,0.284 -16.492,0.859c-4.212,0.787 -6.32,2.341 -6.32,4.654l-0,5.229l43.208,-0Zm9.792,4.567c-0,2.754 -0.938,4.133 -2.805,4.133l-49.862,-0l-0,0.329c-0,4.308 2.533,7.083 7.604,8.321c1.108,0.254 2.721,0.446 4.821,0.596c2.112,0.141 4.796,0.208 8.058,0.208c2.475,0 3.713,1.554 3.713,4.667c-0,2.496 -1.238,3.75 -3.713,3.75c-3.358,-0 -6.104,-0.021 -8.246,-0.075c-2.137,-0.046 -3.762,-0.134 -4.87,-0.259c-5.517,-0.57 -9.571,-1.866 -12.167,-3.895c-3.708,-2.884 -5.558,-6.28 -5.558,-10.171l-0,-16.779c-0,-5.259 2.845,-9.163 8.55,-11.696c3.9,-1.838 9.062,-2.754 15.495,-2.754l18.73,-0c5.258,-0 9.62,0.87 13.07,2.612c4.784,2.217 7.18,5.563 7.18,10.029l-0,10.984Z" style="fill:#fbb040;fill-rule:nonzero;"/><path d="M1788.56,553.496l0,-5.608c0,-3.425 -6.8,-5.134 -20.396,-5.134c-8.016,0 -13.516,0.284 -16.491,0.859c-4.213,0.787 -6.321,2.341 -6.321,4.654l-0,5.229l43.208,-0Zm9.792,4.567c-0,2.754 -0.938,4.133 -2.804,4.133l-49.863,-0l0,0.329c0,4.308 2.533,7.083 7.604,8.321c1.109,0.254 2.721,0.446 4.821,0.596c2.108,0.141 4.796,0.208 8.058,0.208c2.475,0 3.709,1.554 3.709,4.667c-0,2.496 -1.234,3.75 -3.709,3.75c-3.358,-0 -6.104,-0.021 -8.245,-0.075c-2.138,-0.046 -3.763,-0.134 -4.871,-0.259c-5.517,-0.57 -9.571,-1.866 -12.167,-3.895c-3.708,-2.884 -5.562,-6.28 -5.562,-10.171l-0,-16.779c-0,-5.259 2.85,-9.163 8.554,-11.696c3.896,-1.838 9.062,-2.754 15.496,-2.754l18.729,-0c5.258,-0 9.616,0.87 13.071,2.612c4.783,2.217 7.179,5.563 7.179,10.029l-0,10.984Z" style="fill:#fbb040;fill-rule:nonzero;"/><path d="M1846.65,539.238c0,2.505 -1.491,3.75 -4.466,3.75c-0.417,0 -1.009,-0.016 -1.784,-0.066c-0.779,-0.05 -1.375,-0.075 -1.787,-0.075c-7.696,-0 -11.546,1.921 -11.546,5.754l0,27.712c0,1.838 -0.7,2.992 -2.092,3.467c-0.57,0.192 -2.029,0.288 -4.375,0.288c-2.375,-0 -3.562,-1.271 -3.562,-3.8l-0,-27.667c-0,-5.958 3.058,-9.996 9.175,-12.121c3.737,-1.329 9.296,-1.996 16.683,-1.996c2.5,0 3.754,1.579 3.754,4.754" style="fill:#fbb040;fill-rule:nonzero;"/><path d="M1877.93,576.315c-0,2.5 -1.25,3.75 -3.754,3.75c-2.438,0 -3.867,-0.108 -4.279,-0.333c-1.296,-0.475 -1.95,-1.613 -1.95,-3.417l-0,-38.267c-0,-2.47 1.254,-3.708 3.758,-3.708c2.404,0 3.817,0.113 4.229,0.333c1.333,0.475 1.996,1.6 1.996,3.375l-0,38.267Zm1.379,-48.058c0,1.65 -0.696,2.946 -2.092,3.896c-1.204,0.829 -2.675,1.237 -4.416,1.237c-1.746,0 -3.221,-0.408 -4.425,-1.237c-1.396,-0.95 -2.092,-2.246 -2.092,-3.896c0,-1.65 0.696,-2.946 2.092,-3.9c1.204,-0.821 2.679,-1.234 4.425,-1.234c1.741,0 3.212,0.413 4.416,1.234c1.396,0.954 2.092,2.25 2.092,3.9" style="fill:#fbb040;fill-rule:nonzero;"/><path d="M1962.5,576.315c0,2.5 -1.25,3.75 -3.754,3.75c-2.471,0 -3.917,-0.108 -4.325,-0.333c-1.362,-0.475 -2.046,-1.613 -2.046,-3.417l0,-29c0,-2.058 -1.708,-3.404 -5.133,-4.042c-0.604,-0.12 -1.529,-0.208 -2.779,-0.254c-1.25,-0.05 -2.829,-0.075 -4.729,-0.075l-17.3,0c-1.746,0 -3.213,0.034 -4.4,0.096c-1.188,0.063 -2.134,0.158 -2.83,0.283c-3.229,0.634 -4.85,1.984 -4.85,4.042l0,28.95c0,2.5 -1.233,3.75 -3.704,3.75c-2.471,0 -3.912,-0.108 -4.325,-0.333c-1.333,-0.475 -1.996,-1.613 -1.996,-3.417l0,-28.854c0,-8.65 7.671,-12.975 23.005,-12.975l16.4,-0c15.179,-0 22.766,4.292 22.766,12.879l0,28.95Z" style="fill:#fbb040;fill-rule:nonzero;"/><path d="M2036.76,571.322l-0,-22.104c-0,-2.25 -1.854,-3.946 -5.563,-5.083c-3.012,-0.83 -5.812,-1.238 -8.412,-1.238l-15.829,0c-3.742,0 -6.413,0.192 -8.034,0.567c-3.325,0.829 -4.987,2.508 -4.987,5.037l-0,16.975c-0,3.896 4.971,5.846 14.925,5.846l27.9,0Zm10.125,7.221c-0,5.233 -3.267,9.062 -9.792,11.504c-4.342,1.742 -9.842,2.617 -16.496,2.617l-4.183,-0c-2.5,-0 -3.754,-1.571 -3.754,-4.709c-0,-2.47 1.254,-3.704 3.754,-3.704l7.271,0c1.271,0 3.646,-0.462 7.133,-1.383c3.613,-1.042 5.529,-2.104 5.75,-3.179l-27.517,-0c-6.5,-0 -11.837,-0.813 -16.02,-2.425c-6.084,-2.317 -9.13,-6.2 -9.13,-11.646l0,-16.925c0,-9.571 9.446,-14.354 28.33,-14.354c0.508,-0 1.125,0.012 1.854,0.029c0.725,0.012 1.6,0.037 2.616,0.067c0.03,0.033 0.267,0.05 0.709,0.05l3.758,-0c5.988,-0 11.408,0.887 16.258,2.662c6.305,2.471 9.459,6.35 9.459,11.642l-0,29.754Z" style="fill:#fbb040;fill-rule:nonzero;"/><path d="M2156.18,538.05l-0,-2.804c-0,-2.983 -3.183,-4.471 -9.554,-4.471l-11.263,0c-6.466,0 -9.7,1.429 -9.7,4.279l0,3.088c0,1.146 0.634,2.091 1.904,2.854l8.367,4.987l13.025,-3.658c4.813,-1.396 7.221,-2.817 7.221,-4.275m5.537,32.892l-27.345,-15.542c-9.892,2.85 -14.838,5.083 -14.838,6.696l0,3.808c0,1.929 2.025,3.404 6.088,4.421c2.47,0.696 5.308,1.042 8.508,1.042l19.692,-0c3.833,-0 6.466,-0.142 7.895,-0.425m24.455,5.654c-0,2.283 -1.442,3.421 -4.325,3.421l-3.088,-0c-0.35,-0 -0.542,-0.017 -0.571,-0.042c-0.7,-0.067 -2.837,-1.179 -6.416,-3.329c-4.28,2.283 -10.288,3.421 -18.017,3.421l-20.2,-0c-5.988,-0 -11.125,-0.967 -15.4,-2.9c-6.117,-2.567 -9.175,-6.242 -9.175,-11.029l-0,-3.942c-0,-3.742 1.6,-6.692 4.8,-8.842c1.742,-1.171 5.021,-2.504 9.842,-3.991c-5.167,-4.217 -7.942,-7.292 -8.321,-9.225c-0.092,-0.475 -0.142,-1.092 -0.142,-1.85c0,-1.175 0.033,-2.267 0.096,-3.28c0.062,-1.016 0.158,-1.95 0.283,-2.804c0.1,-0.7 0.542,-1.633 1.329,-2.804c3.205,-4.817 9.459,-7.229 18.763,-7.229l11.158,-0c5.134,-0 9.479,0.904 13.059,2.712c4.591,2.313 6.883,5.784 6.883,10.409c-0,1.108 -0.021,2.062 -0.067,2.85c-0.05,0.791 -0.108,1.441 -0.166,1.95c-0.321,2.187 -3.063,4.641 -8.225,7.371c-1.9,0.979 -3.763,1.85 -5.584,2.612c-1.821,0.758 -3.687,1.438 -5.587,2.042l22.721,12.833l0.045,-11.979c0,-1.833 0.763,-2.979 2.284,-3.421c0.604,-0.187 2.108,-0.287 4.516,-0.287c2.471,-0 3.709,1.237 3.709,3.708l0.046,11.742c0.029,-0.409 0.054,-0.834 0.07,-1.255c0.017,-0.433 0.042,-0.9 0.075,-1.408c-0.033,0.038 -0.05,0.208 -0.05,0.525l0,2.138c0,0.412 -0.016,0.637 -0.05,0.666l-0.045,-0.666c-0.255,2.412 -0.713,4.245 -1.38,5.516l4.705,2.804c1.62,0.95 2.425,2.138 2.425,3.563" style="fill:#fbb040;fill-rule:nonzero;"/><path d="M2259.25,576.315c-0,2.5 -1.238,3.75 -3.708,3.75c-1.075,0 -1.996,-0.017 -2.755,-0.071c-0.758,-0.05 -1.366,-0.104 -1.804,-0.166c-1.525,-0.475 -2.283,-1.646 -2.283,-3.513l-0,-50.433c-0,-1.875 0.742,-3.029 2.233,-3.475c0.346,-0.059 0.904,-0.117 1.663,-0.167c0.762,-0.042 1.741,-0.067 2.946,-0.067c2.47,0 3.708,1.238 3.708,3.709l-0,50.433Z" style="fill:#fbb040;fill-rule:nonzero;"/><path d="M2343.01,527.019c-0,2.508 -1.234,3.754 -3.709,3.754l-23.433,-0l0,45.542c0,2.5 -1.225,3.75 -3.675,3.75c-2.483,-0 -4.025,-0.092 -4.633,-0.284c-1.492,-0.441 -2.242,-1.6 -2.242,-3.466l0,-45.542l-23.242,-0c-2.508,-0 -3.754,-1.246 -3.754,-3.754c0,-1.709 0.192,-2.879 0.567,-3.517c0.508,-0.887 1.571,-1.329 3.187,-1.329l57.225,-0c2.475,-0 3.709,1.617 3.709,4.846" style="fill:#fbb040;fill-rule:nonzero;"/><path d="M2468.13,565.711c-0,3.104 -0.492,5.534 -1.475,7.275c-2.629,4.721 -10.588,7.079 -23.858,7.079l-36.559,0c-2.433,0 -3.654,-1.25 -3.654,-3.75c0,-1.712 0.188,-2.9 0.567,-3.57c0.537,-0.917 1.571,-1.38 3.087,-1.38l36.559,0c9.854,0 14.783,-1.82 14.783,-5.462l-0,-4.992c-0,-3.55 -4.775,-5.483 -14.308,-5.8l-17.542,-0.571c-0.825,-0.029 -1.988,-0.087 -3.496,-0.166c-1.504,-0.075 -3.346,-0.196 -5.537,-0.354c-3.8,-0.446 -7.063,-1.696 -9.788,-3.759c-2.979,-2.279 -4.471,-5.275 -4.471,-8.979l0,-4.371c0,-6.75 3.742,-11.208 11.221,-13.362c3.579,-0.917 10.133,-1.375 19.675,-1.375c2.475,-0 3.708,1.612 3.708,4.846c0,1.87 -0.745,3.041 -2.233,3.52c-0.225,0.125 -1.725,0.188 -4.517,0.188c-11.533,-0 -17.3,2.029 -17.3,6.079l0,4.046c0,2.504 2.15,4.133 6.463,4.896c0.825,0.158 2.021,0.275 3.592,0.358c1.566,0.075 3.491,0.117 5.77,0.117l14.121,-0c6.746,-0 12.071,0.871 15.971,2.612c6.146,2.538 9.221,6.434 9.221,11.696l-0,5.179Z" style="fill:#fbb040;fill-rule:nonzero;"/><path d="M2539.92,565.903l0,-17.538c0,-3.617 -4.12,-5.421 -12.362,-5.421l-16.3,0c-3.042,0 -5.771,0.379 -8.179,1.142c-3.421,1.104 -5.129,2.787 -5.129,5.037l-0,16.78c-0,2.158 1.741,3.737 5.229,4.754c2.308,0.666 5.021,0.996 8.125,0.996l16.304,-0c2.629,-0 5.117,-0.38 7.462,-1.142c3.234,-1.046 4.85,-2.579 4.85,-4.608m10.171,-0c0,5.195 -2.571,9 -7.7,11.408c-3.646,1.837 -8.491,2.754 -14.541,2.754l-16.688,0c-5.517,0 -10.508,-0.933 -14.975,-2.8c-5.512,-2.471 -8.267,-6.258 -8.267,-11.362l0,-16.78c0,-5.1 2.742,-8.97 8.221,-11.6c4.025,-2.025 9.017,-3.037 14.971,-3.037l16.738,-0c14.825,-0 22.241,4.846 22.241,14.542l0,16.875Z" style="fill:#fbb040;fill-rule:nonzero;"/><path d="M2581.8,576.315c0,2.5 -1.233,3.75 -3.708,3.75c-2.437,0 -3.862,-0.108 -4.275,-0.333c-1.362,-0.504 -2.042,-1.646 -2.042,-3.417l0,-50.433c0,-2.471 1.234,-3.709 3.705,-3.709c2.312,0 3.758,0.092 4.325,0.284c1.333,0.446 1.995,1.583 1.995,3.425l0,50.433Z" style="fill:#fbb040;fill-rule:nonzero;"/><path d="M2667.51,566.472c0,9.158 -9.696,13.738 -29.087,13.738c-0.538,-0 -1.238,-0.009 -2.092,-0.025c-0.854,-0.017 -1.854,-0.042 -2.996,-0.071c-0.033,-0.034 -0.158,-0.046 -0.379,-0.046l-4.708,-0c-16.288,-0 -24.43,-4.533 -24.43,-13.596l0,-28.233c0,-2.504 1.238,-3.754 3.709,-3.754c2.471,-0 3.912,0.112 4.325,0.329c1.329,0.479 1.996,1.621 1.996,3.425l-0,28.233c-0,3.454 4.8,5.179 14.4,5.179l14.975,0c9.412,0 14.116,-1.675 14.116,-5.037l0,-28.375c0,-1.804 0.679,-2.946 2.046,-3.425c0.408,-0.217 1.867,-0.329 4.371,-0.329c2.504,-0 3.754,1.25 3.754,3.754l0,28.233Z" style="fill:#fbb040;fill-rule:nonzero;"/><path d="M2723.94,539.523c0,2.471 -1.254,3.708 -3.754,3.708l-15.879,0l0,33.084c0,2.5 -1.233,3.75 -3.708,3.75c-2.438,-0 -3.863,-0.109 -4.275,-0.334c-1.363,-0.504 -2.042,-1.646 -2.042,-3.416l0,-33.084c-1.329,0 -2.417,-0.025 -3.254,-0.075c-0.846,-0.046 -1.438,-0.1 -1.783,-0.166c-1.588,-0.538 -2.38,-1.855 -2.38,-3.942c0,-2.092 0.792,-3.408 2.38,-3.95c0.345,-0.058 0.937,-0.117 1.783,-0.167c0.837,-0.041 1.925,-0.066 3.254,-0.066l0,-8.984c0,-2.471 1.233,-3.708 3.704,-3.708c2.442,-0 3.867,0.108 4.279,0.333c1.363,0.475 2.042,1.6 2.042,3.375l0,8.984l15.879,-0c2.5,-0 3.754,1.554 3.754,4.658" style="fill:#fbb040;fill-rule:nonzero;"/><path d="M2754.18,576.315c0,2.5 -1.25,3.75 -3.75,3.75c-2.442,0 -3.867,-0.108 -4.279,-0.333c-1.3,-0.475 -1.954,-1.613 -1.954,-3.417l-0,-38.267c-0,-2.47 1.254,-3.708 3.762,-3.708c2.404,0 3.817,0.113 4.225,0.333c1.334,0.475 1.996,1.6 1.996,3.375l0,38.267Zm1.379,-48.058c0,1.65 -0.696,2.946 -2.087,3.896c-1.209,0.829 -2.679,1.237 -4.421,1.237c-1.742,0 -3.217,-0.408 -4.421,-1.237c-1.396,-0.95 -2.092,-2.246 -2.092,-3.896c0,-1.65 0.696,-2.946 2.092,-3.9c1.204,-0.821 2.679,-1.234 4.421,-1.234c1.742,0 3.212,0.413 4.421,1.234c1.391,0.954 2.087,2.25 2.087,3.9" style="fill:#fbb040;fill-rule:nonzero;"/><path d="M2828.39,565.903l-0,-17.538c-0,-3.617 -4.117,-5.421 -12.358,-5.421l-16.305,0c-3.041,0 -5.77,0.379 -8.175,1.142c-3.42,1.104 -5.133,2.787 -5.133,5.037l0,16.78c0,2.158 1.742,3.737 5.229,4.754c2.309,0.666 5.025,0.996 8.129,0.996l16.305,-0c2.629,-0 5.112,-0.38 7.462,-1.142c3.229,-1.046 4.846,-2.579 4.846,-4.608m10.171,-0c-0,5.195 -2.567,9 -7.696,11.408c-3.646,1.837 -8.492,2.754 -14.546,2.754l-16.683,0c-5.517,0 -10.509,-0.933 -14.975,-2.8c-5.513,-2.471 -8.271,-6.258 -8.271,-11.362l-0,-16.78c-0,-5.1 2.742,-8.97 8.225,-11.6c4.021,-2.025 9.012,-3.037 14.971,-3.037l16.733,-0c14.829,-0 22.242,4.846 22.242,14.542l-0,16.875Z" style="fill:#fbb040;fill-rule:nonzero;"/><path d="M2922.09,576.315c-0,2.5 -1.254,3.75 -3.754,3.75c-2.475,0 -3.917,-0.108 -4.325,-0.333c-1.367,-0.475 -2.046,-1.613 -2.046,-3.417l-0,-29c-0,-2.058 -1.713,-3.404 -5.133,-4.042c-0.605,-0.12 -1.53,-0.208 -2.78,-0.254c-1.254,-0.05 -2.829,-0.075 -4.733,-0.075l-17.3,0c-1.742,0 -3.208,0.034 -4.396,0.096c-1.191,0.063 -2.133,0.158 -2.829,0.283c-3.233,0.634 -4.85,1.984 -4.85,4.042l0,28.95c0,2.5 -1.237,3.75 -3.704,3.75c-2.471,0 -3.917,-0.108 -4.325,-0.333c-1.333,-0.475 -2,-1.613 -2,-3.417l-0,-28.854c-0,-8.65 7.671,-12.975 23.008,-12.975l16.396,-0c15.183,-0 22.771,4.292 22.771,12.879l-0,28.95Z" style="fill:#fbb040;fill-rule:nonzero;"/><path d="M3000,567.042c0,8.683 -6.625,13.025 -19.871,13.025l-33.937,-0c-2.471,-0 -3.708,-1.254 -3.708,-3.75c-0,-3.113 1.237,-4.667 3.708,-4.667l33.987,0c6.275,0 9.413,-1.533 9.413,-4.608l-0,-1.709c-0,-2.758 -2.858,-4.133 -8.558,-4.133l-16.305,0c-14.991,0 -22.479,-4.183 -22.479,-12.554l0,-2.471c0,-5.546 3.767,-9.092 11.309,-10.646c1.525,-0.346 3.75,-0.608 6.679,-0.787c2.929,-0.171 6.616,-0.254 11.05,-0.254c2.504,-0 3.758,1.575 3.758,4.75c0,2.47 -1.254,3.708 -3.758,3.708l-7.221,-0c-3.771,-0 -6.038,0.046 -6.8,0.142c-3.329,0.441 -4.992,1.47 -4.992,3.087l0,2.379c0,2.725 4.167,4.088 12.504,4.088l16.634,-0c12.391,-0 18.587,4.104 18.587,12.308l0,2.092Z" style="fill:#fbb040;fill-rule:nonzero;"/></g></svg>